<svg width="60" height="60" viewBox="0 0 60 60" fill="none" xmlns="http://www.w3.org/2000/svg">
<path d="M8.75303 20.0094C6.68246 20.0094 5.00391 21.688 5.00391 23.7585V41.2544C5.00391 43.325 6.68246 45.0035 8.75303 45.0035C10.8236 45.0035 12.5021 43.325 12.5021 41.2544V23.7585C12.5021 21.688 10.8236 20.0094 8.75303 20.0094ZM51.243 20.0094C49.1724 20.0094 47.4939 21.688 47.4939 23.7585V41.2544C47.4939 43.325 49.1724 45.0035 51.243 45.0035C53.3136 45.0035 54.9921 43.325 54.9921 41.2544V23.7585C54.9921 21.688 53.3137 20.0094 51.243 20.0094ZM43.7448 20.0094H16.2513C15.5611 20.0094 15.0015 20.569 15.0015 21.2592V41.2544C15.0009 44.2242 17.0906 46.784 20.0004 47.378V56.2509C20.0004 58.3214 21.6789 60 23.7495 60C25.8201 60 27.4986 58.3214 27.4986 56.2509V47.5029H32.4975V56.2509C32.4975 58.3214 34.1761 60 36.2466 60C38.3172 60 39.9957 58.3214 39.9957 56.2509V47.378C42.9055 46.784 44.9952 44.2242 44.9946 41.2544V21.2592C44.9945 20.569 44.4349 20.0094 43.7448 20.0094ZM39.0834 5.19288L42.1302 2.1486C42.6266 1.66906 42.6403 0.877996 42.1609 0.381472C41.6813 -0.114935 40.8903 -0.128643 40.3937 0.350776C40.3833 0.360852 40.3731 0.371045 40.363 0.381472L36.8139 3.93072C34.6634 2.99656 32.3439 2.51451 29.9992 2.51451C27.6546 2.51451 25.335 2.99656 23.1846 3.93072L19.6354 0.379012C19.139 -0.100524 18.3478 -0.0866994 17.8683 0.409708C17.4006 0.894047 17.4006 1.6618 17.8683 2.14602L20.9126 5.19277C19.0857 6.40155 17.5887 8.04632 16.5567 9.97855C15.5247 11.9108 14.9902 14.0696 15.0015 16.2602C15.0015 16.9504 15.5611 17.5099 16.2513 17.5099H43.7449C44.4351 17.5099 44.9946 16.9504 44.9946 16.2602C45.0058 14.0697 44.4713 11.9108 43.4393 9.97862C42.4073 8.04641 40.9103 6.40167 39.0834 5.19288Z" fill="#4CAF50"/>
<path d="M23.7497 12.5112C24.44 12.5112 24.9995 11.9517 24.9995 11.2615C24.9995 10.5712 24.44 10.0117 23.7497 10.0117C23.0595 10.0117 22.5 10.5712 22.5 11.2615C22.5 11.9517 23.0595 12.5112 23.7497 12.5112Z" fill="#FAFAFA"/>
<path d="M36.2458 12.5112C36.9361 12.5112 37.4956 11.9517 37.4956 11.2615C37.4956 10.5712 36.9361 10.0117 36.2458 10.0117C35.5556 10.0117 34.9961 10.5712 34.9961 11.2615C34.9961 11.9517 35.5556 12.5112 36.2458 12.5112Z" fill="#FAFAFA"/>
</svg>
