<svg width="48" height="50" viewBox="0 0 48 50" fill="none" xmlns="http://www.w3.org/2000/svg">
<g clip-path="url(#clip0_303_2)">
<path d="M23.6141 0.0631104L0.157104 8.31821L3.86394 39.0506L23.6389 49.9192L43.516 38.9033L47.2213 8.17204L23.6141 0.0631104Z" fill="#B3B3B3"/>
<path d="M44.8817 9.94817L23.5593 2.677V47.3226L41.4284 37.433L44.8815 9.94817H44.8817Z" fill="#A6120D"/>
<path d="M2.78931 10.0792L5.96576 37.5645L23.5589 47.3226V2.67627L2.78949 10.079L2.78931 10.0792Z" fill="#DD1B16"/>
<path d="M29.4287 26.4439L23.5593 29.1886H17.3731L14.4651 36.4622L9.0564 36.5621L23.5593 4.29822L29.4287 26.4441V26.4439ZM28.8613 25.0621L23.5984 14.643L19.2813 24.8828H23.5591L28.8613 25.0623V25.0621Z" fill="#F2F2F2"/>
<path d="M23.5591 4.2981L23.5979 14.643L28.4964 24.8908H23.5702L23.5591 29.182L30.371 29.1885L33.5547 36.5633L38.7301 36.6592L23.5591 4.2981Z" fill="#B3B3B3"/>
</g>
<defs>
<clipPath id="clip0_303_2">
<rect width="48" height="49.9726" fill="white"/>
</clipPath>
</defs>
</svg>
