<svg width="48" height="29" viewBox="0 0 48 29" fill="none" xmlns="http://www.w3.org/2000/svg">
<g clip-path="url(#clip0_303_102)">
<path d="M13.6421 10.5073C13.6421 11.0928 13.7053 11.5675 13.8158 11.9156C13.9421 12.2637 14.1 12.6435 14.3211 13.0549C14.4 13.1815 14.4316 13.3081 14.4316 13.4189C14.4316 13.5771 14.3368 13.7354 14.1316 13.8936L13.1368 14.5582C12.9947 14.6532 12.8526 14.7007 12.7263 14.7007C12.5684 14.7007 12.4105 14.6215 12.2526 14.4791C12.0316 14.2418 11.8421 13.9886 11.6842 13.7354C11.5263 13.4664 11.3684 13.1657 11.1947 12.8018C9.96316 14.2576 8.41579 14.9855 6.55263 14.9855C5.22632 14.9855 4.16842 14.6057 3.39474 13.8462C2.62106 13.0866 2.22632 12.0739 2.22632 10.8079C2.22632 9.46286 2.7 8.37099 3.66316 7.54814C4.62632 6.72528 5.90527 6.31385 7.53158 6.31385C8.06842 6.31385 8.62105 6.36132 9.20526 6.44045C9.78948 6.51957 10.3895 6.64616 11.0211 6.78858V5.63341C11.0211 4.43077 10.7684 3.59209 10.2789 3.10154C9.77369 2.61099 8.92105 2.37363 7.70527 2.37363C7.15263 2.37363 6.58421 2.43693 6 2.57935C5.41579 2.72176 4.84737 2.89583 4.29474 3.11737C4.04211 3.22814 3.85263 3.29143 3.74211 3.32308C3.63158 3.35473 3.55263 3.37056 3.48948 3.37056C3.26842 3.37056 3.1579 3.21231 3.1579 2.88001V2.10462C3.1579 1.85143 3.18948 1.66154 3.26842 1.55078C3.34737 1.44001 3.48948 1.32924 3.71053 1.21847C4.26316 0.933633 4.92632 0.69627 5.7 0.50638C6.47369 0.300666 7.29474 0.205721 8.16316 0.205721C10.0421 0.205721 11.4158 0.632973 12.3 1.48748C13.1684 2.34198 13.6105 3.63957 13.6105 5.38023V10.5073H13.6421ZM7.23158 12.9125C7.75263 12.9125 8.28948 12.8176 8.8579 12.6277C9.42632 12.4378 9.93158 12.0897 10.3579 11.615C10.6105 11.3143 10.8 10.982 10.8947 10.6022C10.9895 10.2224 11.0526 9.76352 11.0526 9.2255V8.56088C10.5947 8.45011 10.1053 8.35517 9.6 8.29187C9.09474 8.22858 8.60527 8.19693 8.11579 8.19693C7.0579 8.19693 6.28421 8.40264 5.76316 8.8299C5.24211 9.25715 4.98948 9.85847 4.98948 10.6497C4.98948 11.3934 5.17895 11.9473 5.57369 12.327C5.95263 12.7226 6.50527 12.9125 7.23158 12.9125ZM19.9105 14.6215C19.6263 14.6215 19.4368 14.5741 19.3105 14.4633C19.1842 14.3684 19.0737 14.1468 18.9789 13.8462L15.2684 1.61407C15.1737 1.29759 15.1263 1.09187 15.1263 0.981105C15.1263 0.727918 15.2526 0.585501 15.5053 0.585501H17.0526C17.3526 0.585501 17.5579 0.632973 17.6684 0.743742C17.7947 0.838688 17.8895 1.06023 17.9842 1.36089L20.6368 11.8365L23.1 1.36089C23.1789 1.0444 23.2737 0.838688 23.4 0.743742C23.5263 0.648797 23.7474 0.585501 24.0316 0.585501H25.2947C25.5947 0.585501 25.8 0.632973 25.9263 0.743742C26.0526 0.838688 26.1632 1.06023 26.2263 1.36089L28.7211 11.9631L31.4526 1.36089C31.5474 1.0444 31.6579 0.838688 31.7684 0.743742C31.8947 0.648797 32.1 0.585501 32.3842 0.585501H33.8526C34.1053 0.585501 34.2474 0.712094 34.2474 0.981105C34.2474 1.06023 34.2316 1.13935 34.2158 1.23429C34.2 1.32924 34.1684 1.45583 34.1053 1.6299L30.3 13.862C30.2053 14.1785 30.0947 14.3842 29.9684 14.4791C29.8421 14.5741 29.6368 14.6374 29.3684 14.6374H28.0105C27.7105 14.6374 27.5053 14.5899 27.3789 14.4791C27.2526 14.3684 27.1421 14.1626 27.0789 13.8462L24.6316 3.63957L22.2 13.8303C22.1211 14.1468 22.0263 14.3525 21.9 14.4633C21.7737 14.5741 21.5526 14.6215 21.2684 14.6215H19.9105ZM40.2 15.0488C39.3789 15.0488 38.5579 14.9539 37.7684 14.764C36.9789 14.5741 36.3632 14.3684 35.9526 14.131C35.7 13.9886 35.5263 13.8303 35.4632 13.6879C35.4 13.5455 35.3684 13.3873 35.3684 13.2448V12.4378C35.3684 12.1055 35.4947 11.9473 35.7316 11.9473C35.8263 11.9473 35.9211 11.9631 36.0158 11.9947C36.1105 12.0264 36.2526 12.0897 36.4105 12.153C36.9474 12.3903 37.5316 12.5802 38.1474 12.7068C38.7789 12.8334 39.3947 12.8967 40.0263 12.8967C41.0211 12.8967 41.7947 12.7226 42.3316 12.3745C42.8684 12.0264 43.1526 11.52 43.1526 10.8712C43.1526 10.4281 43.0105 10.0642 42.7263 9.76352C42.4421 9.46286 41.9053 9.19385 41.1316 8.94066L38.8421 8.22858C37.6895 7.86462 36.8368 7.3266 36.3158 6.61451C35.7947 5.91825 35.5263 5.14286 35.5263 4.32001C35.5263 3.65539 35.6684 3.0699 35.9526 2.56352C36.2368 2.05715 36.6158 1.61407 37.0895 1.26594C37.5632 0.901984 38.1 0.632973 38.7316 0.443083C39.3632 0.253193 40.0263 0.174072 40.7211 0.174072C41.0684 0.174072 41.4316 0.189896 41.7789 0.237369C42.1421 0.284841 42.4737 0.348138 42.8053 0.411435C43.1211 0.490556 43.4211 0.569677 43.7053 0.664622C43.9895 0.759567 44.2105 0.854512 44.3684 0.949457C44.5895 1.07605 44.7474 1.20264 44.8421 1.34506C44.9368 1.47165 44.9842 1.64572 44.9842 1.86726V2.61099C44.9842 2.9433 44.8579 3.11737 44.6211 3.11737C44.4947 3.11737 44.2895 3.05407 44.0211 2.92748C43.1211 2.51605 42.1105 2.31034 40.9895 2.31034C40.0895 2.31034 39.3789 2.45275 38.8895 2.75341C38.4 3.05407 38.1474 3.51297 38.1474 4.16176C38.1474 4.60484 38.3053 4.98462 38.6211 5.28528C38.9368 5.58594 39.5211 5.8866 40.3579 6.15561L42.6 6.8677C43.7368 7.23165 44.5579 7.73803 45.0474 8.38682C45.5368 9.03561 45.7737 9.77935 45.7737 10.6022C45.7737 11.2826 45.6316 11.8998 45.3632 12.4378C45.0789 12.9758 44.7 13.4506 44.2105 13.8303C43.7211 14.2259 43.1368 14.5108 42.4579 14.7165C41.7474 14.938 41.0053 15.0488 40.2 15.0488Z" fill="#252F3E"/>
<path fill-rule="evenodd" clip-rule="evenodd" d="M43.1842 22.7393C37.9895 26.5846 30.4421 28.6259 23.9526 28.6259C14.8579 28.6259 6.66316 25.2554 0.473685 19.6536C-0.0157885 19.2106 0.426317 18.6092 1.01053 18.9574C7.70526 22.8501 15.9632 25.2079 24.5053 25.2079C30.2684 25.2079 36.6 24.0053 42.4263 21.5367C43.2947 21.1411 44.0368 22.1064 43.1842 22.7393Z" fill="#FF9900"/>
<path fill-rule="evenodd" clip-rule="evenodd" d="M45.3474 20.2708C44.6842 19.4163 40.9579 19.8593 39.2684 20.0651C38.7632 20.1284 38.6842 19.6853 39.1421 19.353C42.1105 17.2642 46.9895 17.8655 47.5579 18.5618C48.1263 19.2738 47.4 24.1635 44.6211 26.5055C44.1947 26.8695 43.7842 26.6796 43.9737 26.2048C44.6053 24.6382 46.0105 21.1095 45.3474 20.2708Z" fill="#FF9900"/>
</g>
<defs>
<clipPath id="clip0_303_102">
<rect width="48" height="28.8" fill="white"/>
</clipPath>
</defs>
</svg>
