<svg width="48" height="38" viewBox="0 0 48 38" fill="none" xmlns="http://www.w3.org/2000/svg">
<path d="M22.206 35.1797C28.3729 34.0907 33.4664 33.1896 33.5249 33.1772L33.6312 33.1546L27.8091 26.232C24.6069 22.4246 21.9869 19.2947 21.9869 19.2766C21.9869 19.2425 27.9988 2.69352 28.0326 2.63464C28.0439 2.61496 32.1352 9.67567 37.9501 19.7503C43.3941 29.1823 47.8824 36.959 47.9241 37.0319L48 37.1644L29.4967 37.162L10.9935 37.1596L22.206 35.1797ZM0 33.0686C0 33.0589 2.74337 28.2984 6.09637 22.4899L12.1927 11.9289L19.2974 5.96895C23.2049 2.691 26.4125 0.0050332 26.4254 0.000134647C26.4382 -0.00476294 26.3868 0.124562 26.3111 0.287524C26.2354 0.450487 22.7639 7.89378 18.5965 16.8282L11.0195 33.0725L5.50976 33.0794C2.47939 33.0832 0 33.0784 0 33.0686Z" fill="#0089D6"/>
</svg>
