<svg width="96" height="83" viewBox="0 0 96 83" fill="none" xmlns="http://www.w3.org/2000/svg">
<path d="M54.33 41.7398H64.2739H54.33ZM42.4919 41.7398H52.4359H42.4919ZM30.8906 41.7398H40.8346H30.8906ZM19.2892 41.7398H28.9965H19.2892ZM7.45117 41.7398H17.3952H7.45117ZM19.2892 30.8699H28.9965H19.2892ZM30.8906 30.8699H40.8346H30.8906ZM42.4919 30.8699H52.4359H42.4919ZM42.4919 20H52.4359H42.4919Z" fill="black"/>
<path d="M54.33 41.7398H64.2739M42.4919 41.7398H52.4359M30.8906 41.7398H40.8346M19.2892 41.7398H28.9965M7.45117 41.7398H17.3952M19.2892 30.8699H28.9965M30.8906 30.8699H40.8346M42.4919 30.8699H52.4359M42.4919 20H52.4359" stroke="#066DA5" stroke-width="38"/>
<path d="M96 42.2124C96 42.2124 91.7383 38.1952 82.9781 39.613C82.0311 32.7603 74.6915 28.7432 74.6915 28.7432C74.6915 28.7432 67.8254 37.0137 72.7974 46.2295C71.3768 46.9384 69.0092 47.8836 65.4578 47.8836H0.348331C-0.835476 52.3733 -0.835475 82.1474 31.8376 82.1474C55.277 82.1474 72.7974 71.2775 81.084 51.4281C93.3956 52.3733 96 42.2124 96 42.2124Z" fill="#066DA5"/>
</svg>
