<svg width="64" height="64" viewBox="0 0 64 64" fill="none" xmlns="http://www.w3.org/2000/svg">
<g clip-path="url(#clip0_246_1094)">
<path d="M32.0119 1.84459e-06C49.6805 0.00594171 64 14.3314 64 32V32.0119C63.9941 49.6834 49.6626 64.0059 31.9881 64C14.3166 63.9941 -0.00593433 49.6597 1.84459e-06 31.9881C0.00594171 14.3166 14.3374 -0.00593433 32.0119 1.84459e-06ZM31.8486 8.2301C30.9698 11.5554 28.0067 14.5096 24.9041 17.6122C20.2635 22.2646 14.9876 27.5287 14.9876 35.4351C14.9994 44.7341 22.5289 52.2724 31.8278 52.2962C41.1446 52.2962 48.7007 44.7489 48.7096 35.4351C48.7096 27.5287 43.4485 22.2676 38.7931 17.6122L38.3773 17.1963C35.4291 14.2445 32.6852 11.4093 31.8486 8.2301ZM32.0772 33.4786C34.013 35.542 35.2422 36.9642 36.5159 38.517C36.6109 38.6328 36.697 38.7575 36.7742 38.8911C38.3329 41.1386 38.1221 44.167 36.2665 46.1741C34.0813 48.5404 30.3938 48.6858 28.0275 46.5007C25.6612 44.3155 25.5157 40.6279 27.7009 38.2616C28.9419 36.795 30.4413 35.352 32.0772 33.4786ZM24.3726 25.7413L25.1861 26.5103L28.9627 30.373C29.1052 30.5363 29.1052 30.7768 28.9627 30.9401L25.0139 35.3045L23.6333 36.985C23.1078 37.6263 22.6625 38.324 22.3062 39.0722C22.2557 39.1969 22.1488 39.2889 22.0182 39.3186H21.8786C21.4956 39.286 21.0562 38.5793 21.0562 38.5793L20.9864 38.4735C20.8952 38.3314 20.8116 38.185 20.7356 38.033L20.6614 37.8727C20.121 36.115 20.0794 34.2416 20.5337 32.4602L20.5848 32.275C21.0041 30.7962 21.6658 29.3939 22.5437 28.1284C23.1078 27.2971 23.7194 26.5014 24.3726 25.7413ZM31.8723 17.9328C32.8788 19.0759 34.013 20.2219 35.0818 21.2908L35.1056 21.365C37.3413 23.4463 39.3602 25.7473 41.1386 28.2323C42.6469 30.3522 43.4723 32.8818 43.5019 35.4856C43.5019 36.6109 43.3327 37.7272 43.0002 38.802L42.9837 38.8463C42.8942 39.0642 42.6996 39.2232 42.4658 39.2622H42.3589C42.1273 39.188 41.9343 39.0336 41.8126 38.8228L41.6335 38.554C40.6708 37.1258 39.5853 35.7851 38.3893 34.5444L36.8484 32.9174L31.712 27.5673C30.8451 26.733 29.2952 25.2366 28.6421 24.4231C28.6213 24.3786 28.5975 24.337 28.5678 24.2954C28.3897 24.052 28.2531 23.7818 28.1611 23.4938V23.3335C28.072 22.8109 28.1433 22.2735 28.363 21.7925C28.5055 21.4867 28.7014 21.2076 28.9419 20.9701C29.9365 19.9755 30.9312 19.0017 31.8723 17.9328Z" fill="#009DDE"/>
</g>
<defs>
<clipPath id="clip0_246_1094">
<rect width="64" height="64" fill="white"/>
</clipPath>
</defs>
</svg>
