<svg width="48" height="39" viewBox="0 0 48 39" fill="none" xmlns="http://www.w3.org/2000/svg">
<path d="M30.4582 10.6342H31.9222L36.0946 6.46303L36.2995 4.69211C33.9093 2.58303 31.0207 1.11793 27.9066 0.435202C24.7925 -0.247526 21.5557 -0.125341 18.502 0.790216C15.4483 1.70577 12.6784 3.38447 10.4541 5.66774C8.22981 7.95102 6.62445 10.7635 5.7897 13.8395C6.25453 13.649 6.76944 13.6181 7.25371 13.7516L15.5985 12.3759C15.5985 12.3759 16.0231 11.6734 16.2427 11.7173C18.0307 9.75412 20.5017 8.54848 23.1499 8.34714C25.798 8.1458 28.423 8.96399 30.4874 10.6342H30.4582Z" fill="#EA4335"/>
<path d="M42.0384 13.8395C41.0794 10.3088 39.1103 7.13478 36.3727 4.70679L30.5167 10.5611C31.7372 11.558 32.7153 12.819 33.3772 14.2489C34.0391 15.6788 34.3675 17.2403 34.3378 18.8156V19.8548C35.0222 19.8548 35.6999 19.9896 36.3323 20.2514C36.9646 20.5132 37.5391 20.897 38.0231 21.3809C38.5071 21.8647 38.891 22.4391 39.1529 23.0712C39.4148 23.7034 39.5496 24.3809 39.5496 25.0651C39.5496 25.7493 39.4148 26.4269 39.1529 27.059C38.891 27.6912 38.5071 28.2655 38.0231 28.7494C37.5391 29.2332 36.9646 29.617 36.3323 29.8788C35.6999 30.1407 35.0222 30.2754 34.3378 30.2754H23.9141L22.8746 31.3292V37.5787L23.9141 38.6178H34.3378C37.2486 38.6405 40.0893 37.7259 42.4399 36.0094C44.7904 34.2929 46.5259 31.8656 47.3895 29.0866C48.2532 26.3076 48.1992 23.3245 47.2355 20.5786C46.2718 17.8327 44.4496 15.4698 42.0384 13.8395Z" fill="#4285F4"/>
<path d="M13.4757 38.5593H23.8994V30.2169H13.4757C12.7331 30.2167 11.9992 30.057 11.3237 29.7485L9.85965 30.2022L5.65796 34.3734L5.29196 35.837C7.64818 37.6157 10.5233 38.5721 13.4757 38.5593Z" fill="#34A853"/>
<path d="M13.4757 11.4978C10.6514 11.5146 7.90283 12.4129 5.61398 14.0672C3.32513 15.7215 1.61027 18.0491 0.708902 20.725C-0.192463 23.4009 -0.235313 26.2915 0.586336 28.9929C1.40799 31.6943 3.0531 34.0717 5.29191 35.7931L11.3382 29.7485C10.5699 29.4015 9.89721 28.8733 9.37795 28.2092C8.85868 27.5451 8.50833 26.765 8.35694 25.9358C8.20556 25.1066 8.25767 24.2531 8.50879 23.4485C8.75992 22.6438 9.20257 21.9121 9.79876 21.3161C10.395 20.7201 11.1269 20.2775 11.9318 20.0265C12.7366 19.7754 13.5904 19.7233 14.4199 19.8747C15.2493 20.026 16.0296 20.3763 16.6939 20.8954C17.3582 21.4145 17.8866 22.087 18.2337 22.8551L24.28 16.8105C23.011 15.152 21.3753 13.8093 19.501 12.8877C17.6267 11.966 15.5645 11.4903 13.4757 11.4978Z" fill="#FBBC05"/>
</svg>
