<svg width="60" height="60" viewBox="0 0 60 60" fill="none" xmlns="http://www.w3.org/2000/svg">
<path d="M41.5461 0H41.9729C42.3155 4.23133 40.7004 7.39296 38.7375 9.68252C36.8116 11.9563 34.1742 14.1615 29.9087 13.8269C29.6241 9.65617 31.2418 6.72902 33.202 4.44474C35.02 2.3159 38.3529 0.421552 41.5461 0ZM54.4588 44.0416V44.1602C53.26 47.7908 51.5501 50.9024 49.4634 53.79C47.5585 56.4115 45.2242 59.9394 41.0561 59.9394C37.4544 59.9394 35.0621 57.6235 31.3709 57.5603C27.4663 57.497 25.319 59.4968 21.749 60H20.5318C17.9102 59.6206 15.7946 57.5445 14.2533 55.6738C9.70843 50.1462 6.19637 43.0062 5.54297 33.8691V31.1843C5.81961 24.645 8.99706 19.3282 13.2205 16.7514C15.4494 15.3814 18.5136 14.2142 21.9255 14.7359C23.3878 14.9625 24.8817 15.463 26.1911 15.9584C27.432 16.4353 28.9839 17.281 30.454 17.2362C31.45 17.2072 32.4406 16.6882 33.4444 16.322C36.3848 15.2602 39.2671 14.0429 43.0664 14.6147C47.6323 15.305 50.873 17.3337 52.8753 20.4637C49.0129 22.9219 45.9592 26.6263 46.4809 32.9522C46.9446 38.6985 50.2854 42.0603 54.4588 44.0416Z" fill="black"/>
</svg>
