<svg width="48" height="48" viewBox="0 0 48 48" fill="none" xmlns="http://www.w3.org/2000/svg">
<g clip-path="url(#clip0_314_373)">
<path d="M48 0H0V48H48V0Z" fill="#F7DF1E"/>
<path d="M32.2438 37.5001C33.2107 39.0787 34.4686 40.2391 36.6933 40.2391C38.5623 40.2391 39.7562 39.305 39.7562 38.0144C39.7562 36.4677 38.5295 35.9199 36.4724 35.0201L35.3448 34.5363C32.0899 33.1496 29.9276 31.4125 29.9276 27.7401C29.9276 24.3572 32.5052 21.782 36.5333 21.782C39.4012 21.782 41.4629 22.7801 42.9486 25.3934L39.4362 27.6486C38.6629 26.262 37.8286 25.7157 36.5333 25.7157C35.2122 25.7157 34.3749 26.5538 34.3749 27.6486C34.3749 29.0018 35.213 29.5496 37.1482 30.3877L38.2758 30.8707C42.1082 32.5142 44.272 34.1896 44.272 37.9565C44.272 42.0174 41.0819 44.2422 36.7977 44.2422C32.6088 44.2422 29.9025 42.246 28.5783 39.6296L32.2438 37.5001ZM16.3101 37.8909C17.0187 39.1481 17.6633 40.2109 19.213 40.2109C20.6949 40.2109 21.6297 39.6311 21.6297 37.3766V22.0395H26.1402V37.4376C26.1402 42.1081 23.4019 44.2338 19.405 44.2338C15.7935 44.2338 13.7021 42.3648 12.6385 40.1138L16.3101 37.8909Z" fill="black"/>
</g>
<defs>
<clipPath id="clip0_314_373">
<rect width="48" height="48" fill="white"/>
</clipPath>
</defs>
</svg>
