<svg width="48" height="48" viewBox="0 0 48 48" fill="none" xmlns="http://www.w3.org/2000/svg">
<path d="M38.1285 19.4852C38.1285 27.4803 31.7895 33.9678 23.9657 33.9678C16.142 33.9678 9.80301 27.4803 9.80301 19.4852C9.80301 11.4901 16.142 5.00269 23.9657 5.00269C31.7895 5.00269 38.1285 11.4901 38.1285 19.4852Z" fill="#D33833"/>
<path d="M10.3855 23.0717C10.3855 23.0717 9.35757 7.97238 23.2805 7.53837L22.3096 5.9165L14.76 8.45209L12.6013 10.9306L10.7167 14.5398L9.64311 18.7429L9.96292 21.5526" fill="#EF3D3A"/>
<path d="M14.2688 9.60572C11.7904 12.1527 10.2484 15.6592 10.2484 19.5425C10.2484 23.4258 11.7904 26.9322 14.2688 29.4792C16.7587 32.0262 20.1738 33.591 23.9657 33.591C27.7577 33.591 31.1727 32.0262 33.6626 29.4792C36.1411 26.9322 37.683 23.4258 37.683 19.5425C37.683 15.6592 36.1411 12.1527 33.6626 9.60572C31.1727 7.07014 27.7577 5.49396 23.9657 5.49396C20.1852 5.49396 16.7587 7.05872 14.2688 9.60572ZM13.6407 30.0846C11.0023 27.3891 9.36899 23.6542 9.36899 19.5425C9.36899 15.4307 11.0023 11.6959 13.6407 8.98896C16.279 6.29347 19.9339 4.6145 23.9657 4.6145C27.9976 4.6145 31.6525 6.29347 34.2908 8.98896C36.9292 11.6844 38.5625 15.4193 38.5625 19.5425C38.5625 23.6542 36.9292 27.3891 34.2908 30.0846C31.6525 32.7915 27.9976 34.459 23.9657 34.459C19.9339 34.459 16.279 32.7915 13.6407 30.0846Z" fill="#231F20"/>
<path d="M29.9278 19.5652L27.7691 19.885L24.8566 20.2162L22.9721 20.2619L21.1332 20.2048L19.7283 19.7708L18.4834 18.4231L17.5126 15.6705L17.2956 15.0765L16.0049 14.6425L15.2511 13.3976L14.7143 11.6158L15.3082 10.051L16.7131 9.55992L17.8438 10.0967L18.3806 11.2846L19.0316 11.1818L19.2486 10.9077L19.0316 9.66271L18.9745 8.09796L19.2943 5.93928L19.2829 4.70576L20.2652 3.12958L21.9898 1.88463L25.0051 0.593994L28.3516 1.08512L31.2641 3.18669L32.6119 5.34536L33.4799 6.91012L33.6969 10.7934L33.0459 14.14L31.858 17.1096L30.7387 18.6972" fill="#F0D6B7"/>
<path d="M28.1004 28.8967L20.3908 29.2165V30.5071L21.0418 35.0415L20.722 35.4184L15.331 33.5795L14.9541 32.9285L14.4173 26.8294L13.1495 23.1745L12.8754 22.3065L17.1928 19.3369L18.5405 18.8L19.7283 20.262L20.7563 21.1757L21.9441 21.5526L22.4809 21.7125L23.132 24.5223L23.6231 25.1162L24.8681 24.6822L24 26.3611L28.6829 28.5769L28.1004 28.8967Z" fill="#335061"/>
<path d="M15.3082 10.0738L16.713 9.58271L17.8438 10.1195L18.3806 11.3074L19.0316 11.2046L19.1915 10.5535L18.8717 9.30859L19.1915 6.33898L18.9174 4.71712L19.8882 3.58639L21.9898 1.91884L21.3959 1.10791L18.4263 2.56987L17.1813 3.5407L16.4846 5.04835L15.411 6.51031L15.0912 8.23496L15.3082 10.0738Z" fill="#6D6B6D"/>
<path d="M17.524 5.00281C17.524 5.00281 18.3349 3.00403 21.5672 2.0332C24.7995 1.06237 21.7271 1.33649 21.7271 1.33649L18.2207 2.68423L16.873 4.03197L16.279 5.1056L17.524 5.00281Z" fill="#DCD9D8"/>
<path d="M15.9021 9.69689C15.9021 9.69689 14.7714 5.91636 19.0887 5.37954L18.9288 4.72852L15.9592 5.42523L15.0912 8.23493L15.3082 10.0738L15.9021 9.69689Z" fill="#DCD9D8"/>
<path d="M17.6268 14.7112L18.3349 14.0259C18.3349 14.0259 18.6547 14.0601 18.7118 14.4371C18.7689 14.814 18.9288 18.2176 21.2474 20.045C21.4644 20.2164 19.5227 19.7709 19.5227 19.7709L17.7981 17.0754" fill="#F7E4CD"/>
<path d="M27.5521 13.6832C27.5521 13.6832 27.6777 12.05 28.1232 12.1756C28.5686 12.3012 28.5686 12.7467 28.5686 12.7467C28.5686 12.7467 27.495 13.432 27.5521 13.6832Z" fill="#F7E4CD"/>
<path d="M32.0294 7.69824C32.0294 7.69824 31.1385 7.88099 31.0585 8.66908C30.9786 9.45716 32.0294 8.82898 32.1893 8.77187" fill="#F7E4CD"/>
<path d="M25.5077 7.75537C25.5077 7.75537 24.3198 7.91527 24.3198 8.6691C24.3198 9.42292 25.6676 9.36581 26.0445 9.04601" fill="#F7E4CD"/>
<path d="M18.175 11.2618C18.175 11.2618 16.1306 10.0168 15.9135 11.2047C15.6965 12.3925 15.2168 13.2491 16.2333 14.4941L15.5366 14.2771L14.8856 12.6095L14.6686 10.9877L15.9135 9.69702L17.3184 9.79982L18.1293 10.4508L18.175 11.2618Z" fill="#F7E4CD"/>
<path d="M19.1458 7.85819C19.1458 7.85819 20.0596 3.10682 24.6967 2.1931C28.5115 1.43927 30.5217 2.353 31.2755 3.22104C31.2755 3.22104 27.8719 -0.822195 24.6396 0.411334C21.4073 1.65628 19.0316 3.91775 19.0887 5.36829C19.1801 7.85819 19.1458 7.85819 19.1458 7.85819Z" fill="#F7E4CD"/>
<path d="M31.6525 3.75789C31.6525 3.75789 30.0877 3.70078 30.0306 5.10564C30.0306 5.10564 30.0306 5.32264 30.1334 5.53965C30.1334 5.53965 31.3783 4.1348 32.1322 4.88863" fill="#F7E4CD"/>
<path d="M24.8109 5.68801C24.8109 5.68801 24.5368 3.54076 22.7094 4.78571C21.5215 5.59664 21.6357 6.72737 21.8413 6.94438C22.0583 7.16139 22.0012 7.59541 22.1611 7.29845C22.321 7.00149 22.2754 6.03066 22.8693 5.75654C23.4518 5.48242 24.434 5.18546 24.8109 5.68801Z" fill="#F7E4CD"/>
<path d="M19.7398 20.262L14.6686 22.5235C14.6686 22.5235 16.7702 30.8841 15.6965 33.4768L14.9427 33.2027L14.8856 30.0161L13.4807 23.9855L12.8868 22.3179L18.175 18.7544L19.7398 20.262Z" fill="#49728B"/>
<path d="M20.2537 24.8877L20.9733 25.7672V28.9995H20.1167C20.1167 28.9995 20.0139 26.738 20.0139 26.4639C20.0139 26.1898 20.1167 25.2189 20.1167 25.2189" fill="#49728B"/>
<path d="M20.2766 29.4905L17.8438 29.5933L18.5405 30.0844L20.2652 30.3585" fill="#49728B"/>
<path d="M28.58 28.9538L30.5788 28.8967L31.0699 33.8537L29.0255 34.1278L28.58 28.9538Z" fill="#335061"/>
<path d="M29.1169 28.9538L32.1322 28.7939C32.1322 28.7939 33.3771 25.6644 33.3771 25.5045C33.3771 25.3446 34.4507 20.9701 34.4507 20.9701L32.0179 18.4345L31.5268 18.0005L30.2362 19.2911V24.3052L29.1169 28.9538Z" fill="#335061"/>
<path d="M30.4646 28.5769L28.58 28.9538L28.8542 30.4615C29.5509 30.7813 30.7387 29.9246 30.7387 29.9246" fill="#49728B"/>
<path d="M30.5217 19.1313L34.3022 21.941L34.405 20.6503L31.5497 18.012L30.5217 19.1313Z" fill="#49728B"/>
<path d="M22.1497 39.5759L21.0304 35.0415L20.4708 31.695L20.3794 29.2165L25.4391 28.9424H28.5801L28.2945 34.6075L28.7856 38.9819L28.7285 39.7929L24.6282 40.1127L22.1497 39.5759Z" fill="white"/>
<path d="M27.8833 28.8967C27.8833 28.8967 27.6092 34.5047 28.4201 38.5022C28.4201 38.5022 26.7983 39.5302 24.434 39.7929L28.9684 39.633L29.5052 39.3132L28.8542 30.4729L28.6828 28.5769" fill="#DCD9D8"/>
<path d="M31.1499 33.4311L33.2515 32.8372L37.2376 32.6202L37.8315 30.7813L36.7579 27.5947L35.5129 27.4348L33.7883 27.9716L32.1436 28.7826L31.2641 28.6227L30.5788 28.8968" fill="white"/>
<path d="M31.1156 32.3459C31.1156 32.3459 32.5205 31.6949 32.7375 31.752L32.1436 28.7824L32.8403 28.5083C32.8403 28.5083 33.3314 31.318 33.3314 31.6378C33.3314 31.6378 36.3467 31.7977 36.6208 31.7977C36.6208 31.7977 37.2719 30.5528 37.112 29.2621L37.7059 30.9868L37.763 31.9576L36.8949 33.2482L35.9241 33.4653L34.3022 33.4081L33.7654 32.7114L31.8809 32.9856L31.287 33.2026" fill="#DCD9D8"/>
<path d="M28.9912 28.5196L27.8034 25.5043L26.5584 23.7226C26.5584 23.7226 26.8326 22.9688 27.2095 22.9688H28.4544L29.6423 23.4028L29.5395 25.4015L28.9912 28.5196Z" fill="white"/>
<path d="M29.2311 27.4918C29.2311 27.4918 27.7234 24.5793 27.7234 24.1453C27.7234 24.1453 27.9976 23.4943 28.3745 23.6542C28.7514 23.8141 29.5623 24.2481 29.5623 24.2481V23.2202L27.7234 22.8433L26.4785 23.0032L28.5801 27.983L29.0141 28.0401" fill="#DCD9D8"/>
<path d="M22.6294 20.3761L21.1332 20.2162L19.7283 19.7822V20.2734L20.4136 21.0272L22.5723 21.998" fill="white"/>
<path d="M20.2195 20.5361C20.2195 20.5361 21.887 21.2328 22.4352 21.0729L22.4924 21.724L20.9847 21.4042L20.071 20.7531L20.2195 20.5361Z" fill="#DCD9D8"/>
<path d="M31.1499 23.1515C30.2362 23.1287 29.4024 23.0145 28.6828 22.8089C28.7285 22.5119 28.6372 22.2264 28.7171 22.0094C28.9227 21.8609 29.2539 21.8609 29.5623 21.8266C29.2996 21.701 28.9227 21.6439 28.6257 21.7238C28.6143 21.5182 28.5229 21.3926 28.4658 21.2327C28.9798 21.05 30.1905 19.8507 30.8758 20.239C31.207 20.4332 31.3441 21.5068 31.3669 22.0436C31.3898 22.4776 31.3212 22.9117 31.1499 23.1515Z" fill="#D33833"/>
<path d="M31.1499 23.1515C30.2362 23.1287 29.4024 23.0145 28.6828 22.8089C28.7285 22.5119 28.6372 22.2264 28.7171 22.0094C28.9227 21.8609 29.2539 21.8609 29.5623 21.8266C29.2996 21.701 28.9227 21.6439 28.6257 21.7238C28.6143 21.5182 28.5229 21.3926 28.4658 21.2327C28.9798 21.05 30.1905 19.8507 30.8758 20.239C31.207 20.4332 31.3441 21.5068 31.3669 22.0436C31.3898 22.4776 31.3212 22.9117 31.1499 23.1515Z" fill="black" stroke="#D33833" stroke-width="3.83693"/>
<path d="M26.7754 21.6555C26.7754 21.724 26.7754 21.7925 26.764 21.8611C26.4785 22.0438 26.0216 22.0438 25.7018 22.2037C26.1587 22.2265 26.5242 22.3408 26.844 22.4892C26.8326 22.6606 26.8326 22.8433 26.8211 23.0146C26.2957 23.3687 25.816 23.9055 25.1993 24.2482C24.9023 24.4081 23.8858 24.8192 23.5774 24.7393C23.4061 24.6936 23.3832 24.4766 23.3147 24.271C23.1662 23.837 22.8236 23.1289 22.7893 22.4664C22.7551 21.6326 22.6637 20.2278 23.566 20.3991C24.297 20.5362 25.1422 20.8674 25.7018 21.1758C26.0559 21.3814 26.2501 21.6098 26.7754 21.6555Z" fill="#D33833"/>
<path d="M26.7754 21.6555C26.7754 21.724 26.7754 21.7925 26.764 21.8611C26.4785 22.0438 26.0216 22.0438 25.7018 22.2037C26.1587 22.2265 26.5242 22.3408 26.844 22.4892C26.8326 22.6606 26.8326 22.8433 26.8211 23.0146C26.2957 23.3687 25.816 23.9055 25.1993 24.2482C24.9023 24.4081 23.8858 24.8192 23.5774 24.7393C23.4061 24.6936 23.3832 24.4766 23.3147 24.271C23.1662 23.837 22.8236 23.1289 22.7893 22.4664C22.7551 21.6326 22.6637 20.2278 23.566 20.3991C24.297 20.5362 25.1422 20.8674 25.7018 21.1758C26.0559 21.3814 26.2501 21.6098 26.7754 21.6555Z" fill="black" stroke="#D33833" stroke-width="3.83693"/>
<path d="M27.2894 22.6491C27.2095 22.1922 27.1181 22.0666 27.1524 21.6669C28.3745 20.8559 28.5915 23.0603 27.2894 22.6491Z" fill="#D33833"/>
<path d="M27.2894 22.6491C27.2095 22.1922 27.1181 22.0666 27.1524 21.6669C28.3745 20.8559 28.5915 23.0603 27.2894 22.6491Z" fill="black" stroke="#D33833" stroke-width="3.83693"/>
<path d="M29.0483 23.0145C29.0483 23.0145 28.6714 22.4777 28.9455 22.3178C29.2197 22.1579 29.4824 22.3178 29.6423 22.0436C29.8022 21.7695 29.6423 21.6096 29.6994 21.2898C29.7565 20.97 30.0192 20.9129 30.2933 20.8558C30.5674 20.7987 31.3212 20.6959 31.424 20.9586L31.1042 19.9878L30.4532 19.7708L28.4087 20.9586L28.3059 21.5525V22.7404" fill="#EF3D3A"/>
<path d="M23.3832 24.7964C23.3147 23.9512 23.2462 23.1174 23.1776 22.2722C23.0634 21.0158 23.4746 21.2329 24.5711 21.2329C24.7424 21.2329 25.599 21.427 25.6561 21.5527C25.9531 22.158 25.165 22.0209 25.9988 22.4778C26.6955 22.8547 27.9404 22.2494 27.6549 21.3928C27.495 21.1986 26.8325 21.3356 26.5927 21.21C26.1701 20.993 25.7475 20.776 25.3249 20.559C24.7881 20.2849 23.5546 19.8737 22.9835 20.262C21.5329 21.2443 23.0749 23.7113 23.5888 24.7393" fill="#EF3D3A"/>
<path d="M24.8109 5.68803C23.3376 5.34539 22.6066 6.3048 22.1611 7.29847C21.7614 7.2071 21.9213 6.65887 22.0241 6.38475C22.2868 5.66519 23.349 4.69436 24.217 4.83142C24.5825 4.8771 25.0851 5.21975 24.8109 5.68803Z" fill="#231F20"/>
<path d="M31.9722 7.35571H32.0408C32.372 8.04101 32.6575 8.77199 33.0801 9.38875C32.7946 10.0512 30.9557 10.6223 30.9786 9.45728C31.3783 9.28596 32.0636 9.42302 32.4177 9.19458C32.2121 8.63493 31.9266 8.15522 31.9722 7.35571Z" fill="#231F20"/>
<path d="M25.5533 7.37842C25.8731 7.96092 25.9759 8.56626 26.4214 9.00028C26.627 9.19445 27.0153 9.4343 26.8211 9.98253C26.7754 10.1082 26.4442 10.3937 26.25 10.4508C25.5533 10.6564 23.92 10.4965 24.4683 9.61704C25.0508 9.63989 25.8275 9.99396 26.2615 9.57136C25.9302 9.04597 25.3363 7.99518 25.5533 7.37842Z" fill="#231F20"/>
<path d="M31.7096 13.2492C30.6588 13.9231 29.4824 14.6655 27.7463 14.4941C27.3808 14.1743 27.2323 13.4548 27.5978 12.9865C27.7805 13.3063 27.6663 13.9002 28.1917 13.9916C29.174 14.1629 30.3161 13.3862 31.0243 13.1235C31.4583 12.3811 30.99 12.1184 30.5902 11.6387C29.7793 10.6679 28.7057 9.45722 28.74 8.00668C29.0712 7.76683 29.094 8.37217 29.1397 8.47497C29.5623 9.45722 30.6245 10.725 31.3898 11.5702C31.5839 11.7758 31.8923 11.9814 31.9266 12.1184C32.0294 12.5068 31.6639 12.9865 31.7096 13.2492Z" fill="#231F20"/>
<path d="M17.7981 12.5409C17.4669 12.3467 17.3869 11.5244 16.9986 11.5015C16.4389 11.4673 16.5417 12.5752 16.5417 13.2262C16.1648 12.8835 16.0963 11.8099 16.3704 11.2617C16.0506 11.1018 15.9135 11.433 15.7308 11.5472C15.9707 9.89108 18.1636 10.782 17.7981 12.5409Z" fill="#231F20"/>
<path d="M32.372 13.9458C31.8809 14.8824 31.1842 15.9103 29.7451 15.9446C29.7108 15.6476 29.6879 15.1793 29.7451 14.9966C30.8529 14.8824 31.5382 14.3227 32.372 13.9458Z" fill="#231F20"/>
<path d="M25.4734 14.5513C26.3871 15.031 28.0775 15.0881 29.3339 15.0538C29.4024 15.3279 29.4024 15.6706 29.4024 16.0018C27.792 16.0703 25.896 15.6706 25.4734 14.5513Z" fill="#231F20"/>
<path d="M25.3021 15.4421C25.9417 17.0412 28.1232 16.8584 29.9621 16.8127C29.8821 17.0183 29.7108 17.2696 29.4824 17.3495C28.8884 17.5894 27.2666 17.7721 26.4442 17.3381C25.9303 17.064 25.5876 16.4358 25.3021 16.0703C25.1764 15.899 24.4911 15.4536 25.3021 15.4421Z" fill="#231F20"/>
<path d="M31.6296 24.2481C30.8872 25.5274 30.1677 26.8408 29.2882 27.9602C29.6537 26.8751 29.8136 25.0477 29.8707 23.6542C30.6474 23.2887 31.3098 23.7342 31.6296 24.2481Z" fill="#81B0C4"/>
<path d="M35.6386 28.8396C34.8048 29.0109 34.2223 29.8219 33.3999 29.7647C33.8568 29.1366 34.6335 28.8624 35.6386 28.8396Z" fill="#231F20"/>
<path d="M36.0041 30.1415C35.3188 30.21 34.5193 30.3243 33.834 30.2671C34.1652 29.7646 35.4216 29.9473 36.0041 30.1415Z" fill="#231F20"/>
<path d="M36.2439 31.2723C35.4787 31.2837 34.5307 31.2723 33.7997 31.2152C34.2337 30.7469 35.7528 31.0439 36.2439 31.2723Z" fill="#231F20"/>
<path d="M30.1905 34.3562C30.3047 35.3156 30.6816 36.2865 30.6359 37.3372C30.2133 37.4743 29.9735 37.5999 29.4024 37.5999C29.3681 36.7091 29.2425 35.3385 29.2768 34.4818C29.5509 34.5047 29.9621 34.2877 30.1905 34.3562Z" fill="#DCD9D8"/>
<path d="M28.957 20.1934C28.5686 20.4446 28.2488 20.753 27.8719 21.0271C27.0496 21.0728 26.6041 20.97 26.0102 20.5017C26.0216 20.4675 26.0787 20.4789 26.0787 20.4332C26.9582 20.8215 28.0775 20.2733 28.957 20.1934Z" fill="#F0D6B7"/>
<path d="M24.3655 26.167C24.6053 25.1276 25.5533 24.5794 26.41 24.0083C27.2894 25.1276 27.8262 26.5667 28.4201 27.9602C27.0153 27.5376 25.5876 26.8637 24.3655 26.167Z" fill="#81B0C4"/>
<path d="M29.2768 34.4932C29.2425 35.3498 29.3567 36.709 29.4024 37.6113C29.9735 37.6113 30.2133 37.4857 30.6359 37.3486C30.6816 36.2978 30.3047 35.327 30.1905 34.3676C29.9621 34.2876 29.5509 34.5046 29.2768 34.4932ZM20.4593 29.6505C20.8362 33.0884 21.3731 35.9666 22.3667 39.0162C24.5711 39.69 27.2209 39.7471 29.174 39.1418C28.8199 37.4286 28.9684 35.3384 28.7628 33.4995C28.6029 32.1175 28.6829 30.7355 28.4658 29.3307C26.1016 28.8395 22.7665 29.2165 20.4593 29.6505ZM29.0255 29.3535C29.0027 30.8269 29.094 32.2889 29.2082 33.7622C29.7793 33.6823 30.1562 33.6252 30.6816 33.4995C30.5103 32.0833 30.5331 30.4728 30.1791 29.2165C29.7793 29.2279 29.4253 29.2165 29.0255 29.3535ZM31.8923 29.1137C31.6182 29.0566 31.3098 29.1137 31.0585 29.1137C31.1842 30.3129 31.4697 31.6378 31.5725 32.9056C31.9723 32.917 32.1893 32.7229 32.5205 32.6658C32.5433 31.5579 32.4291 30.0274 31.8923 29.1137ZM36.2439 33.0884C37.0891 32.8828 37.6145 31.8548 37.3747 30.7926C37.2148 30.0845 36.9406 28.7368 36.6323 28.2799C36.4152 27.9487 35.8099 27.5032 35.3188 27.8116C34.5307 28.3142 33.1487 28.4626 32.5776 29.068C32.8631 30.0274 32.9545 31.3294 33.0687 32.5401C34.051 32.5972 35.2502 32.266 36.0726 32.6201C35.5015 32.8028 34.7705 32.8028 34.2794 33.0769C34.6906 33.2711 35.6272 33.2368 36.2439 33.0884ZM28.4087 27.9601C27.8148 26.5667 27.278 25.1275 26.3985 24.0082C25.5419 24.5793 24.6054 25.1275 24.3541 26.1669C25.5876 26.8636 27.0153 27.5375 28.4087 27.9601ZM29.8707 23.6542C29.8136 25.0476 29.6537 26.875 29.2882 27.9601C30.1677 26.8294 30.8872 25.5273 31.6296 24.2481C31.3098 23.7341 30.6474 23.2887 29.8707 23.6542ZM28.2146 23.0717C27.8833 23.0374 27.5978 23.46 27.1638 23.2772C27.061 23.3915 26.9696 23.5057 26.8668 23.6199C27.8262 24.7849 28.2717 26.4296 29.0141 27.7888C29.4138 26.4753 29.3681 25.0476 29.4595 23.6199C28.9113 23.6427 28.6029 23.1059 28.2146 23.0717ZM27.1524 21.6668C27.1181 22.0666 27.2095 22.1922 27.2894 22.6491C28.5915 23.0602 28.3745 20.8559 27.1524 21.6668ZM25.7018 21.1871C25.1422 20.8787 24.297 20.5475 23.566 20.4104C22.6637 20.2391 22.7551 21.644 22.7893 22.4777C22.8236 23.1402 23.1662 23.8369 23.3147 24.2823C23.3832 24.4879 23.4061 24.7049 23.5774 24.7506C23.8858 24.8192 24.9137 24.4194 25.1993 24.2595C25.816 23.9283 26.2957 23.3915 26.8211 23.026C26.8326 22.8547 26.8326 22.6719 26.844 22.5006C26.5242 22.3407 26.1701 22.2379 25.7018 22.215C26.0102 22.0551 26.4785 22.0551 26.764 21.8724C26.764 21.8039 26.764 21.7353 26.7755 21.6668C26.2501 21.6097 26.0559 21.3813 25.7018 21.1871ZM20.3337 20.2163C19.8654 20.696 21.6472 21.3356 22.2068 21.3698C22.2068 21.0729 22.3782 20.7873 22.3439 20.5703C21.67 20.4561 20.7906 20.5361 20.3337 20.2163ZM26.0902 20.4333C26.0902 20.479 26.033 20.4675 26.0216 20.5018C26.627 20.9701 27.0724 21.0729 27.8833 21.0272C28.2488 20.7645 28.5801 20.4447 28.9684 20.1934C28.0775 20.2734 26.9582 20.8216 26.0902 20.4333ZM31.3669 22.0323C31.3441 21.5069 31.207 20.4219 30.8758 20.2277C30.1905 19.8279 28.9798 21.0386 28.4658 21.2214C28.523 21.3813 28.6143 21.5069 28.6257 21.7125C28.9341 21.6325 29.2996 21.6897 29.5623 21.8153C29.2539 21.8496 28.9227 21.8496 28.7171 21.998C28.6486 22.215 28.74 22.5006 28.6829 22.7975C29.4024 23.0031 30.2362 23.1059 31.1499 23.1402C31.3212 22.9118 31.3898 22.4777 31.3669 22.0323ZM19.5456 20.6731C19.3971 20.5703 18.4034 19.2797 18.2664 19.3368C16.4732 20.0449 14.7942 21.2671 13.298 22.4321C14.7257 25.5045 15.3082 29.2621 15.411 32.8828C17.0443 33.648 18.4834 34.7559 20.7106 34.8701C20.4479 33.0541 20.2195 31.4208 20.071 29.7076C19.5113 29.4677 18.7118 29.719 18.1864 29.6391C18.1864 29.0109 18.9859 29.3649 19.0545 28.9423C19.1002 28.6225 18.609 28.5997 18.7689 28.0971C19.1801 28.2456 19.3971 28.5769 19.8311 28.7025C20.2309 27.8345 19.8311 26.2925 19.8882 25.5616C19.8997 25.4245 19.9568 24.8077 20.2652 24.9105C20.5393 25.0019 20.2537 26.5667 20.2766 27.252C20.2994 27.8916 20.1966 28.4969 20.4593 28.8967C22.6066 28.5997 24.7881 28.417 27.1181 28.3484C26.6041 28.1314 25.9988 27.9258 25.3363 27.5489C24.9708 27.3433 23.8401 26.9207 23.7373 26.5781C23.566 26.0298 24.1713 25.7443 24.2741 25.276C23.1891 25.8699 22.9835 24.7049 22.7208 23.894C22.4924 23.1516 22.3553 22.592 22.2982 22.1694C21.3502 21.6897 20.3451 21.2442 19.5456 20.6731ZM30.4189 19.4853C31.9152 18.7657 32.1893 22.1922 31.5953 23.3001C31.6867 23.6313 31.9951 23.757 32.1207 24.0539C31.287 25.5501 30.3618 26.9436 29.5052 28.417C30.1334 28.0172 31.0471 28.3484 31.7895 28.0515C32.0636 27.9487 32.2578 27.3205 32.4634 26.8179C33.0345 25.4473 33.6284 23.7113 33.8911 22.4092C33.9482 22.1123 34.1195 21.4612 34.0738 21.1985C34.0053 20.7188 33.3657 20.3648 33.0345 20.0792C32.4291 19.531 32.0522 19.0627 31.4126 18.5487C31.1728 18.9256 30.6245 19.1769 30.4189 19.4853ZM16.1306 6.22486C15.4224 7.01295 15.5709 8.47491 15.6509 9.52569C16.9415 8.71476 18.6433 9.59422 18.6319 10.9648C19.2486 10.9534 18.8603 10.1996 18.7461 9.70843C18.3806 8.12084 19.3629 6.4076 18.7918 4.95707C17.6839 5.04844 16.7816 5.49388 16.1306 6.22486ZM21.2246 1.66766C19.6141 2.12452 17.5468 3.30094 16.8844 4.75148C17.3983 4.67153 17.7524 4.42025 18.255 4.38599C18.4491 4.37457 18.7004 4.46594 18.9174 4.40883C19.3514 4.29462 19.7283 3.31236 20.0596 2.94687C20.3794 2.5928 20.7677 2.4329 21.0304 2.1131C21.2017 2.03315 21.453 2.03315 21.4644 1.78187C21.3959 1.70192 21.3159 1.64481 21.2246 1.66766ZM29.6194 2.10168C27.9404 1.15369 25.1079 0.445549 23.3261 1.33643C21.887 2.05599 19.9454 3.24383 19.2829 4.74006C19.8997 6.19059 19.1002 7.51549 19.0431 8.98888C19.0202 9.77696 19.4085 10.4508 19.4428 11.3075C19.2258 11.6615 18.5862 11.6958 18.1408 11.6729C17.9923 10.9191 17.7296 10.0739 16.9529 9.98255C15.8564 9.85691 15.0455 10.7706 14.9998 11.7186C14.9427 12.8379 15.8564 14.6882 17.1585 14.5626C17.661 14.5169 17.7867 14.0144 18.3349 14.0144C18.6319 14.6083 17.8781 14.791 17.7981 15.2136C17.7753 15.3278 17.8552 15.7504 17.9123 15.956C18.1522 16.9269 18.6776 18.1947 19.1915 18.9371C19.854 19.885 21.1446 20.0221 22.5381 20.1135C22.7893 19.5767 23.7031 19.6224 24.297 19.7594C23.5774 19.4739 22.915 18.7886 22.3667 18.1832C21.7385 17.4865 21.0989 16.7441 21.0647 15.8304C22.2639 17.4865 23.2462 18.9371 25.4163 19.668C27.061 20.2163 28.9798 19.4168 30.2476 18.5259C30.773 18.1604 31.0814 17.5665 31.4583 17.0411C32.8517 15.0309 33.5027 12.1755 33.3657 9.40005C33.3086 8.2579 33.3086 7.11574 32.9202 6.3505C32.5205 5.55099 31.1613 4.82001 30.3618 5.55099C30.2133 4.7629 31.0243 4.28319 31.9723 4.56873C31.2984 3.68927 30.5903 2.64991 29.6194 2.10168ZM32.7489 27.9258C34.0624 27.2748 36.5066 26.1783 37.3176 27.9258C37.6259 28.5769 37.98 29.6619 38.1285 30.3358C38.3455 31.2723 37.8886 33.2597 36.9178 33.5681C36.0612 33.8422 35.0675 33.8308 34.0396 33.6252C33.9139 33.5224 33.7883 33.3511 33.6855 33.1683C32.9545 33.1455 32.2578 33.2026 31.6867 33.511C31.7438 34.0592 31.3783 34.1392 31.0243 34.2534C30.773 35.2699 31.5382 36.5948 31.3555 37.5085C31.2299 38.171 30.4189 38.2738 29.825 38.388C29.8022 38.7535 29.8479 39.0618 29.8935 39.3702C29.7565 39.8728 29.1511 40.1583 28.5686 40.2268C26.6612 40.4553 23.7716 40.5581 21.9441 39.8956C21.4302 38.6392 21.0304 37.1202 20.6078 35.6925C18.826 35.8867 17.3755 34.9272 16.0163 34.2876C15.5481 34.0706 14.897 33.945 14.7143 33.5681C14.543 33.2026 14.6115 32.5059 14.5658 31.8548C14.463 30.1759 14.3602 28.554 13.9262 26.8408C13.732 26.0641 13.378 25.3902 13.1381 24.6478C12.9097 23.9625 12.5213 23.1059 12.4185 22.4206C12.2701 21.4041 13.2295 21.347 13.8348 20.9016C14.7828 20.2163 15.5252 19.8394 16.5532 19.2226C16.8615 19.0399 17.7753 18.583 17.8781 18.366C18.0836 17.9434 17.524 17.3495 17.3755 17.0182C17.1357 16.4928 17.01 16.0474 16.9758 15.5334C16.1191 15.3964 15.4567 14.8824 15.0684 14.3113C14.4173 13.3519 13.9605 11.5816 14.5315 10.2452C14.5772 10.1425 14.7942 9.92544 14.8285 9.76554C14.897 9.44574 14.7029 9.02314 14.6914 8.68049C14.6343 6.933 14.9884 5.42535 16.1648 4.89996C16.6445 2.99256 18.3578 2.36437 19.9682 1.41638C20.5735 1.06231 21.236 0.833882 21.9213 0.582608C24.3769 -0.319695 28.1575 -0.148372 30.2019 1.39354C31.07 2.04457 32.452 3.42658 32.9431 4.43167C34.2566 7.07005 34.1538 11.4902 33.2401 14.7111C33.1144 15.1451 32.9431 15.7733 32.6918 16.2987C32.5205 16.6642 31.9837 17.3837 32.0408 17.7035C32.1093 18.0348 33.2743 18.9142 33.5256 19.1541C33.971 19.5881 34.8277 20.1592 34.8962 20.7074C34.9761 21.2899 34.6449 22.0894 34.4736 22.6491C33.9253 24.5222 33.3771 26.2469 32.7489 27.9258Z" fill="#231F20"/>
<path d="M24.0114 14.9509C24.08 14.8596 24.4683 14.7111 25.0165 14.9738C25.0165 14.9738 24.3655 15.0766 24.4226 16.1616L24.1485 16.1045C24.1599 16.1159 23.8744 15.1337 24.0114 14.9509Z" fill="#F7E4CD"/>
<path d="M28.7399 24.2252C28.7399 24.3851 28.6029 24.5221 28.443 24.5221C28.2831 24.5221 28.146 24.3851 28.146 24.2252C28.146 24.0653 28.2831 23.9282 28.443 23.9282C28.6143 23.9282 28.7399 24.0653 28.7399 24.2252Z" fill="#1D1919"/>
<path d="M29.0369 25.6073C29.0369 25.7672 28.8999 25.9042 28.74 25.9042C28.5801 25.9042 28.443 25.7672 28.443 25.6073C28.443 25.4474 28.5801 25.3103 28.74 25.3103C28.9113 25.3103 29.0369 25.4359 29.0369 25.6073Z" fill="#1D1919"/>
<path d="M13.4808 43.0822C13.3894 43.0936 13.3094 43.105 13.2409 43.1164C13.1724 43.1279 13.1038 43.1393 13.0125 43.1621C12.9097 43.185 12.8526 43.2307 12.8297 43.2992C12.8069 43.3677 12.784 43.4362 12.784 43.5276V46.3145C12.784 46.5657 12.7269 46.8056 12.6241 47.0226C12.5213 47.2396 12.3843 47.4109 12.2015 47.5594C12.0188 47.6965 11.8132 47.8107 11.5848 47.8792C11.3563 47.9478 11.1165 47.9934 10.8652 47.9934C10.4198 47.9934 10.0657 47.8906 9.79159 47.6736C9.51748 47.4566 9.38042 47.1711 9.38042 46.7942C9.38042 46.5772 9.43752 46.3944 9.56316 46.2459C9.6888 46.0975 9.86012 46.0289 10.0771 46.0289C10.2827 46.0289 10.4426 46.086 10.5683 46.2117C10.6939 46.3373 10.751 46.4858 10.751 46.6571C10.751 46.8056 10.6939 46.9541 10.5911 47.0797C10.4883 47.2054 10.3627 47.331 10.2256 47.4338V47.4795C10.2485 47.5252 10.2941 47.5708 10.3627 47.6051C10.4312 47.6394 10.5112 47.6508 10.5797 47.6508C10.8652 47.6508 11.0937 47.548 11.2536 47.3424C11.4135 47.1368 11.4934 46.8284 11.4934 46.4173V43.5619C11.4934 43.4819 11.482 43.402 11.4591 43.3449C11.4363 43.2878 11.3678 43.2421 11.265 43.1964C11.1964 43.1621 11.1051 43.1393 11.0023 43.1164C10.8995 43.0936 10.8195 43.0822 10.751 43.0707V42.7966H13.4465V43.0822H13.4808Z" fill="#231F20"/>
<path d="M17.7067 47.0113C17.6268 47.1483 17.524 47.274 17.4098 47.3996C17.2956 47.5252 17.1585 47.6166 17.01 47.708C16.8501 47.7994 16.6902 47.8679 16.5303 47.9136C16.3704 47.9593 16.1762 47.9821 15.9707 47.9821C15.6166 47.9821 15.3196 47.9364 15.0569 47.8336C14.8057 47.7308 14.5886 47.6052 14.4287 47.4339C14.2574 47.2626 14.1432 47.0684 14.0518 46.84C13.9719 46.6115 13.9262 46.3603 13.9262 46.0976C13.9262 45.8577 13.9719 45.6178 14.0633 45.4008C14.1546 45.1838 14.2803 44.9782 14.4402 44.8069C14.6001 44.6356 14.8057 44.4985 15.0569 44.3957C15.3082 44.2929 15.5823 44.2358 15.8793 44.2358C16.2105 44.2358 16.4846 44.2815 16.7016 44.3615C16.9186 44.4414 17.09 44.5556 17.227 44.6927C17.3641 44.8298 17.4555 44.9897 17.524 45.1724C17.5811 45.3552 17.6154 45.5493 17.6154 45.7549V45.9833H15.2054C15.2054 46.4745 15.2968 46.84 15.4909 47.0912C15.6737 47.3425 15.9821 47.4681 16.3818 47.4681C16.6103 47.4681 16.8044 47.411 16.9872 47.2854C17.1699 47.1598 17.3184 47.0113 17.444 46.8171L17.7067 47.0113ZM16.3476 45.6521C16.3476 45.5151 16.3361 45.3666 16.3247 45.2181C16.3133 45.0696 16.2905 44.944 16.2448 44.8526C16.1991 44.7384 16.1534 44.6584 16.0734 44.6013C16.0049 44.5442 15.9135 44.5214 15.8108 44.5214C15.628 44.5214 15.4795 44.6128 15.3767 44.7955C15.2625 44.9782 15.2054 45.2752 15.194 45.675L16.3476 45.6521Z" fill="#231F20"/>
<path d="M22.7436 47.8564H20.5964V47.5937C20.6421 47.5937 20.6992 47.5823 20.7563 47.5708C20.8248 47.5594 20.8705 47.548 20.9048 47.5366C20.9505 47.5137 20.9847 47.468 21.0076 47.4223C21.0304 47.3767 21.0418 47.2967 21.0418 47.2053V45.5378C21.0418 45.2979 20.9961 45.1152 20.9048 44.9896C20.8134 44.8639 20.6878 44.8068 20.505 44.8068C20.4136 44.8068 20.3223 44.8182 20.2423 44.8525C20.1624 44.8753 20.0824 44.921 20.0025 44.9781C19.9339 45.0238 19.8768 45.0695 19.8311 45.1266C19.7855 45.1723 19.7512 45.218 19.7283 45.2637V47.1711C19.7283 47.251 19.7398 47.3196 19.7626 47.3767C19.7855 47.4338 19.8311 47.4795 19.8768 47.5023C19.9111 47.5251 19.9568 47.548 20.0139 47.5594C20.071 47.5708 20.1281 47.5823 20.1852 47.5937V47.8564H18.0151V47.5937C18.0722 47.5937 18.1293 47.5823 18.1979 47.5708C18.255 47.5594 18.3121 47.548 18.3578 47.5366C18.4377 47.5137 18.4834 47.468 18.5177 47.4109C18.5405 47.3538 18.5633 47.2853 18.5633 47.1939V45.1152C18.5633 45.0467 18.5405 44.9667 18.5062 44.8982C18.472 44.8297 18.4149 44.7725 18.3578 44.7269C18.3121 44.704 18.2664 44.6698 18.1979 44.6583C18.1293 44.6355 18.0608 44.6241 17.9809 44.6241V44.3614L19.6827 44.27L19.7398 44.3271V44.8411H19.7512C19.8197 44.784 19.8997 44.7154 19.991 44.6241C20.0824 44.5441 20.1738 44.4756 20.2537 44.4185C20.3451 44.3614 20.4593 44.3157 20.5964 44.27C20.7334 44.2243 20.8933 44.2129 21.0533 44.2129C21.4416 44.2129 21.7271 44.3271 21.9213 44.5441C22.1155 44.7611 22.2068 45.0581 22.2068 45.4236V47.1711C22.2068 47.2624 22.2182 47.331 22.2411 47.3767C22.2639 47.4338 22.321 47.468 22.3896 47.5023C22.4238 47.5137 22.4695 47.5366 22.5266 47.548C22.5837 47.5594 22.6408 47.5708 22.7208 47.5823V47.8564H22.7436Z" fill="#231F20"/>
<path d="M27.6549 47.8564H25.9759C25.7704 47.4909 25.5762 47.1825 25.4049 46.9313C25.2335 46.68 25.0736 46.4401 24.9252 46.2345L24.7196 46.4173V47.194C24.7196 47.2739 24.731 47.3539 24.7538 47.3995C24.7767 47.4567 24.8224 47.4909 24.9023 47.5252C24.948 47.548 24.9937 47.5594 25.0508 47.5709C25.1079 47.5823 25.165 47.5937 25.2221 47.5937V47.8564H23.0063V47.5937C23.0634 47.5937 23.1206 47.5823 23.1891 47.5709C23.2462 47.5594 23.3033 47.548 23.349 47.5366C23.4289 47.5138 23.4746 47.4681 23.5089 47.411C23.5317 47.3539 23.5546 47.2853 23.5546 47.194V43.2193C23.5546 43.1393 23.5317 43.0593 23.4975 42.9794C23.4632 42.8994 23.4175 42.8309 23.349 42.7852C23.3033 42.7624 23.2348 42.7281 23.1434 42.7167C23.052 42.6939 22.9721 42.6824 22.8921 42.6824V42.4197L24.6625 42.3284L24.7196 42.3855V46.0632C24.8909 45.9033 25.0965 45.7206 25.3135 45.515C25.5305 45.3094 25.7132 45.1381 25.8389 45.001C25.9188 44.9211 25.9645 44.864 25.9645 44.8183C25.9759 44.7726 25.9759 44.7497 25.9759 44.7383C25.9759 44.6926 25.9417 44.6584 25.8617 44.6355C25.7818 44.6127 25.679 44.5784 25.5191 44.5556V44.3043H27.3237V44.5556C27.0838 44.6241 26.9011 44.6812 26.7755 44.7383C26.6498 44.7954 26.5128 44.8754 26.3643 44.9667C26.2615 45.0353 26.1701 45.1038 26.0787 45.1723C25.9874 45.2409 25.8846 45.3322 25.7589 45.435C25.9874 45.7777 26.2044 46.0861 26.3985 46.3716C26.5927 46.6571 26.7983 46.9655 27.0153 47.2853C27.0838 47.3995 27.1752 47.4681 27.2894 47.5138C27.4036 47.548 27.5064 47.5709 27.6206 47.5823V47.8564H27.6549Z" fill="#231F20"/>
<path d="M29.9392 47.8565H27.6892V47.5938C27.7463 47.5938 27.8148 47.5823 27.8719 47.5709C27.929 47.5595 27.9861 47.5481 28.0204 47.5367C28.1004 47.5138 28.146 47.4681 28.1803 47.411C28.2146 47.3539 28.226 47.2854 28.226 47.194V45.1153C28.226 45.0353 28.2032 44.9554 28.1689 44.8983C28.1346 44.8297 28.0889 44.7841 28.0318 44.7498C27.9861 44.7269 27.929 44.6927 27.8377 44.6698C27.7463 44.647 27.6663 44.6242 27.5978 44.6242V44.3615L29.3453 44.2701L29.4024 44.3272V47.1597C29.4024 47.2397 29.4253 47.3082 29.4595 47.3768C29.4938 47.4339 29.5509 47.4795 29.608 47.5024C29.6537 47.5252 29.7108 47.5481 29.7679 47.5595C29.825 47.5709 29.8821 47.5823 29.9506 47.5938V47.8565H29.9392ZM29.4253 43.0023C29.4253 43.185 29.3567 43.3335 29.2197 43.4592C29.0826 43.5848 28.9113 43.6533 28.7285 43.6533C28.5344 43.6533 28.3745 43.5848 28.226 43.4592C28.0889 43.3335 28.0204 43.1736 28.0204 43.0023C28.0204 42.8195 28.0889 42.6711 28.226 42.534C28.3631 42.4084 28.5344 42.3398 28.7285 42.3398C28.9227 42.3398 29.0826 42.4084 29.2197 42.534C29.3567 42.6596 29.4253 42.8195 29.4253 43.0023Z" fill="#231F20"/>
<path d="M34.9761 47.8564H32.8289V47.5937C32.8746 47.5937 32.9317 47.5823 32.9888 47.5708C33.0573 47.5594 33.103 47.548 33.1373 47.5366C33.183 47.5137 33.2172 47.468 33.2401 47.4223C33.2629 47.3767 33.2743 47.2967 33.2743 47.2053V45.5378C33.2743 45.2979 33.2286 45.1152 33.1373 44.9896C33.0459 44.8639 32.9203 44.8068 32.7375 44.8068C32.6461 44.8068 32.5548 44.8182 32.4748 44.8525C32.3949 44.8868 32.3149 44.921 32.235 44.9781C32.1664 45.0238 32.1093 45.0695 32.0636 45.1266C32.018 45.1723 31.9837 45.218 31.9608 45.2637V47.1711C31.9608 47.251 31.9723 47.3196 31.9951 47.3767C32.018 47.4338 32.0636 47.4795 32.1093 47.5023C32.1436 47.5251 32.1893 47.548 32.2464 47.5594C32.3035 47.5708 32.3606 47.5823 32.4177 47.5937V47.8564H30.2476V47.5937C30.3047 47.5937 30.3618 47.5823 30.4304 47.5708C30.4875 47.5594 30.5446 47.548 30.5903 47.5366C30.6702 47.5137 30.7159 47.468 30.7502 47.4109C30.773 47.3538 30.7958 47.2853 30.7958 47.1939V45.1152C30.7958 45.0467 30.773 44.9667 30.7387 44.8982C30.7045 44.8297 30.6474 44.7725 30.5903 44.7269C30.5446 44.704 30.4989 44.6698 30.4304 44.6583C30.3618 44.6355 30.2933 44.6241 30.2133 44.6241V44.3614L31.9152 44.27L31.9723 44.3271V44.8411H31.9837C32.0522 44.784 32.1322 44.7154 32.2235 44.6241C32.3149 44.5441 32.4063 44.4756 32.4862 44.4185C32.5776 44.3614 32.6918 44.3157 32.8289 44.27C32.9659 44.2243 33.1258 44.2129 33.2857 44.2129C33.6741 44.2129 33.9596 44.3271 34.1538 44.5441C34.348 44.7611 34.4393 45.0581 34.4393 45.4236V47.1711C34.4393 47.2624 34.4507 47.331 34.4736 47.3767C34.4964 47.4338 34.5535 47.468 34.6221 47.5023C34.6563 47.5137 34.702 47.5366 34.7591 47.548C34.8162 47.5594 34.8733 47.5708 34.9533 47.5823V47.8564H34.9761Z" fill="#231F20"/>
<path d="M36.9521 47.9821C36.7236 47.9821 36.4952 47.9478 36.2782 47.8793C36.0612 47.8108 35.8899 47.7423 35.7642 47.6623L35.6614 47.9022H35.3873L35.3416 46.5773H35.6043C35.6386 46.6801 35.6957 46.8057 35.7871 46.9427C35.867 47.0798 35.9698 47.194 36.0726 47.3082C36.1868 47.411 36.3125 47.5024 36.4609 47.5824C36.6094 47.6509 36.7579 47.6966 36.9178 47.6966C37.1348 47.6966 37.2947 47.6509 37.3975 47.5709C37.5003 47.491 37.5574 47.3539 37.5574 47.1826C37.5574 47.0912 37.5346 47.0113 37.4889 46.9427C37.4432 46.8856 37.3747 46.8285 37.2947 46.7828C37.2033 46.7372 37.1005 46.6915 36.9863 46.6572C36.8721 46.6229 36.7351 46.5887 36.5752 46.5316C36.4153 46.4859 36.2782 46.4402 36.164 46.3831C36.0498 46.3374 35.9241 46.2575 35.8099 46.1547C35.7071 46.0633 35.6157 45.9491 35.5586 45.8234C35.4901 45.6978 35.4673 45.5379 35.4673 45.3552C35.4673 45.0239 35.6043 44.7498 35.8899 44.5442C36.1754 44.3386 36.5409 44.2358 36.9978 44.2358C37.2148 44.2358 37.4089 44.2587 37.5917 44.3044C37.7744 44.3501 37.9229 44.3957 38.0485 44.4528L38.1285 44.2473H38.4026L38.4597 45.4579H38.2084C38.1285 45.2067 37.98 45.0011 37.7858 44.8183C37.5803 44.6356 37.3632 44.5442 37.1348 44.5442C36.9521 44.5442 36.8036 44.5785 36.7008 44.6584C36.598 44.7384 36.5409 44.8412 36.5409 44.9782C36.5409 45.161 36.6208 45.2866 36.7693 45.3666C36.9178 45.4465 37.1348 45.5265 37.4089 45.595C37.8315 45.7092 38.1399 45.8577 38.3455 46.0404C38.5397 46.2346 38.6425 46.4745 38.6425 46.76C38.6425 47.1483 38.494 47.4567 38.1856 47.6623C37.843 47.8679 37.4432 47.9821 36.9521 47.9821Z" fill="#231F20"/>
</svg>
