<svg width="64" height="64" viewBox="0 0 64 64" fill="none" xmlns="http://www.w3.org/2000/svg">
<path d="M32 60C47.464 60 60 47.464 60 32C60 16.536 47.464 4 32 4C16.536 4 4 16.536 4 32C4 47.464 16.536 60 32 60Z" fill="#0769AD"/>
<path d="M45.3146 26.8422C47.8286 26.8422 50.1304 26.0038 51.91 24.6132C50.0624 27.0476 47.0014 28.6392 43.5378 28.6392C37.8954 28.6392 33.3214 24.4154 33.3214 19.2051C33.3214 16.3162 34.7276 13.7305 36.9424 12C35.7802 13.5314 35.0982 15.3962 35.0982 17.4081C35.0982 22.6184 39.6722 26.8422 45.3146 26.8422Z" fill="#78CFF5"/>
<path d="M51.8128 33.3172C49.1024 35.4432 45.5936 36.7256 41.761 36.7256C33.1748 36.7256 26.2142 30.2894 26.2142 22.3498C26.2142 19.2704 27.2614 16.4172 29.0442 14.0779C25.6826 16.7148 23.549 20.6496 23.549 25.0452C23.549 32.9848 30.5096 39.4212 39.0958 39.4212C44.352 39.4212 48.9988 37.0094 51.8128 33.3172Z" fill="#78CFF5"/>
<path d="M52 41.5403C48.1378 45.2259 42.7874 47.5077 36.875 47.5077C25.0994 47.5077 15.5536 38.4567 15.5536 27.2917C15.5536 23.7537 16.5121 20.4281 18.1963 17.5354C14.3664 21.1901 12 26.2251 12 31.7841C12 42.9491 21.5458 52.0001 33.3214 52.0001C41.3654 52.0001 48.3692 47.7763 52 41.5403Z" fill="#78CFF5"/>
</svg>
