<svg width="65" height="65" viewBox="0 0 65 65" fill="none" xmlns="http://www.w3.org/2000/svg">
<path d="M64.0014 32.0403C64.1314 48.8303 50.6115 64.0503 31.9615 64.0203C13.6315 63.9903 -0.158622 49.1603 0.00137812 31.7003C0.161378 14.5203 13.8714 -0.0796728 32.1214 0.000327221C51.0114 0.0903272 64.1714 15.5403 64.0014 32.0403ZM27.3914 40.1803C27.1714 38.7903 26.3314 37.6003 25.0514 37.0903C23.8714 36.6203 22.8214 36.8303 21.9214 37.7403C20.4414 39.2203 18.9513 40.7003 17.4713 42.1903C15.9713 43.7103 15.9214 45.2403 17.3114 46.8703C17.7114 47.3403 18.2114 47.7403 18.6614 48.1703C19.2114 48.7003 19.6914 48.7003 20.2514 48.1203C22.2014 46.1203 24.2214 44.1803 26.1514 42.1603C26.6814 41.6103 26.9814 40.8503 27.3914 40.1803ZM40.3814 27.1803C40.7814 26.9603 41.5814 26.6703 42.1614 26.1403C43.5714 24.8603 44.8814 23.4603 46.2314 22.1103C48.1614 20.1803 48.1814 18.7003 46.2914 16.7103C45.9614 16.3703 45.6313 15.9503 45.2213 15.7803C44.8313 15.6303 44.1514 15.5703 43.9114 15.8003C41.7814 17.8303 39.7114 19.9203 37.6614 22.0203C36.7914 22.9103 36.5414 23.9803 37.1014 25.1503C37.6814 26.3503 38.6214 27.0103 40.3814 27.1803ZM35.1114 47.5103C35.1014 47.5103 35.1014 47.5103 35.1114 47.5103C35.1014 46.0403 35.1613 44.5703 35.0913 43.1003C35.0013 41.3303 33.7113 40.1903 31.9713 40.2303C30.2013 40.2703 29.0314 41.4303 29.0014 43.2303C28.9714 45.4003 28.9714 47.5703 29.0014 49.7403C29.0214 51.6103 29.9815 52.6803 31.8315 52.9003C32.5515 52.9903 33.3014 52.9303 34.0314 52.9103C34.8014 52.8903 35.1314 52.4703 35.1114 51.7003C35.0914 50.3003 35.1114 48.9003 35.1114 47.5103ZM16.5815 35.0503C18.0115 35.0503 19.4514 35.0703 20.8814 35.0503C22.6014 35.0203 23.7714 33.8303 23.8014 32.1203C23.8214 30.3203 22.6815 29.0003 20.9615 28.9703C18.6515 28.9303 16.3314 28.9403 14.0214 28.9703C12.8614 28.9903 11.8414 29.5103 11.5614 30.6503C11.2614 31.8603 11.2413 33.1603 11.2213 34.4203C11.2213 34.6203 11.8314 35.0003 12.1714 35.0203C13.6414 35.0803 15.1115 35.0503 16.5815 35.0503ZM19.6114 16.1403C18.1714 16.3303 15.8214 17.9903 15.4914 19.2303C15.4314 19.4803 15.5814 19.8803 15.7714 20.0803C17.8914 22.2303 20.0014 24.3903 22.1814 26.4703C23.3514 27.5903 25.0015 27.3803 26.2115 26.1303C27.4115 24.8803 27.5214 23.2603 26.3814 22.0803C24.7714 20.4103 23.1415 18.7603 21.4515 17.1803C20.9615 16.7103 20.2314 16.4803 19.6114 16.1403ZM47.4615 28.9503C45.9915 28.9603 44.5114 28.9103 43.0414 28.9703C41.3614 29.0303 40.2614 30.3103 40.2914 32.0603C40.3214 33.8003 41.4714 35.0303 43.1514 35.0403C45.3914 35.0603 47.6414 35.0703 49.8814 35.0403C51.4114 35.0203 52.4314 34.2703 52.7314 32.7803C52.9214 31.8303 52.8513 30.8203 52.8413 29.8403C52.8413 29.1403 52.4214 28.9203 51.7514 28.9403C50.3314 28.9703 48.9015 28.9503 47.4615 28.9503ZM40.1814 36.6903C38.6614 36.9003 37.7414 37.6603 37.1414 38.8603C36.5614 40.0203 36.7814 41.0903 37.6614 41.9903C39.2514 43.6303 40.8414 45.2603 42.4914 46.8303C43.6414 47.9303 45.0314 48.0203 46.3114 47.0903C47.0214 46.5803 47.6013 45.9103 48.2213 45.2903C48.7413 44.7703 48.6414 44.3003 48.1214 43.7903C46.0714 41.7803 44.0814 39.7203 42.0114 37.7403C41.5214 37.2703 40.8014 37.0303 40.1814 36.6903ZM28.9914 16.5703C28.9914 17.9703 28.9714 19.3603 28.9914 20.7603C29.0214 22.5403 30.1415 23.6903 31.8315 23.7503C33.6015 23.8103 35.0214 22.6203 35.0714 20.8703C35.1414 18.6303 35.1314 16.3803 35.0714 14.1403C35.0314 12.7803 34.4014 11.6703 33.0114 11.3403C32.0314 11.1103 30.9815 11.1203 29.9615 11.1203C29.2815 11.1203 28.9415 11.5103 28.9615 12.2703C29.0215 13.7003 28.9914 15.1303 28.9914 16.5703ZM27.6714 32.0303C27.6614 34.4603 29.5514 36.4203 31.9314 36.4503C34.4414 36.4803 36.4615 34.5203 36.4515 32.0403C36.4415 29.5803 34.4914 27.6203 32.0514 27.6203C29.6114 27.6303 27.6814 29.5703 27.6714 32.0303Z" fill="#F05A22"/>
</svg>
