<svg width="48" height="48" viewBox="0 0 48 48" fill="none" xmlns="http://www.w3.org/2000/svg">
<path d="M13.5 43.707C14.142 44.541 15.117 45 16.122 45H31.875C32.88 45 33.855 44.505 34.5 43.698L44.274 31.164C44.916 30.33 45.138 29.265 44.916 28.23L41.421 12.609C41.3141 12.1082 41.0949 11.6383 40.78 11.2345C40.4651 10.8307 40.0626 10.5037 39.603 10.278L25.461 3.34801C25.0105 3.11817 24.5117 2.99888 24.006 3.00001C23.502 3.00001 23.001 3.11401 22.551 3.34501L8.406 10.305C7.94705 10.5312 7.54531 10.8585 7.23096 11.2622C6.91661 11.6659 6.69781 12.1356 6.591 12.636L3.096 28.26C2.844 29.295 3.096 30.36 3.738 31.194L13.5 43.704V43.707Z" fill="#326DE6"/>
<path fill-rule="evenodd" clip-rule="evenodd" d="M38.223 27.384C38.517 27.39 38.811 27.414 39.102 27.456L39.276 27.495L39.369 27.519C39.4956 27.5359 39.6173 27.5789 39.7264 27.6453C39.8355 27.7117 39.9297 27.7999 40.003 27.9045C40.0763 28.0091 40.1271 28.1277 40.1522 28.2529C40.1773 28.3781 40.1763 28.5072 40.149 28.632C40.1208 28.7574 40.0666 28.8755 39.9899 28.9786C39.9132 29.0817 39.8158 29.1676 39.7038 29.2306C39.5918 29.2937 39.4678 29.3326 39.3398 29.3447C39.2119 29.3568 39.0828 29.3419 38.961 29.301H38.949L38.94 29.298L38.931 29.292C38.9011 29.2857 38.8711 29.2797 38.841 29.274L38.691 29.244C38.4111 29.1539 38.1367 29.0477 37.869 28.926C37.3525 28.7176 36.817 28.5598 36.27 28.455C36.0805 28.4495 35.8964 28.5184 35.757 28.647C35.6263 28.6221 35.4953 28.5991 35.364 28.578C34.4745 31.3647 32.5909 33.7267 30.072 35.214C30.117 35.34 30.168 35.463 30.225 35.583C30.1319 35.7469 30.1071 35.9409 30.156 36.123C30.378 36.633 30.651 37.119 30.969 37.575C31.149 37.809 31.311 38.055 31.461 38.307L31.545 38.478L31.581 38.553C31.6811 38.7189 31.7262 38.9124 31.7097 39.1055C31.6931 39.2987 31.6159 39.4816 31.489 39.6282C31.3621 39.7747 31.1921 39.8773 31.0033 39.9213C30.8145 39.9653 30.6166 39.9484 30.438 39.873C30.3191 39.8238 30.2119 39.7504 30.123 39.6574C30.0342 39.5644 29.9657 39.4539 29.922 39.333L29.892 39.273C29.8628 39.2155 29.8348 39.1575 29.808 39.099C29.7029 38.8243 29.6138 38.5439 29.541 38.259C29.3816 37.7277 29.1706 37.2132 28.911 36.723C28.7982 36.5705 28.6302 36.4682 28.443 36.438L28.353 36.279L28.248 36.087C25.5178 37.1178 22.5041 37.1103 19.779 36.066L19.569 36.441C19.4208 36.4639 19.2828 36.5308 19.173 36.633C18.86 37.1449 18.6206 37.6983 18.462 38.277C18.3904 38.5619 18.3023 38.8423 18.198 39.117C18.1742 39.1675 18.1492 39.2176 18.123 39.267L18.084 39.348C18.0408 39.4693 17.9725 39.5831 17.8836 39.6763C17.7948 39.7695 17.6873 39.843 17.5682 39.892C17.4491 39.9409 17.321 39.9642 17.1922 39.9605C17.0635 39.9567 16.937 39.9258 16.821 39.87C16.647 39.7868 16.5034 39.6512 16.4103 39.4823C16.3172 39.3133 16.2794 39.1195 16.302 38.928C16.3174 38.8007 16.3593 38.6781 16.425 38.568L16.467 38.478L16.545 38.322C16.695 38.067 16.857 37.824 17.037 37.59C17.361 37.122 17.637 36.624 17.868 36.102C17.8919 35.9245 17.8627 35.7439 17.784 35.583L17.952 35.184C15.4424 33.7082 13.56 31.3647 12.66 28.596L12.258 28.665C12.1028 28.5549 11.9199 28.4905 11.73 28.479C11.1831 28.5829 10.6476 28.7397 10.131 28.947C9.861 29.067 9.588 29.172 9.309 29.262C9.25928 29.2742 9.20927 29.2852 9.159 29.295L9.069 29.316H9.06L9.054 29.322H9.039C8.88689 29.3708 8.72472 29.3793 8.56833 29.3467C8.41194 29.3141 8.26667 29.2416 8.14669 29.1361C8.02671 29.0306 7.93612 28.8959 7.88377 28.7449C7.83143 28.594 7.8191 28.4321 7.848 28.275C7.88482 28.0858 7.98027 27.9129 8.12081 27.781C8.26135 27.6491 8.43985 27.5648 8.631 27.54L8.646 27.537H8.652L8.67 27.531C8.742 27.513 8.832 27.489 8.898 27.477C9.189 27.438 9.483 27.414 9.777 27.408C10.335 27.369 10.887 27.279 11.424 27.138C11.5831 27.036 11.7174 26.8996 11.817 26.739L12.201 26.628C11.7846 23.7388 12.4525 20.7978 14.076 18.372L13.782 18.111C13.7708 17.921 13.7063 17.738 13.596 17.583C13.1732 17.2203 12.716 16.8998 12.231 16.626C11.9687 16.4927 11.7143 16.3445 11.469 16.182L11.325 16.068L11.28 16.029L11.268 16.02C11.0589 15.871 10.9175 15.6452 10.8748 15.3921C10.832 15.139 10.8914 14.8793 11.04 14.67C11.1283 14.5628 11.2405 14.4779 11.3677 14.4221C11.4949 14.3664 11.6334 14.3413 11.772 14.349C12.0051 14.3588 12.229 14.4429 12.411 14.589L12.477 14.64C12.525 14.679 12.579 14.718 12.615 14.751C12.831 14.952 13.032 15.168 13.221 15.39C13.596 15.801 14.01 16.176 14.457 16.506C14.625 16.596 14.82 16.614 15.003 16.56L15.333 16.794C17.3418 14.6635 20.0701 13.3549 22.989 13.122L23.013 12.735C23.1552 12.6086 23.2583 12.4441 23.31 12.261C23.3301 11.706 23.2959 11.1503 23.208 10.602C23.1494 10.3146 23.1074 10.0241 23.082 9.73197V9.48597V9.47097C23.0689 9.34284 23.083 9.21339 23.1233 9.09105C23.1635 8.96871 23.2291 8.8562 23.3156 8.76085C23.4022 8.6655 23.5079 8.58943 23.6258 8.53759C23.7437 8.48576 23.8712 8.45931 24 8.45997C24.1285 8.46024 24.2556 8.48731 24.373 8.53945C24.4905 8.5916 24.5958 8.66768 24.6822 8.76283C24.7686 8.85797 24.8342 8.97009 24.8748 9.09203C24.9154 9.21396 24.9301 9.34303 24.918 9.47097V9.73197C24.8938 10.0241 24.8528 10.3146 24.795 10.602C24.7062 11.1502 24.671 11.7059 24.69 12.261C24.7262 12.4473 24.8338 12.6121 24.99 12.72V12.741L25.011 13.128C27.912 13.392 30.621 14.694 32.631 16.797L32.979 16.551C33.1669 16.5835 33.3603 16.5628 33.537 16.491C33.984 16.161 34.398 15.783 34.773 15.372C34.962 15.147 35.163 14.934 35.379 14.733L35.532 14.613L35.583 14.571C35.6748 14.48 35.7847 14.4093 35.9056 14.3636C36.0265 14.3179 36.1557 14.2981 36.2847 14.3056C36.4137 14.3131 36.5397 14.3476 36.6545 14.407C36.7693 14.4664 36.8704 14.5493 36.951 14.6503C37.0317 14.7512 37.0902 14.8681 37.1227 14.9932C37.1553 15.1183 37.1611 15.2488 37.1399 15.3763C37.1187 15.5038 37.0709 15.6254 36.9995 15.7332C36.9282 15.841 36.835 15.9326 36.726 16.002L36.654 16.062C36.609 16.098 36.564 16.137 36.525 16.164C36.2798 16.3266 36.0254 16.4748 35.763 16.608C35.278 16.883 34.8208 17.2045 34.398 17.568C34.275 17.7107 34.2125 17.8959 34.224 18.084L34.074 18.216L33.9 18.375C35.526 20.793 36.21 23.724 35.811 26.61L36.18 26.718C36.273 26.883 36.411 27.021 36.579 27.114C37.116 27.258 37.668 27.348 38.223 27.384ZM21.873 15.72C22.194 15.648 22.521 15.591 22.851 15.552L22.581 20.352L22.557 20.364C22.5526 20.4731 22.526 20.5802 22.4788 20.6787C22.4317 20.7773 22.3649 20.8651 22.2827 20.937C22.2004 21.0089 22.1044 21.0632 22.0004 21.0967C21.8964 21.1303 21.7867 21.1422 21.678 21.132C21.5319 21.1195 21.3919 21.0677 21.273 20.982L21.267 20.985L17.319 18.195C18.576 16.965 20.154 16.107 21.873 15.72ZM26.727 20.97L30.651 18.198C29.1569 16.7381 27.2251 15.8085 25.152 15.552L25.422 20.346H25.428C25.4324 20.4554 25.4591 20.5628 25.5064 20.6615C25.5538 20.7602 25.6208 20.8483 25.7034 20.9202C25.786 20.9921 25.8824 21.0464 25.9867 21.0797C26.091 21.113 26.201 21.1247 26.31 21.114C26.4561 21.1015 26.5961 21.0497 26.715 20.964L26.727 20.97ZM33.471 25.938L28.827 24.6L28.821 24.582C28.7157 24.5528 28.6175 24.5027 28.5321 24.4347C28.4467 24.3666 28.3759 24.2819 28.3241 24.1858C28.2722 24.0897 28.2404 23.9841 28.2304 23.8753C28.2204 23.7666 28.2325 23.6569 28.266 23.553C28.3119 23.4134 28.3948 23.289 28.506 23.193L28.5 23.19L32.085 19.989C33.183 21.771 33.666 23.859 33.465 25.938H33.471ZM27.288 28.5L29.142 32.97C30.9148 31.842 32.2608 30.155 32.967 28.176L28.188 27.369L28.182 27.378C28.0129 27.3454 27.8378 27.3696 27.684 27.447C27.4977 27.538 27.3535 27.697 27.2809 27.8912C27.2084 28.0855 27.213 28.3001 27.294 28.491L27.288 28.5ZM26.133 34.215C24.414 34.605 22.623 34.515 20.952 33.951L23.283 29.751C23.3522 29.6224 23.4578 29.5149 23.5831 29.4399C23.7084 29.3648 23.8516 29.3251 23.9976 29.3248C24.1436 29.3244 24.287 29.3636 24.4126 29.4381C24.5382 29.5126 24.6413 29.6197 24.711 29.748H24.729L27.066 33.954C26.7595 34.0562 26.4481 34.1433 26.133 34.215ZM18.879 32.949L20.712 28.527L20.7 28.509C20.7585 28.3746 20.7791 28.2268 20.7597 28.0815C20.7403 27.9363 20.6815 27.7991 20.5898 27.6848C20.4981 27.5706 20.3768 27.4835 20.2392 27.4331C20.1016 27.3828 19.9528 27.3709 19.809 27.399L19.8 27.39L15.063 28.191C15.7761 30.154 17.1176 31.8266 18.879 32.949ZM15.888 19.989L19.491 23.202L19.488 23.223C19.5978 23.319 19.6796 23.443 19.7246 23.5817C19.7696 23.7205 19.7761 23.8689 19.7435 24.0111C19.7109 24.1533 19.6403 24.284 19.5393 24.3892C19.4383 24.4945 19.3107 24.5705 19.17 24.609L19.167 24.624L14.547 25.953C14.3172 23.8711 14.7892 21.7721 15.888 19.989ZM24.738 23.451H23.262L22.341 24.591L22.671 26.019L24 26.658L25.326 26.022L25.656 24.594L24.738 23.451Z" fill="white"/>
</svg>
