<svg width="47" height="48" viewBox="0 0 47 48" fill="none" xmlns="http://www.w3.org/2000/svg">
<path fill-rule="evenodd" clip-rule="evenodd" d="M45.8086 10.6743C45.8256 10.7372 45.8343 10.8021 45.8345 10.8673V20.9953C45.8345 21.1253 45.8002 21.2529 45.735 21.3654C45.6698 21.4779 45.5761 21.5712 45.4634 21.6359L36.9628 26.53V36.2306C36.9628 36.4946 36.8225 36.7383 36.5935 36.8713L18.8492 47.086C18.8086 47.1091 18.7643 47.1239 18.72 47.1396C18.7034 47.1451 18.6877 47.1553 18.6702 47.1599C18.5461 47.1925 18.4157 47.1925 18.2917 47.1599C18.2714 47.1543 18.2529 47.1433 18.2335 47.1359C18.1929 47.1211 18.1505 47.1082 18.1117 47.086L0.371077 36.8713C0.258376 36.8065 0.164733 36.7132 0.0995857 36.6007C0.0344385 36.4883 8.92979e-05 36.3606 0 36.2306L0 5.84665C0 5.78019 0.00923077 5.71557 0.0258462 5.6528C0.0313846 5.63157 0.0443077 5.61219 0.0516923 5.59096C0.0655385 5.55219 0.0784615 5.5125 0.0987692 5.4765C0.112615 5.4525 0.132923 5.43311 0.149538 5.41096C0.170769 5.38142 0.190154 5.35096 0.215077 5.32511C0.236308 5.30388 0.264 5.28819 0.288 5.26973C0.314769 5.24757 0.338769 5.22357 0.369231 5.20603L9.24092 0.0986504C9.35324 0.034017 9.48056 0 9.61015 0C9.73974 0 9.86706 0.034017 9.97938 0.0986504L18.8502 5.20603H18.852C18.8815 5.2245 18.9065 5.24757 18.9332 5.2688C18.9572 5.28727 18.984 5.30388 19.0052 5.32419C19.0311 5.35096 19.0495 5.38142 19.0717 5.41096C19.0874 5.43311 19.1086 5.4525 19.1215 5.4765C19.1428 5.51342 19.1548 5.55219 19.1695 5.59096C19.1769 5.61219 19.1898 5.63157 19.1954 5.65373C19.2124 5.71663 19.2211 5.78149 19.2212 5.84665V24.8242L26.6132 20.5679V10.8663C26.6132 10.8017 26.6225 10.7362 26.6391 10.6743C26.6455 10.6522 26.6575 10.6328 26.6649 10.6116C26.6797 10.5728 26.6926 10.5331 26.7129 10.4971C26.7268 10.4731 26.7471 10.4537 26.7628 10.4316C26.7849 10.402 26.8034 10.3716 26.8292 10.3457C26.8505 10.3245 26.8772 10.3088 26.9012 10.2903C26.9289 10.2682 26.9529 10.2442 26.9825 10.2267L35.8551 5.11927C35.9674 5.05454 36.0947 5.02047 36.2243 5.02047C36.3539 5.02047 36.4812 5.05454 36.5935 5.11927L45.4643 10.2267C45.4957 10.2451 45.5197 10.2682 45.5474 10.2894C45.5705 10.3079 45.5972 10.3245 45.6185 10.3448C45.6443 10.3716 45.6628 10.402 45.6849 10.4316C45.7015 10.4537 45.7218 10.4731 45.7348 10.4971C45.756 10.5331 45.768 10.5728 45.7828 10.6116C45.7911 10.6328 45.8031 10.6522 45.8086 10.6743ZM44.3557 20.5679V12.1457L41.2514 13.9328L36.9628 16.402V24.8242L44.3566 20.5679H44.3557ZM35.4849 35.8033V27.3756L31.2665 29.7848L19.2203 36.6599V45.167L35.4849 35.8033ZM1.47877 7.12511V35.8033L17.7415 45.166V36.6608L9.24554 31.8525L9.24277 31.8506L9.23908 31.8488C9.21046 31.8322 9.18646 31.8082 9.15969 31.7879C9.13662 31.7694 9.10985 31.7546 9.08954 31.7343L9.08769 31.7316C9.06369 31.7085 9.04708 31.6799 9.02677 31.654C9.00831 31.6291 8.98615 31.6079 8.97138 31.582L8.97046 31.5793C8.95385 31.5516 8.94369 31.5183 8.93169 31.487C8.91969 31.4593 8.904 31.4334 8.89661 31.4039C8.88738 31.3688 8.88554 31.331 8.88185 31.295C8.87815 31.2673 8.87077 31.2396 8.87077 31.2119V31.21V11.3814L4.58308 8.91127L1.47877 7.12511ZM9.61108 1.59219L2.22 5.84665L9.60923 10.1011L16.9994 5.84573L9.60923 1.59219H9.61108ZM13.4548 28.1436L17.7425 25.6753V7.12511L14.6382 8.91219L10.3495 11.3814V29.9316L13.4548 28.1436ZM36.2243 6.6128L28.8342 10.8673L36.2243 15.1217L43.6135 10.8663L36.2243 6.6128ZM35.4849 16.402L31.1963 13.9328L28.092 12.1457V20.5679L32.3797 23.0362L35.4849 24.8242V16.402ZM18.48 35.3814L29.3197 29.1931L34.7382 26.1008L27.3535 21.8491L18.8511 26.7442L11.1018 31.2054L18.48 35.3814Z" fill="#FF2D20"/>
</svg>
