<svg width="256" height="256" viewBox="0 0 256 256" fill="none" xmlns="http://www.w3.org/2000/svg">
<path d="M51.4455 23.3443C51.0862 24.1923 50.7461 25.2893 50.4298 26.6118L50.1972 27.6457C50.1212 28.0042 50.0468 28.3765 49.974 28.7621L49.7607 29.9587L49.5577 31.2334L49.3655 32.5839L49.1845 34.0082L49.0152 35.5041L48.8581 37.0692C48.833 37.3358 48.8083 37.6051 48.7842 37.8771L48.6462 39.5423L48.5214 41.2713L48.4103 43.062C48.393 43.3655 48.3763 43.6715 48.3601 43.9799L59.4523 49.3483C59.2844 42.8725 59.4929 36.7491 60.0763 31.1229L60.1906 30.1202L60.1116 31.0389L60.013 32.5578L59.9769 33.2825L59.9161 34.9358L59.8934 35.8656L59.8686 37.9345L59.872 39.6714L59.8981 41.5695L59.9299 42.9253L60.0016 45.0961L60.0669 46.6355L60.1474 48.2495C60.1621 48.5247 60.1776 48.8031 60.1937 49.0846C62.2598 47.3999 64.7343 45.1883 67.3075 42.7707L69.0342 41.132C69.3233 40.855 69.6128 40.5763 69.9022 40.2964L71.6346 38.6058L73.3453 36.907L75.0139 35.2211L76.6199 33.5694C74.8453 29.9436 72.9314 27.2796 71.1511 25.3338L70.563 24.7114C70.1748 24.3138 69.7946 23.9503 69.4255 23.6183L68.8806 23.1435L68.3546 22.7138C68.1826 22.5779 68.0142 22.4492 67.8496 22.3274L67.3681 21.9821L66.9122 21.6759L66.2812 21.2857L65.7206 20.9723L65.0954 20.6622L64.6266 20.4606L63.7711 20.1513L63.148 19.9515L62.5397 19.7796L62.0765 19.6631L61.5731 19.5504C61.4862 19.5322 61.3977 19.5143 61.308 19.4969L60.7539 19.3983L60.1724 19.3148C57.1059 18.9305 53.1443 19.3335 51.4455 23.3443Z" fill="url(#paint0_linear_818_1364)"/>
<path d="M62.3543 82.0908C61.8423 78.3997 61.3749 74.7694 60.952 71.1999C60.6089 68.2356 60.328 65.3154 60.0979 62.4238L59.9006 59.8315C59.8971 59.7631 59.8953 59.6969 59.896 59.6341C59.6535 56.1192 59.4779 52.6954 59.3996 49.3405L48.3297 44.0024L48.2995 44.6808L48.2252 46.0892C48.1148 48.7412 48.0329 51.5594 48.0097 54.5213C47.9827 57.8601 48.0145 61.3427 48.0747 64.9914C48.153 68.3463 48.2901 71.8451 48.4719 75.4046C48.6065 77.6898 48.7536 79.9922 48.9228 82.3244L49.126 85.0216L63.9346 92.5238L63.4125 89.0289L62.3543 82.0908Z" fill="url(#paint1_linear_818_1364)"/>
<path d="M83.7744 168.089L84.0037 168.879L85.4745 173.876C85.6857 174.586 85.8997 175.299 86.1175 176.016L86.8194 178.288L87.0594 179.106C87.1019 179.239 87.1474 179.372 87.1988 179.505L89.5843 187.15C91.6971 186.713 94.2725 187.502 96.9929 188.689L98.088 189.183C96.0854 186.773 93.3133 185.161 90.0007 184.788C99.0705 178.739 105.038 170.947 104.199 161.652C104.11 160.83 103.998 159.977 103.834 159.116C103.697 162.542 102.329 165.057 98.3652 167.745L97.877 168.069C101.977 160.853 103.105 155.958 102.621 149.629C102.5 148.127 102.313 146.535 102.037 144.821C100.726 154.245 95.6657 160.343 88.2643 163.952L83.7744 168.089Z" fill="url(#paint2_linear_818_1364)"/>
<path d="M78.462 157.028L77.5201 153.497L75.6255 146.348C74.7266 142.894 73.8581 139.418 72.9977 135.889C72.1373 132.361 71.3073 128.809 70.4772 125.258C69.633 121.624 68.8414 117.998 68.0803 114.349L67.3287 110.742L65.8859 103.526C65.6281 102.219 65.3926 100.943 65.1651 99.6138C64.7509 97.3935 64.3672 95.151 63.9834 92.9084L63.9042 92.5458L49.1786 85.0293L49.2269 85.496C49.2324 85.5767 49.235 85.658 49.2316 85.7384C49.5287 89.073 49.8178 92.4602 50.2121 95.8637C50.5985 99.3198 51.0374 102.784 51.5514 106.287C51.9882 109.238 52.4553 112.168 52.9447 115.127L53.2655 116.902C53.9437 120.565 54.6683 124.1 55.4557 127.402C56.3365 131.149 57.2799 134.664 58.2334 137.937C58.8745 140.085 59.5013 142.149 60.1443 144.108L60.7149 145.758L61.8947 149.04C63.3022 152.869 64.8617 156.586 66.5426 160.214L81.4262 167.754C80.633 165.018 79.9005 162.236 79.093 159.416L78.6806 157.835L78.462 157.028Z" fill="url(#paint3_linear_818_1364)"/>
<path d="M66.7636 160.706C68.5573 164.543 70.5139 168.261 72.674 171.829L73.8718 173.766C72.4615 173.199 70.6779 172.916 68.9449 172.79L68.0846 172.74C67.9425 172.733 67.8013 172.728 67.6612 172.723L66.8356 172.705L65.6719 172.709L64.6331 172.739L63.759 172.785L62.5353 172.885C62.5251 172.887 62.5218 172.888 62.5218 172.888C70.0475 175.498 76.6473 178.694 80.8105 183.539C79.156 185.361 76.0589 186.746 72.1655 187.874C75.0641 188.188 77.2724 188.06 78.8647 187.8L79.5096 187.682C79.6109 187.661 79.7091 187.64 79.8042 187.618L80.3385 187.486L80.8006 187.351L81.3612 187.155L81.6486 187.037C79.2575 189.031 77.7612 192.427 76.5175 196.235L76.088 197.594C76.0178 197.823 75.9482 198.053 75.8791 198.284C79.0457 193.108 82.1865 189.681 85.2452 188.371C88.6612 199.698 92.6117 211.753 96.9473 224.333L98.9752 230.175C99.6599 232.135 100.353 234.106 101.054 236.088C102.063 234.787 102.176 233.348 101.754 231.882L100.367 227.966L98.7878 223.389L96.3412 216.13L94.3364 210.043L92.121 203.175L90.0058 196.475L88.0641 190.196L86.6359 185.494L85.4735 181.612C85.3179 181.103 85.1759 180.584 85.0228 180.059L84.5849 178.618L83.3296 174.281L82.053 169.819L81.4789 167.763L81.4566 167.732L66.573 160.191C66.6068 160.322 66.6442 160.43 66.6894 160.539L66.7636 160.706Z" fill="url(#paint4_linear_818_1364)"/>
<path d="M65.6647 92.8421L65.9287 94.2845C66.1195 95.2663 66.2968 96.2581 66.4852 97.2555L68.0953 105.516L68.6868 108.393L69.5483 112.459C69.6952 113.146 69.8435 113.837 69.9927 114.534C70.4372 116.592 70.9058 118.683 71.3967 120.817L72.4078 125.149L73.4141 129.375C73.5862 130.089 73.7604 130.807 73.9367 131.529L75.0174 135.902L76.098 140.152C76.6465 142.3 77.2109 144.483 77.8074 146.709C78.2426 148.353 78.6946 150.02 79.1567 151.708L80.7047 157.344L81.8743 161.487L83.0821 165.718C83.2867 166.429 83.4931 167.143 83.7012 167.86C83.7154 167.943 83.7296 168.026 83.7742 168.087L88.2641 163.95L88.1553 163.995L87.9157 164.112C93.244 159.08 97.8105 148.997 98.8543 139.91C99.3348 135.724 99.2905 131.269 98.7152 126.409C98.3005 122.787 97.5635 118.98 96.5509 114.862C95.6682 111.303 94.5768 107.523 93.2461 103.544C92.4223 105.224 91.2519 106.878 89.8182 108.491L89.0406 109.342L88.7745 109.619L88.2103 110.185C92.1402 104.076 92.6076 97.5154 91.442 90.7046C90.7276 92.7248 89.3248 95.7176 86.9981 98.407C86.7004 98.7657 86.3501 99.1163 85.9997 99.467C85.939 99.5116 85.8881 99.5697 85.825 99.6299L85.7182 99.7203C87.0221 97.548 87.9856 95.4852 88.6027 93.3962C88.7012 93.1058 88.7762 92.8117 88.8435 92.5165L88.9405 92.0731C89.0982 91.3964 89.2033 90.7116 89.3084 90.0268L89.4578 88.7017C89.5167 87.9222 89.5335 87.1211 89.4953 86.3077L89.3928 84.8106C89.3828 84.7003 89.3697 84.5904 89.3508 84.4797L89.1943 83.5211C89.168 83.3673 89.1402 83.2162 89.1091 83.0677C88.8045 81.2879 88.4702 79.7016 88.1254 78.2947L87.8023 77.0318L87.5102 75.9651L87.1305 74.7033L86.637 73.2249C86.5848 73.0762 86.5326 72.9334 86.4794 72.7972L86.1814 72.0515C86.0858 71.8222 85.9942 71.6124 85.9074 71.4233L85.6622 70.9194C85.615 71.1099 85.5543 71.3103 85.4735 71.5115L85.3364 71.813C84.4093 73.9892 82.2529 76.9743 80.2865 79.072C80.2562 79.0943 80.2258 79.1166 80.2177 79.1693L79.8121 79.5743C79.7429 79.6476 79.6743 79.7239 79.6081 79.8036L79.6851 79.6537L65.539 92.6072C65.6586 92.7064 65.6728 92.7894 65.6647 92.8421Z" fill="url(#paint5_linear_818_1364)"/>
<path d="M60.1936 49.0846C60.2507 50.1178 60.3192 51.1947 60.398 52.3141L60.5694 54.6093C60.6002 55.0012 60.6321 55.3977 60.6651 55.7989L60.8755 58.2605C60.9127 58.6799 60.9508 59.1037 60.9899 59.5321L61.0231 59.9406C61.0311 60.0057 61.0421 60.0703 61.059 60.1358C61.1788 61.3977 61.312 62.6957 61.4593 64.0343L61.7731 66.7669C61.8841 67.6966 62.0017 68.6457 62.126 69.6154L62.7146 74.06C62.9898 76.0778 63.2878 78.1684 63.621 80.3486L63.8777 82.0008C64.1317 83.6842 64.4134 85.4057 64.7117 87.1735L65.6445 92.6242L79.7906 79.6707C82.7403 74.3271 83.3852 71.0022 83.3451 66.8713C83.3311 66.0402 83.292 65.1749 83.2372 64.2882L83.1776 63.3949C82.9513 59.7746 82.5162 55.9335 81.8988 52.2263C81.318 48.6325 80.6075 45.1806 79.7939 42.225C79.2786 40.3127 78.7309 38.6111 78.1732 37.1507C77.6662 35.8867 77.143 34.728 76.6118 33.6221L75.0079 35.2595C74.7348 35.5361 74.459 35.8143 74.1811 36.0935L72.4905 37.7783L70.7676 39.4679L69.0328 41.1408C68.7439 41.417 68.4553 41.6916 68.1674 41.9643L66.4533 43.5719C64.1894 45.6732 62.0301 47.5871 60.1936 49.0846Z" fill="url(#paint6_linear_818_1364)"/>
<path d="M196.385 26.1243C195.932 26.3112 195.439 26.5459 194.907 26.8267L194.081 27.2824C193.512 27.6091 192.906 27.9811 192.266 28.397L191.279 29.0536L190.243 29.7748L189.158 30.5594L188.026 31.4064C187.834 31.5527 187.639 31.7015 187.443 31.8528L186.245 32.791L185.005 33.7886L183.724 34.8444L182.404 35.9573L181.048 37.126L179.656 38.3495L178.231 39.6266C177.991 39.8438 177.749 40.0632 177.506 40.2848L182.17 53.4194C187.215 48.0356 192.284 43.2426 197.257 39.1584L199.006 37.739L199.133 37.6422L197.93 38.6212L196.75 39.6412L195.471 40.798L194.257 41.935L193.238 42.9162L192.506 43.6333L190.92 45.223L189.624 46.5552L187.755 48.524L186.762 49.5931L185.729 50.72L184.107 52.5207L182.977 53.7962C184.137 53.9065 185.408 54.0019 186.763 54.0831L188.852 54.1944L191.044 54.2849L193.316 54.3553L195.646 54.406L198.012 54.4375C198.408 54.4412 198.805 54.4442 199.202 54.4463L201.582 54.4502C201.978 54.4493 202.373 54.4478 202.767 54.4454L205.112 54.4228C205.499 54.4176 205.884 54.4117 206.267 54.4051L208.527 54.3573C210.383 48.826 210.807 44.3783 210.664 41.0572L210.614 40.2164L210.542 39.4268C210.528 39.2995 210.513 39.1744 210.498 39.0514L210.399 38.3391L210.286 37.6785C210.266 37.5727 210.245 37.4691 210.225 37.3677L210.097 36.785L209.964 36.2544L209.829 35.7761L209.695 35.3503L209.446 34.6567L209.243 34.1751L208.761 33.1814L208.48 32.6511L208.245 32.2344L207.973 31.7767L207.664 31.2862L207.318 30.7709L206.937 30.2391C204.809 27.3731 201.175 24.148 196.385 26.1243Z" fill="url(#paint7_linear_818_1364)"/>
<path d="M158.492 82.0829C161.012 78.7047 163.52 75.4109 166.016 72.2014C168.615 68.8778 171.237 65.6868 173.889 62.5864C174.046 62.3941 174.204 62.2018 174.355 62.0517C176.953 59.0295 179.532 56.1338 182.134 53.3708L177.464 40.2783L176.901 40.8004L175.722 41.8752C173.526 43.9224 171.221 46.1259 168.849 48.492C167.512 49.8251 166.158 51.1989 164.782 52.6125L161.999 55.4926C161.53 55.9814 161.058 56.4746 160.582 56.9721C157.98 59.7351 155.31 62.6607 152.629 65.6705C150.921 67.6171 149.211 69.5874 147.494 71.5993L145.514 73.932L151.475 91.7372L153.831 88.5089L158.492 82.0829Z" fill="url(#paint8_linear_818_1364)"/>
<path d="M107.409 168.329L106.523 169.965L104.18 174.339C103.786 175.078 103.391 175.823 102.997 176.573L101.757 178.959C101.52 179.398 101.29 179.795 101.095 180.241L99.7912 182.756L96.9413 188.29C99.2624 189.794 100.811 193.037 102.172 196.683C102.475 193.152 101.523 189.652 99.1535 186.719C111.261 189.056 122.256 187.524 128.966 179.376C129.547 178.643 130.135 177.867 130.686 177.044C127.846 179.701 124.737 180.636 119.382 179.637L118.778 179.518C127.811 176.966 132.609 173.922 137.247 168.442C138.343 167.138 139.458 165.708 140.597 164.109C132.055 170.653 123.136 171.542 114.31 168.566L107.409 168.329Z" fill="url(#paint9_linear_818_1364)"/>
<path d="M111.454 156.03L113.967 151.615L118.122 144.355C120.142 140.861 122.205 137.372 124.316 133.848C126.427 130.323 128.58 126.805 130.734 123.287C132.941 119.691 135.185 116.143 137.471 112.601C139.709 109.095 142.031 105.602 144.304 102.144C145.135 100.887 145.959 99.6729 146.832 98.4223C148.263 96.3059 149.736 94.1957 151.208 92.0854L151.433 91.7306L145.551 73.98L145.219 74.394C145.159 74.4634 145.096 74.5308 145.03 74.5929C142.62 77.5133 140.161 80.4698 137.774 83.523C135.339 86.6121 132.94 89.7496 130.571 92.9777C128.578 95.7008 126.626 98.4301 124.669 101.202L123.517 102.885C121.153 106.372 118.928 109.794 116.938 113.078C114.67 116.794 112.637 120.373 110.803 123.766C109.613 126.004 108.478 128.164 107.439 130.251C106.577 132.02 105.75 133.838 104.929 135.613C103.021 139.813 101.323 144.044 99.7936 148.3L105.784 166.196L106.95 164.072L109.334 159.799C109.733 159.08 110.133 158.358 110.53 157.63L111.454 156.03Z" fill="url(#paint10_linear_818_1364)"/>
<path d="M99.5804 148.872C97.9756 153.386 96.5969 157.933 95.5007 162.522L94.9258 165.033C94.3863 163.79 93.5195 162.505 92.5423 161.292L91.9444 160.574C91.8432 160.456 91.7412 160.339 91.6389 160.223L91.0209 159.542L90.4024 158.891L89.794 158.278L88.9229 157.438L88.1329 156.711L87.2665 155.951L86.4873 155.308C90.4713 163.389 93.2447 171.206 92.7472 178.413C89.9677 178.565 86.3741 177.22 82.3436 175.034C84.0785 177.162 85.6715 178.663 87.0152 179.716L87.6173 180.17C87.7145 180.241 87.8102 180.309 87.9043 180.375L88.4488 180.741L88.952 181.053L89.4115 181.316L89.8251 181.532L90.1903 181.706L90.5048 181.841C90.5528 181.861 90.5987 181.879 90.6422 181.895C87.2649 181.611 83.522 183.033 79.6556 184.992L78.3625 185.663L77.0623 186.365C83.7235 184.714 88.9749 184.451 92.4779 185.827C90.7574 189.084 89.0257 192.418 87.2836 195.823L84.6627 200.983C80.7201 208.799 76.7271 216.959 72.6937 225.395L69.9988 231.059C69.0986 232.96 68.1965 234.874 67.2926 236.8C69.1381 236.554 70.3719 235.486 71.1974 233.97L74.249 227.5L77.0575 221.682L80.6462 214.376L83.8161 208.025L86.9567 201.82L89.9404 195.999L94.0811 188.039L97.0211 182.467L98.0316 180.567L98.9026 178.959L99.695 177.451L100.903 175.221L103.379 170.673C103.799 169.906 104.222 169.133 104.648 168.355L105.82 166.244L105.826 166.202L99.8357 148.306C99.7589 148.438 99.7035 148.555 99.6535 148.678L99.5804 148.872Z" fill="url(#paint11_linear_818_1364)"/>
<path d="M152.614 93.3671L151.681 94.7379C151.054 95.6799 150.409 96.6192 149.768 97.5719L146.695 102.206L144.501 105.501L143.945 106.355C143.111 107.632 142.274 108.931 141.429 110.251L138.863 114.268C137.161 116.948 135.446 119.708 133.695 122.568L132.374 124.732C130.275 128.172 128.109 131.775 125.931 135.462L123.424 139.742C122.16 141.906 120.88 144.112 119.591 146.379C118.826 147.714 118.059 149.07 117.286 150.442L113.473 157.242L112.305 159.36L109.933 163.677C109.136 165.132 108.335 166.603 107.531 168.088C107.476 168.166 107.422 168.244 107.409 168.329L114.31 168.566C114.19 168.505 114.064 168.486 113.901 168.42C122.189 168.602 133.876 164.113 141.936 157.627C145.648 154.639 149.152 151.018 152.551 146.648C155.095 143.403 157.526 139.753 159.983 135.633C162.1 132.067 164.225 128.156 166.314 123.897C164.317 124.594 162.061 124.996 159.625 125.155L158.322 125.223C158.033 125.238 157.746 125.234 157.446 125.234L156.984 125.242C165.002 123.446 170.591 118.536 175.064 112.127C172.883 113.186 169.376 114.48 165.366 114.797C164.842 114.849 164.281 114.853 163.721 114.857C163.636 114.844 163.549 114.851 163.45 114.849L163.293 114.837C166.068 114.124 168.483 113.229 170.639 112.038C170.949 111.882 171.243 111.705 171.532 111.521L171.962 111.241C172.627 110.822 173.256 110.354 173.884 109.886L175.058 108.938C175.947 108.164 176.806 107.299 177.593 106.338L178.097 105.754C178.176 105.657 178.253 105.558 178.326 105.454L178.962 104.558C179.063 104.414 179.16 104.27 179.253 104.126C180.446 102.416 181.455 100.844 182.306 99.4139L182.661 98.8098C183.122 98.0158 183.529 97.3 183.887 96.6202L184.306 95.8201L184.941 94.5331C185.072 94.2661 185.192 94.0114 185.296 93.7683L185.482 93.3362L185.797 92.5548C185.89 92.3135 185.971 92.092 186.038 91.8917L186.13 91.6074C185.941 91.7232 185.733 91.8363 185.508 91.9341L185.158 92.0679C182.683 93.0833 178.575 93.773 175.326 93.8993C175.283 93.8931 175.241 93.8869 175.193 93.9229L174.544 93.9267C174.431 93.9307 174.315 93.9376 174.198 93.9493L174.379 93.8897L152.7 93.0781C152.717 93.2529 152.662 93.3311 152.614 93.3671Z" fill="url(#paint12_linear_818_1364)"/>
<path d="M182.976 53.7944C182.202 54.6716 181.401 55.5928 180.575 56.5566L178.89 58.5405L177.137 60.6351L175.019 63.1927C174.974 63.2515 174.931 63.3123 174.893 63.3784C173.685 64.8598 172.444 66.4118 171.166 68.0443L169.217 70.5546C168.888 70.9835 168.555 71.4177 168.22 71.8574L165.421 75.5584L163.591 78.01C162.665 79.2594 161.721 80.5455 160.758 81.8752L159.79 83.2196C158.819 84.5541 157.842 85.9274 156.849 87.3379L154.84 90.2082L152.772 93.1753L174.451 93.9869C181.071 92.0288 184.232 89.8647 187.482 86.5074C188.131 85.8272 188.787 85.0995 189.447 84.3422L190.109 83.5757C192.803 80.4815 195.505 77.0437 197.953 73.5688C200.341 70.2142 202.512 66.8709 204.205 63.8452C205.31 61.8964 206.221 60.0914 206.932 58.4726C207.528 57.0522 208.028 55.7039 208.479 54.3915L206.23 54.4307L203.917 54.4548L201.563 54.4629L199.189 54.4545C198.793 54.4517 198.397 54.4481 198.001 54.4439L195.639 54.4093L193.312 54.3564C192.928 54.3461 192.547 54.3349 192.168 54.323L189.935 54.2414C189.57 54.2262 189.209 54.2101 188.851 54.1932L186.762 54.0815C185.408 54.0001 184.137 53.9047 182.976 53.7944Z" fill="url(#paint13_linear_818_1364)"/>
<defs>
<linearGradient id="paint0_linear_818_1364" x1="632.847" y1="1935.35" x2="4228.08" y2="762.972" gradientUnits="userSpaceOnUse">
<stop stop-color="#F69923"/>
<stop offset="0.3123" stop-color="#F79A23"/>
<stop offset="0.8383" stop-color="#E97826"/>
</linearGradient>
<linearGradient id="paint1_linear_818_1364" x1="385.165" y1="19208.5" x2="4796.41" y2="1695.5" gradientUnits="userSpaceOnUse">
<stop offset="0.3233" stop-color="#9E2064"/>
<stop offset="0.6302" stop-color="#C92037"/>
<stop offset="0.7514" stop-color="#CD2335"/>
<stop offset="1" stop-color="#E97826"/>
</linearGradient>
<linearGradient id="paint2_linear_818_1364" x1="799.644" y1="8676.1" x2="3697.52" y2="-5437.21" gradientUnits="userSpaceOnUse">
<stop stop-color="#282662"/>
<stop offset="0.0954839" stop-color="#662E8D"/>
<stop offset="0.7882" stop-color="#9F2064"/>
<stop offset="0.9487" stop-color="#CD2032"/>
</linearGradient>
<linearGradient id="paint3_linear_818_1364" x1="1024.27" y1="14189.4" x2="7438.27" y2="-1407.38" gradientUnits="userSpaceOnUse">
<stop offset="0.3233" stop-color="#9E2064"/>
<stop offset="0.6302" stop-color="#C92037"/>
<stop offset="0.7514" stop-color="#CD2335"/>
<stop offset="1" stop-color="#E97826"/>
</linearGradient>
<linearGradient id="paint4_linear_818_1364" x1="1306.76" y1="6027.38" x2="6471.54" y2="-407.597" gradientUnits="userSpaceOnUse">
<stop stop-color="#282662"/>
<stop offset="0.0954839" stop-color="#662E8D"/>
<stop offset="0.7882" stop-color="#9F2064"/>
<stop offset="0.9487" stop-color="#CD2032"/>
</linearGradient>
<linearGradient id="paint5_linear_818_1364" x1="1405.93" y1="18307.3" x2="6121.66" y2="-4015.25" gradientUnits="userSpaceOnUse">
<stop offset="0.3233" stop-color="#9E2064"/>
<stop offset="0.6302" stop-color="#C92037"/>
<stop offset="0.7514" stop-color="#CD2335"/>
<stop offset="1" stop-color="#E97826"/>
</linearGradient>
<linearGradient id="paint6_linear_818_1364" x1="576.576" y1="27517" x2="5014.56" y2="1683.19" gradientUnits="userSpaceOnUse">
<stop offset="0.3233" stop-color="#9E2064"/>
<stop offset="0.6302" stop-color="#C92037"/>
<stop offset="0.7514" stop-color="#CD2335"/>
<stop offset="1" stop-color="#E97826"/>
</linearGradient>
<linearGradient id="paint7_linear_818_1364" x1="729.478" y1="1770.52" x2="5395.72" y2="526.807" gradientUnits="userSpaceOnUse">
<stop stop-color="#F69923"/>
<stop offset="0.3123" stop-color="#F79A23"/>
<stop offset="0.8383" stop-color="#E97826"/>
</linearGradient>
<linearGradient id="paint8_linear_818_1364" x1="-2982.67" y1="20365" x2="6511.71" y2="2970.14" gradientUnits="userSpaceOnUse">
<stop offset="0.3233" stop-color="#9E2064"/>
<stop offset="0.6302" stop-color="#C92037"/>
<stop offset="0.7514" stop-color="#CD2335"/>
<stop offset="1" stop-color="#E97826"/>
</linearGradient>
<linearGradient id="paint9_linear_818_1364" x1="-803.186" y1="4373.75" x2="3484.21" y2="-2827.23" gradientUnits="userSpaceOnUse">
<stop stop-color="#282662"/>
<stop offset="0.0954839" stop-color="#662E8D"/>
<stop offset="0.7882" stop-color="#9F2064"/>
<stop offset="0.9487" stop-color="#CD2032"/>
</linearGradient>
<linearGradient id="paint10_linear_818_1364" x1="575.818" y1="15796.6" x2="10204" y2="-501.529" gradientUnits="userSpaceOnUse">
<stop offset="0.3233" stop-color="#9E2064"/>
<stop offset="0.6302" stop-color="#C92037"/>
<stop offset="0.7514" stop-color="#CD2335"/>
<stop offset="1" stop-color="#E97826"/>
</linearGradient>
<linearGradient id="paint11_linear_818_1364" x1="1494.81" y1="6989.35" x2="6775.82" y2="-867.63" gradientUnits="userSpaceOnUse">
<stop stop-color="#282662"/>
<stop offset="0.0954839" stop-color="#662E8D"/>
<stop offset="0.7882" stop-color="#9F2064"/>
<stop offset="0.9487" stop-color="#CD2032"/>
</linearGradient>
<linearGradient id="paint12_linear_818_1364" x1="-2627.78" y1="14065.9" x2="8471.63" y2="-3719.14" gradientUnits="userSpaceOnUse">
<stop offset="0.3233" stop-color="#9E2064"/>
<stop offset="0.6302" stop-color="#C92037"/>
<stop offset="0.7514" stop-color="#CD2335"/>
<stop offset="1" stop-color="#E97826"/>
</linearGradient>
<linearGradient id="paint13_linear_818_1364" x1="-7081.58" y1="10763" x2="26.8185" y2="-952.25" gradientUnits="userSpaceOnUse">
<stop offset="0.3233" stop-color="#9E2064"/>
<stop offset="0.6302" stop-color="#C92037"/>
<stop offset="0.7514" stop-color="#CD2335"/>
<stop offset="1" stop-color="#E97826"/>
</linearGradient>
</defs>
</svg>
