<svg width="256" height="256" viewBox="0 0 256 256" fill="none" xmlns="http://www.w3.org/2000/svg">
<path d="M120.675 124.097H38.5351C32.8645 124.097 28.2676 128.694 28.2676 134.365V148.055C28.2676 153.725 32.8645 158.322 38.5351 158.322H120.675C126.346 158.322 130.943 153.725 130.943 148.055V134.365C130.943 128.694 126.346 124.097 120.675 124.097Z" fill="#8ACCE7"/>
<path d="M120.675 76.1824H38.5351C32.8645 76.1824 28.2676 80.7793 28.2676 86.4499V100.14C28.2676 105.81 32.8645 110.407 38.5351 110.407H120.675C126.346 110.407 130.943 105.81 130.943 100.14V86.4499C130.943 80.7793 126.346 76.1824 120.675 76.1824Z" fill="#8ACCE7"/>
<path d="M120.675 28.2676H38.5351C32.8645 28.2676 28.2676 32.8645 28.2676 38.5351V52.2251C28.2676 57.8957 32.8645 62.4926 38.5351 62.4926H120.675C126.346 62.4926 130.943 57.8957 130.943 52.2251V38.5351C130.943 32.8645 126.346 28.2676 120.675 28.2676Z" fill="#8ACCE7"/>
<path d="M38.5349 62.4924H52.2249V76.1824H38.5349V62.4924ZM106.985 62.4924H120.675V76.1824H106.985V62.4924ZM38.5349 110.407H52.2249V124.097H38.5349V110.407ZM106.985 110.407H120.675V124.097H106.985V110.407ZM38.5349 158.322H52.2249V172.012H38.5349V158.322ZM106.985 158.322H120.675V172.012H106.985V158.322Z" fill="#379EC3"/>
<path d="M189.125 28.2676H216.505C219.228 28.2676 221.84 29.3493 223.765 31.2749C225.691 33.2004 226.772 35.812 226.772 38.5351V52.2251H189.125V28.2676Z" fill="#EEBE33"/>
<path d="M178.857 38.5351V59.0701C178.857 61.7932 179.939 64.4048 181.865 66.3303C183.79 68.2558 186.402 69.3376 189.125 69.3376H216.505C219.228 69.3376 221.84 68.2558 223.765 66.3303C225.691 64.4048 226.772 61.7932 226.772 59.0701V52.2251C226.772 49.502 225.691 46.8904 223.765 44.9649C221.84 43.0393 219.228 41.9576 216.505 41.9576H209.161C207.254 41.9576 205.385 41.4266 203.763 40.4241C202.141 39.4216 200.83 37.9873 199.977 36.2818L198.808 33.9434C197.955 32.2379 196.644 30.8035 195.022 29.8011C193.4 28.7986 191.531 28.2676 189.624 28.2676H189.125C186.402 28.2676 183.79 29.3493 181.865 31.2749C179.939 33.2004 178.857 35.812 178.857 38.5351Z" fill="#EEDC9A"/>
<path d="M189.125 106.985H216.505C219.228 106.985 221.84 108.067 223.765 109.992C225.691 111.918 226.772 114.529 226.772 117.252V130.942H189.125V106.985Z" fill="#EEBE33"/>
<path d="M178.857 117.252V137.787C178.857 140.51 179.939 143.122 181.865 145.048C183.79 146.973 186.402 148.055 189.125 148.055H216.505C219.228 148.055 221.84 146.973 223.765 145.048C225.691 143.122 226.772 140.51 226.772 137.787V130.942C226.772 128.219 225.691 125.608 223.765 123.682C221.84 121.757 219.228 120.675 216.505 120.675H209.161C207.254 120.675 205.385 120.144 203.763 119.141C202.141 118.139 200.83 116.705 199.977 114.999L198.808 112.661C197.955 110.955 196.644 109.521 195.022 108.518C193.4 107.516 191.531 106.985 189.624 106.985H189.125C186.402 106.985 183.79 108.067 181.865 109.992C179.939 111.918 178.857 114.529 178.857 117.252Z" fill="#EEDC9A"/>
<path d="M189.125 185.702H216.505C219.228 185.702 221.84 186.784 223.765 188.71C225.691 190.635 226.772 193.247 226.772 195.97V209.66H189.125V185.702Z" fill="#EEBE33"/>
<path d="M178.857 195.97V216.505C178.857 219.228 179.939 221.84 181.865 223.765C183.79 225.691 186.402 226.772 189.125 226.772H216.505C219.228 226.772 221.84 225.691 223.765 223.765C225.691 221.84 226.772 219.228 226.772 216.505V209.66C226.772 206.937 225.691 204.325 223.765 202.4C221.84 200.474 219.228 199.392 216.505 199.392H209.161C207.254 199.392 205.385 198.861 203.763 197.859C202.141 196.856 200.83 195.422 199.977 193.717L198.808 191.378C197.955 189.673 196.644 188.238 195.022 187.236C193.4 186.233 191.531 185.702 189.624 185.702H189.125C186.402 185.702 183.79 186.784 181.865 188.71C179.939 190.635 178.857 193.247 178.857 195.97Z" fill="#EEDC9A"/>
<path d="M38.535 144.632C40.4252 144.632 41.9575 143.1 41.9575 141.21C41.9575 139.32 40.4252 137.787 38.535 137.787C36.6449 137.787 35.1125 139.32 35.1125 141.21C35.1125 143.1 36.6449 144.632 38.535 144.632Z" fill="black"/>
<path d="M48.8024 144.632C50.6926 144.632 52.2249 143.1 52.2249 141.21C52.2249 139.32 50.6926 137.787 48.8024 137.787C46.9122 137.787 45.3799 139.32 45.3799 141.21C45.3799 143.1 46.9122 144.632 48.8024 144.632Z" fill="black"/>
<path d="M59.07 144.632C60.9602 144.632 62.4925 143.1 62.4925 141.21C62.4925 139.32 60.9602 137.787 59.07 137.787C57.1798 137.787 55.6475 139.32 55.6475 141.21C55.6475 143.1 57.1798 144.632 59.07 144.632Z" fill="black"/>
<path d="M100.14 130.942H120.675V137.787H100.14V130.942ZM100.14 144.632H120.675V151.477H100.14V144.632Z" fill="black"/>
<path d="M38.535 96.7176C40.4252 96.7176 41.9575 95.1853 41.9575 93.2951C41.9575 91.4049 40.4252 89.8726 38.535 89.8726C36.6449 89.8726 35.1125 91.4049 35.1125 93.2951C35.1125 95.1853 36.6449 96.7176 38.535 96.7176Z" fill="black"/>
<path d="M48.8024 96.7176C50.6926 96.7176 52.2249 95.1853 52.2249 93.2951C52.2249 91.4049 50.6926 89.8726 48.8024 89.8726C46.9122 89.8726 45.3799 91.4049 45.3799 93.2951C45.3799 95.1853 46.9122 96.7176 48.8024 96.7176Z" fill="black"/>
<path d="M59.07 96.7176C60.9602 96.7176 62.4925 95.1853 62.4925 93.2951C62.4925 91.4049 60.9602 89.8726 59.07 89.8726C57.1798 89.8726 55.6475 91.4049 55.6475 93.2951C55.6475 95.1853 57.1798 96.7176 59.07 96.7176Z" fill="black"/>
<path d="M100.14 83.0276H120.675V89.8726H100.14V83.0276ZM100.14 96.7176H120.675V103.563H100.14V96.7176Z" fill="black"/>
<path d="M120.675 24.845H38.535C34.9054 24.849 31.4257 26.2927 28.8592 28.8592C26.2927 31.4257 24.849 34.9054 24.845 38.535V52.225C24.8489 55.2592 25.8588 58.2064 27.7168 60.6052C29.5747 63.004 32.1757 64.719 35.1125 65.4816V73.1933C32.1757 73.9559 29.5747 75.6709 27.7168 78.0697C25.8588 80.4685 24.8489 83.4158 24.845 86.45V100.14C24.8489 103.174 25.8588 106.121 27.7168 108.52C29.5747 110.919 32.1757 112.634 35.1125 113.397V121.108C32.1757 121.871 29.5747 123.586 27.7168 125.985C25.8588 128.384 24.8489 131.331 24.845 134.365V148.055C24.8489 151.089 25.8588 154.036 27.7168 156.435C29.5747 158.834 32.1757 160.549 35.1125 161.312V172.012C35.1125 172.92 35.4731 173.791 36.1149 174.433C36.7567 175.074 37.6273 175.435 38.535 175.435H52.225C53.1327 175.435 54.0032 175.074 54.645 174.433C55.2869 173.791 55.6475 172.92 55.6475 172.012V161.745H103.562V172.012C103.562 172.92 103.923 173.791 104.565 174.433C105.207 175.074 106.077 175.435 106.985 175.435H120.675C121.583 175.435 122.453 175.074 123.095 174.433C123.737 173.791 124.097 172.92 124.097 172.012V161.312C127.034 160.549 129.635 158.834 131.493 156.435C133.351 154.036 134.361 151.089 134.365 148.055V134.365C134.361 131.331 133.351 128.384 131.493 125.985C129.635 123.586 127.034 121.871 124.097 121.108V113.397C127.034 112.634 129.635 110.919 131.493 108.52C133.351 106.121 134.361 103.174 134.365 100.14V86.45C134.361 83.4158 133.351 80.4685 131.493 78.0697C129.635 75.6709 127.034 73.9559 124.097 73.1933V65.4816C127.034 64.719 129.635 63.004 131.493 60.6052C133.351 58.2064 134.361 55.2592 134.365 52.225V38.535C134.361 34.9054 132.917 31.4257 130.351 28.8592C127.784 26.2927 124.305 24.849 120.675 24.845ZM110.407 72.76V65.915H117.252V72.76H110.407ZM103.562 72.76H55.6475V65.915H103.562V72.76ZM48.8025 72.76H41.9575V65.915H48.8025V72.76ZM110.407 120.675V113.83H117.252V120.675H110.407ZM103.562 120.675H55.6475V113.83H103.562V120.675ZM48.8025 120.675H41.9575V113.83H48.8025V120.675ZM48.8025 168.59H41.9575V161.745H48.8025V168.59ZM110.407 168.59V161.745H117.252V168.59H110.407ZM127.52 134.365V148.055C127.518 149.87 126.796 151.61 125.513 152.893C124.23 154.176 122.49 154.898 120.675 154.9H38.535C36.7202 154.898 34.9803 154.176 33.6971 152.893C32.4138 151.61 31.692 149.87 31.69 148.055V134.365C31.692 132.55 32.4138 130.81 33.6971 129.527C34.9803 128.244 36.7202 127.522 38.535 127.52H120.675C122.49 127.522 124.23 128.244 125.513 129.527C126.796 130.81 127.518 132.55 127.52 134.365ZM127.52 86.45V100.14C127.518 101.955 126.796 103.695 125.513 104.978C124.23 106.261 122.49 106.983 120.675 106.985H38.535C36.7202 106.983 34.9803 106.261 33.6971 104.978C32.4138 103.695 31.692 101.955 31.69 100.14V86.45C31.692 84.6352 32.4138 82.8953 33.6971 81.6121C34.9803 80.3288 36.7202 79.607 38.535 79.605H120.675C122.49 79.607 124.23 80.3288 125.513 81.6121C126.796 82.8953 127.518 84.6352 127.52 86.45ZM127.52 52.225C127.518 54.0398 126.796 55.7796 125.513 57.0629C124.23 58.3461 122.49 59.0679 120.675 59.07H38.535C36.7202 59.0679 34.9803 58.3461 33.6971 57.0629C32.4138 55.7796 31.692 54.0398 31.69 52.225V38.535C31.692 36.7202 32.4138 34.9803 33.6971 33.6971C34.9803 32.4138 36.7202 31.692 38.535 31.69H120.675C122.49 31.692 124.23 32.4138 125.513 33.6971C126.796 34.9803 127.518 36.7202 127.52 38.535V52.225Z" fill="black"/>
<path d="M38.535 48.8025C40.4252 48.8025 41.9575 47.2702 41.9575 45.38C41.9575 43.4898 40.4252 41.9575 38.535 41.9575C36.6449 41.9575 35.1125 43.4898 35.1125 45.38C35.1125 47.2702 36.6449 48.8025 38.535 48.8025Z" fill="black"/>
<path d="M48.8024 48.8025C50.6926 48.8025 52.2249 47.2702 52.2249 45.38C52.2249 43.4898 50.6926 41.9575 48.8024 41.9575C46.9122 41.9575 45.3799 43.4898 45.3799 45.38C45.3799 47.2702 46.9122 48.8025 48.8024 48.8025Z" fill="black"/>
<path d="M59.07 48.8025C60.9602 48.8025 62.4925 47.2702 62.4925 45.38C62.4925 43.4898 60.9602 41.9575 59.07 41.9575C57.1798 41.9575 55.6475 43.4898 55.6475 45.38C55.6475 47.2702 57.1798 48.8025 59.07 48.8025Z" fill="black"/>
<path d="M100.14 35.1125H120.675V41.9575H100.14V35.1125ZM100.14 48.8025H120.675V55.6475H100.14V48.8025ZM141.21 45.38V52.225H151.477V209.66C151.477 210.568 151.838 211.438 152.48 212.08C153.122 212.722 153.992 213.082 154.9 213.082H168.59V206.237H158.322V130.942H168.59V124.097H158.322V52.225H168.59V45.38H141.21ZM216.505 24.845H189.125C185.495 24.849 182.016 26.2927 179.449 28.8592C176.883 31.4257 175.439 34.9054 175.435 38.535V59.07C175.439 62.6995 176.883 66.1793 179.449 68.7458C182.016 71.3122 185.495 72.7559 189.125 72.76H216.505C220.134 72.7559 223.614 71.3122 226.181 68.7458C228.747 66.1793 230.191 62.6995 230.195 59.07V38.535C230.191 34.9054 228.747 31.4257 226.181 28.8592C223.614 26.2927 220.134 24.849 216.505 24.845ZM223.35 38.535V40.3767C221.271 39.1686 218.909 38.5331 216.505 38.535H209.161C207.889 38.5393 206.641 38.187 205.558 37.5182C204.476 36.8494 203.603 35.8907 203.038 34.751L201.869 32.4125C201.745 32.1657 201.612 31.9266 201.475 31.69H216.505C218.32 31.692 220.06 32.4138 221.343 33.6971C222.626 34.9803 223.348 36.7202 223.35 38.535ZM223.35 59.07C223.348 60.8848 222.626 62.6246 221.343 63.9079C220.06 65.1911 218.32 65.9129 216.505 65.915H189.125C187.31 65.9129 185.57 65.1911 184.287 63.9079C183.004 62.6246 182.282 60.8848 182.28 59.07V38.535C182.282 36.7202 183.004 34.9803 184.287 33.6971C185.57 32.4138 187.31 31.692 189.125 31.69H189.624C190.896 31.6857 192.144 32.0379 193.226 32.7067C194.308 33.3755 195.182 34.3342 195.747 35.474L196.916 37.8124C198.046 40.0919 199.792 42.0091 201.956 43.3466C204.121 44.6842 206.616 45.3886 209.161 45.38H216.505C218.32 45.382 220.06 46.1038 221.343 47.3871C222.626 48.6703 223.348 50.4102 223.35 52.225V59.07ZM216.505 103.509H189.125C185.495 103.513 182.016 104.957 179.449 107.523C176.883 110.09 175.439 113.569 175.435 117.199V137.734C175.439 141.364 176.883 144.843 179.449 147.41C182.016 149.976 185.495 151.42 189.125 151.424H216.505C220.134 151.42 223.614 149.976 226.181 147.41C228.747 144.843 230.191 141.364 230.195 137.734V117.199C230.191 113.569 228.747 110.09 226.181 107.523C223.614 104.957 220.134 103.513 216.505 103.509ZM223.35 117.199V119.041C221.271 117.833 218.909 117.197 216.505 117.199H209.161C207.889 117.203 206.641 116.851 205.558 116.182C204.476 115.513 203.603 114.555 203.038 113.415L201.869 111.077C201.745 110.83 201.612 110.591 201.475 110.354H216.505C218.32 110.356 220.06 111.078 221.343 112.361C222.626 113.644 223.348 115.384 223.35 117.199ZM223.35 137.734C223.348 139.549 222.626 141.289 221.343 142.572C220.06 143.855 218.32 144.577 216.505 144.579H189.125C187.31 144.577 185.57 143.855 184.287 142.572C183.004 141.289 182.282 139.549 182.28 137.734V117.199C182.282 115.384 183.004 113.644 184.287 112.361C185.57 111.078 187.31 110.356 189.125 110.354H189.624C190.896 110.35 192.144 110.702 193.226 111.371C194.308 112.04 195.182 112.998 195.747 114.138L196.916 116.476C198.046 118.756 199.792 120.673 201.956 122.011C204.121 123.348 206.616 124.053 209.161 124.044H216.505C218.32 124.046 220.06 124.768 221.343 126.051C222.626 127.334 223.348 129.074 223.35 130.889V137.734ZM216.505 182.173H189.125C185.495 182.177 182.016 183.621 179.449 186.187C176.883 188.754 175.439 192.233 175.435 195.863V216.398C175.439 220.028 176.883 223.507 179.449 226.074C182.016 228.64 185.495 230.084 189.125 230.088H216.505C220.134 230.084 223.614 228.64 226.181 226.074C228.747 223.507 230.191 220.028 230.195 216.398V195.863C230.191 192.233 228.747 188.754 226.181 186.187C223.614 183.621 220.134 182.177 216.505 182.173ZM223.35 195.863V197.705C221.271 196.497 218.909 195.861 216.505 195.863H209.161C207.889 195.867 206.641 195.515 205.558 194.846C204.476 194.177 203.603 193.219 203.038 192.079L201.869 189.741C201.745 189.494 201.612 189.255 201.475 189.018H216.505C218.32 189.02 220.06 189.742 221.343 191.025C222.626 192.308 223.348 194.048 223.35 195.863ZM223.35 216.398C223.348 218.213 222.626 219.953 221.343 221.236C220.06 222.519 218.32 223.241 216.505 223.243H189.125C187.31 223.241 185.57 222.519 184.287 221.236C183.004 219.953 182.282 218.213 182.28 216.398V195.863C182.282 194.048 183.004 192.308 184.287 191.025C185.57 189.742 187.31 189.02 189.125 189.018H189.624C190.896 189.014 192.144 189.366 193.226 190.035C194.308 190.704 195.182 191.662 195.747 192.802L196.916 195.14C198.046 197.42 199.792 199.337 201.956 200.675C204.121 202.012 206.616 202.717 209.161 202.708H216.505C218.32 202.71 220.06 203.432 221.343 204.715C222.626 205.998 223.348 207.738 223.35 209.553V216.398Z" fill="black"/>
</svg>
