<svg width="256" height="256" viewBox="0 0 256 256" fill="none" xmlns="http://www.w3.org/2000/svg">
<g clip-path="url(#clip0_822_1630)">
<path d="M189.125 59.07V24.845C189.125 21.07 186.055 18 182.28 18H72.76C68.985 18 65.915 21.07 65.915 24.845V59.07C65.915 62.845 68.985 65.915 72.76 65.915V72.76C68.985 72.76 65.915 75.83 65.915 79.605V113.83C65.915 117.605 68.985 120.675 72.76 120.675V127.52C68.985 127.52 65.915 130.59 65.915 134.365V168.59C65.915 172.365 68.985 175.435 72.76 175.435V182.28C68.985 182.28 65.915 185.35 65.915 189.125V223.35C65.915 227.125 68.985 230.195 72.76 230.195V237.04H79.605V230.195H175.435V237.04H182.28V230.195C186.055 230.195 189.125 227.125 189.125 223.35V189.125C189.125 185.35 186.055 182.28 182.28 182.28V175.435C186.055 175.435 189.125 172.365 189.125 168.59V134.365C189.125 130.59 186.055 127.52 182.28 127.52V120.675C186.055 120.675 189.125 117.605 189.125 113.83V79.605C189.125 75.83 186.055 72.76 182.28 72.76V65.915C186.055 65.915 189.125 62.845 189.125 59.07ZM154.9 31.69H161.745V38.535H154.9V31.69ZM154.9 45.38H161.745V52.225H154.9V45.38ZM141.21 31.69H148.055V38.535H141.21V31.69ZM141.21 45.38H148.055V52.225H141.21V45.38ZM127.52 31.69H134.365V38.535H127.52V31.69ZM127.52 45.38H134.365V52.225H127.52V45.38ZM113.83 31.69H120.675V38.535H113.83V31.69ZM113.83 45.38H120.675V52.225H113.83V45.38ZM79.605 38.535C79.605 34.76 82.675 31.69 86.45 31.69H100.14C103.915 31.69 106.985 34.76 106.985 38.535V45.38C106.985 49.155 103.915 52.225 100.14 52.225H86.45C82.675 52.225 79.605 49.155 79.605 45.38V38.535ZM79.605 93.295C79.605 89.52 82.675 86.45 86.45 86.45H100.14C103.915 86.45 106.985 89.52 106.985 93.295V100.14C106.985 103.915 103.915 106.985 100.14 106.985H86.45C82.675 106.985 79.605 103.915 79.605 100.14V93.295ZM79.605 148.055C79.605 144.28 82.675 141.21 86.45 141.21H100.14C103.915 141.21 106.985 144.28 106.985 148.055V154.9C106.985 158.675 103.915 161.745 100.14 161.745H86.45C82.675 161.745 79.605 158.675 79.605 154.9V148.055ZM106.985 209.66C106.985 213.435 103.915 216.505 100.14 216.505H86.45C82.675 216.505 79.605 213.435 79.605 209.66V202.815C79.605 199.04 82.675 195.97 86.45 195.97H100.14C103.915 195.97 106.985 199.04 106.985 202.815V209.66ZM120.675 216.505H113.83V209.66H120.675V216.505ZM120.675 202.815H113.83V195.97H120.675V202.815ZM134.365 216.505H127.52V195.97H134.365V216.505ZM148.055 216.505H141.21V209.66H148.055V216.505ZM148.055 202.815H141.21V195.97H148.055V202.815ZM161.745 216.505H154.9V195.97H161.745V216.505ZM175.435 216.505H168.59V209.66H175.435V216.505ZM175.435 202.815H168.59V195.97H175.435V202.815ZM175.435 182.28H79.605V175.435H175.435V182.28ZM120.675 154.9V161.745H113.83V154.9H120.675ZM113.83 148.055V141.21H120.675V148.055H113.83ZM134.365 154.9V161.745H127.52V154.9H134.365ZM127.52 148.055V141.21H134.365V148.055H127.52ZM148.055 154.9V161.745H141.21V154.9H148.055ZM141.21 148.055V141.21H148.055V148.055H141.21ZM161.745 154.9V161.745H154.9V154.9H161.745ZM154.9 148.055V141.21H161.745V148.055H154.9ZM175.435 161.745H168.59V154.9H175.435V161.745ZM175.435 148.055H168.59V141.21H175.435V148.055ZM175.435 127.52H79.605V120.675H175.435V127.52ZM120.675 100.14V106.985H113.83V100.14H120.675ZM113.83 93.295V86.45H120.675V93.295H113.83ZM127.52 106.985V86.45H134.365V106.985H127.52ZM148.055 100.14V106.985H141.21V100.14H148.055ZM141.21 93.295V86.45H148.055V93.295H141.21ZM154.9 106.985V86.45H161.745V106.985H154.9ZM175.435 106.985H168.59V100.14H175.435V106.985ZM175.435 93.295H168.59V86.45H175.435V93.295ZM175.435 72.76H79.605V65.915H175.435V72.76ZM175.435 52.225H168.59V45.38H175.435V52.225ZM175.435 38.535H168.59V31.69H175.435V38.535Z" fill="black"/>
<path d="M86.45 38.535H100.143V45.38H86.45V38.535ZM86.45 148.055H100.143V154.9H86.45V148.055ZM86.45 93.2951H100.143V100.14H86.45V93.2951ZM86.45 202.815H100.143V209.66H86.45V202.815ZM226.772 117.253C222.317 117.253 218.552 120.123 217.135 124.098H195.97V130.943H217.135C218.552 134.917 222.317 137.788 226.772 137.788C232.432 137.788 237.04 133.18 237.04 127.52C237.04 121.86 232.432 117.253 226.772 117.253ZM226.772 130.943C224.884 130.943 223.35 129.408 223.35 127.52C223.35 125.632 224.884 124.098 226.772 124.098C228.661 124.098 230.195 125.632 230.195 127.52C230.195 129.408 228.661 130.943 226.772 130.943ZM223.35 93.2951V55.0174C227.324 53.6005 230.195 49.8353 230.195 45.38C230.195 39.7201 225.587 35.1125 219.927 35.1125C214.268 35.1125 209.66 39.7201 209.66 45.38C209.66 49.8353 212.531 53.6005 216.505 55.0174V89.8726H195.97V96.7176H219.927C221.821 96.7176 223.35 95.1885 223.35 93.2951ZM219.927 41.9575C221.816 41.9575 223.35 43.4917 223.35 45.38C223.35 47.2684 221.816 48.8025 219.927 48.8025C218.039 48.8025 216.505 47.2684 216.505 45.38C216.505 43.4917 218.039 41.9575 219.927 41.9575ZM223.35 200.023V161.745C223.35 159.852 221.821 158.323 219.927 158.323H195.97V165.168H216.505V200.023C212.531 201.44 209.66 205.205 209.66 209.66C209.66 215.32 214.268 219.928 219.927 219.928C225.587 219.928 230.195 215.32 230.195 209.66C230.195 205.205 227.324 201.44 223.35 200.023ZM219.927 213.083C218.039 213.083 216.505 211.548 216.505 209.66C216.505 207.772 218.039 206.238 219.927 206.238C221.816 206.238 223.35 207.772 223.35 209.66C223.35 211.548 221.816 213.083 219.927 213.083ZM28.2675 117.253C22.6075 117.253 18 121.86 18 127.52C18 133.18 22.6075 137.788 28.2675 137.788C32.7227 137.788 36.4879 134.917 37.9048 130.943H59.07V124.098H37.9048C36.4879 120.123 32.7227 117.253 28.2675 117.253ZM28.2675 130.943C26.3791 130.943 24.845 129.408 24.845 127.52C24.845 125.632 26.3791 124.098 28.2675 124.098C30.1559 124.098 31.69 125.632 31.69 127.52C31.69 129.408 30.1559 130.943 28.2675 130.943ZM38.535 55.0174C42.5094 53.6005 45.38 49.8353 45.38 45.38C45.38 39.7201 40.7725 35.1125 35.1125 35.1125C29.4525 35.1125 24.845 39.7201 24.845 45.38C24.845 49.8353 27.7156 53.6005 31.69 55.0174V93.2951C31.69 95.1885 33.219 96.7176 35.1125 96.7176H59.07V89.8726H38.535V55.0174ZM35.1125 41.9575C37.0009 41.9575 38.535 43.4917 38.535 45.38C38.535 47.2684 37.0009 48.8025 35.1125 48.8025C33.2241 48.8025 31.69 47.2684 31.69 45.38C31.69 43.4917 33.2241 41.9575 35.1125 41.9575ZM31.69 161.745V200.023C27.7156 201.44 24.845 205.205 24.845 209.66C24.845 215.32 29.4525 219.928 35.1125 219.928C40.7725 219.928 45.38 215.32 45.38 209.66C45.38 205.205 42.5094 201.44 38.535 200.023V165.168H59.07V158.323H35.1125C34.6629 158.322 34.2176 158.41 33.8021 158.582C33.3866 158.754 33.0091 159.006 32.6912 159.324C32.3732 159.642 32.1212 160.019 31.9494 160.435C31.7776 160.85 31.6894 161.295 31.69 161.745ZM35.1125 213.083C33.2241 213.083 31.69 211.548 31.69 209.66C31.69 207.772 33.2241 206.238 35.1125 206.238C37.0009 206.238 38.535 207.772 38.535 209.66C38.535 211.548 37.0009 213.083 35.1125 213.083Z" fill="black"/>
</g>
<defs>
<clipPath id="clip0_822_1630">
<rect width="219.04" height="219.04" fill="white" transform="translate(18 18)"/>
</clipPath>
</defs>
</svg>
