<svg width="44" height="48" viewBox="0 0 44 48" fill="none" xmlns="http://www.w3.org/2000/svg">
<path d="M19.8137 0.512092C21.0039 -0.169158 22.5541 -0.172235 23.7432 0.512092C29.7257 3.89253 35.7101 7.26767 41.6916 10.6502C42.8167 11.2839 43.5692 12.5359 43.5578 13.8323V34.1703C43.5661 35.5203 42.7392 36.8023 41.5523 37.4217C35.5895 40.7835 29.6297 44.1494 23.6678 47.5112C22.453 48.2058 20.8717 48.1523 19.6949 47.4008C17.9072 46.3644 16.1165 45.3332 14.3286 44.2979C13.9633 44.0802 13.5515 43.9068 13.2935 43.5526C13.5216 43.2452 13.9293 43.2069 14.2606 43.0727C15.0068 42.8354 15.6922 42.4546 16.3777 42.085C16.551 41.9663 16.7627 42.0118 16.9288 42.1179C18.4575 42.9944 19.9727 43.8964 21.5065 44.7645C21.8337 44.9534 22.165 44.7026 22.4447 44.5467C28.2961 41.2396 34.1546 37.945 40.005 34.6368C40.2218 34.5326 40.3416 34.3025 40.324 34.065C40.3281 27.3559 40.325 20.6457 40.3261 13.9366C40.3509 13.6672 40.1949 13.4194 39.9513 13.3092C34.0092 9.96275 28.0701 6.61121 22.1289 3.26393C22.026 3.19317 21.904 3.1552 21.7791 3.15502C21.6542 3.15483 21.5322 3.19244 21.429 3.26291C15.4879 6.61121 9.54979 9.96583 3.60864 13.3121C3.36588 13.4225 3.20296 13.6661 3.23185 13.9366C3.23288 20.6457 3.23185 27.3559 3.23185 34.066C3.22155 34.1819 3.247 34.2981 3.30477 34.3991C3.36254 34.5 3.44985 34.5809 3.55496 34.6307C5.14038 35.5297 6.72786 36.4225 8.31431 37.3184C9.20805 37.7995 10.3054 38.0853 11.2901 37.7167C12.1591 37.4051 12.7682 36.5184 12.7516 35.5957C12.7598 28.9258 12.7475 22.2548 12.7577 15.5859C12.736 15.2898 13.0169 15.0452 13.3048 15.0731C14.0666 15.0679 14.8294 15.0628 15.5911 15.0751C15.9091 15.0679 16.1279 15.3868 16.0886 15.6851C16.0855 22.3972 16.0968 29.1096 16.0835 35.8217C16.0855 37.6106 15.3506 39.5571 13.6959 40.4323C11.6575 41.4883 9.13796 41.2644 7.12413 40.2518C5.38074 39.3817 3.71702 38.3547 2.00458 37.4225C0.814571 36.8066 -0.00822959 35.5195 0.00014714 34.1705V13.8323C-0.0123325 12.5091 0.770123 11.2343 1.93021 10.6098C7.89205 7.24527 13.8529 3.87817 19.8137 0.512092Z" fill="#8CC84B"/>
<path d="M25.0147 14.6005C27.615 14.4331 30.3986 14.5013 32.7384 15.7823C34.55 16.7639 35.5544 18.824 35.5863 20.8367C35.5357 21.1081 35.252 21.2579 34.9928 21.2393C34.2384 21.2382 33.4838 21.2495 32.7294 21.2341C32.4093 21.2464 32.2233 20.9514 32.1832 20.6685C31.9664 19.7055 31.4412 18.7517 30.5348 18.2872C29.1434 17.5906 27.5302 17.6257 26.0129 17.6402C24.9053 17.699 23.7143 17.7949 22.7759 18.4462C22.0555 18.9396 21.8367 19.9356 22.0938 20.7377C22.3362 21.3136 23.0011 21.4995 23.5451 21.6708C26.6786 22.4903 29.9992 22.4088 33.073 23.4873C34.3456 23.927 35.5905 24.7818 36.026 26.1142C36.5958 27.8999 36.3461 30.0345 35.0755 31.4681C34.0452 32.6478 32.5446 33.2899 31.0479 33.6387C29.0568 34.0826 26.9905 34.0939 24.9684 33.8968C23.0671 33.68 21.0885 33.1805 19.6207 31.885C18.3655 30.7952 17.7525 29.0971 17.8133 27.4582C17.8279 27.1814 18.1034 26.9884 18.3686 27.0112C19.1283 27.005 19.888 27.003 20.6477 27.0122C20.9512 26.9905 21.1762 27.2527 21.1917 27.5387C21.3319 28.4562 21.6767 29.4192 22.4768 29.9632C24.0208 30.9593 25.9582 30.8911 27.7262 30.919C29.191 30.854 30.8352 30.8344 32.0305 29.8663C32.6612 29.3141 32.848 28.3902 32.6776 27.5955C32.4929 26.9245 31.791 26.6118 31.1882 26.4074C28.0948 25.4288 24.7371 25.7839 21.6736 24.6773C20.4299 24.2378 19.2273 23.4068 18.7495 22.1291C18.0828 20.3207 18.3882 18.084 19.7919 16.6988C21.1606 15.3209 23.1363 14.7902 25.0147 14.6003V14.6005Z" fill="#8CC84B"/>
</svg>
