<svg width="80" height="80" viewBox="0 0 80 80" fill="none" xmlns="http://www.w3.org/2000/svg">
<path d="M72.1162 33.2883C72.957 30.7636 73.2488 28.0884 72.9719 25.4419C72.695 22.7953 71.856 20.2384 70.5109 17.9424C66.4189 10.8178 58.1928 7.15233 50.159 8.87733C48.3927 6.88721 46.2218 5.29718 43.7916 4.2136C41.3613 3.13002 38.7277 2.57788 36.0668 2.5941C27.8548 2.57535 20.5686 7.86257 18.0421 15.6762C15.4343 16.21 12.9707 17.2947 10.816 18.8577C8.66135 20.4206 6.86537 22.4257 5.54824 24.7389C1.42591 31.8447 2.36568 40.8019 7.8732 46.8953C7.03241 49.42 6.74068 52.0952 7.01754 54.7418C7.2944 57.3883 8.13346 59.9452 9.47854 62.2413C13.5705 69.3658 21.7966 73.0313 29.8305 71.3063C31.5964 73.2967 33.7672 74.8868 36.1976 75.97C38.628 77.0532 41.2618 77.6046 43.9226 77.5872C52.1393 77.6083 59.4279 72.3164 61.9544 64.4958C64.5621 63.9619 67.0258 62.8772 69.1805 61.3143C71.3351 59.7513 73.1311 57.7462 74.4482 55.4331C78.566 48.3272 77.6239 39.377 72.1187 33.2836L72.1162 33.2883ZM43.9273 72.6868C40.6395 72.692 37.4546 71.5405 34.9302 69.434C35.0801 69.3545 35.2278 69.2709 35.3731 69.1832L50.3066 60.5587C50.6817 60.3455 50.9932 60.0362 51.2091 59.6626C51.4249 59.289 51.5373 58.8646 51.5346 58.4331V37.3802L57.846 41.0246C57.914 41.0574 57.9585 41.123 57.9679 41.198V58.6322C57.9585 66.3848 51.6799 72.6704 43.9273 72.6868ZM13.7321 59.7899C12.0849 56.9453 11.4917 53.6116 12.0565 50.3733C12.1666 50.4389 12.3611 50.5585 12.4994 50.6381L27.4329 59.2626C27.8051 59.4802 28.2285 59.5948 28.6597 59.5948C29.0909 59.5948 29.5143 59.4802 29.8866 59.2626L48.1176 48.735V56.0237C48.1193 56.0608 48.1121 56.0979 48.0967 56.1317C48.0812 56.1656 48.0578 56.1952 48.0285 56.2182L32.9333 64.934C26.2095 68.8057 17.6226 66.5042 13.7344 59.7898L13.7321 59.7899ZM9.80195 27.1926C11.4418 24.3443 14.0309 22.1633 17.1164 21.0312C17.1164 21.1601 17.1093 21.3874 17.1093 21.5468V38.7982C17.107 39.229 17.2193 39.6526 17.4347 40.0257C17.6501 40.3989 17.9608 40.708 18.335 40.9214L36.566 51.4467L30.2547 55.0909C30.2235 55.1117 30.1877 55.1243 30.1504 55.1275C30.1132 55.1308 30.0757 55.1247 30.0414 55.1097L14.9439 46.3868C8.23411 42.501 5.93273 33.9164 9.79961 27.1949L9.80195 27.1926ZM61.6566 39.2599L43.4256 28.7323L49.737 25.0904C49.7681 25.0696 49.8039 25.057 49.8412 25.0538C49.8785 25.0505 49.916 25.0566 49.9502 25.0716L65.0478 33.7875C71.7692 37.6708 74.073 46.2696 70.1897 52.9911C68.5474 55.8358 65.9601 58.0151 62.8776 59.1501V41.3831C62.881 40.9529 62.7699 40.5296 62.5558 40.1565C62.3417 39.7834 62.0321 39.4739 61.659 39.2599H61.6566ZM67.9375 29.8056C67.8274 29.7377 67.6329 29.6205 67.4946 29.5408L52.5611 20.9164C52.1889 20.6988 51.7654 20.5841 51.3343 20.5841C50.9031 20.5841 50.4797 20.6988 50.1074 20.9164L31.8764 31.4438V24.1552C31.8747 24.118 31.8818 24.0809 31.8973 24.0471C31.9128 24.0133 31.9362 23.9836 31.9655 23.9606L47.0606 15.2518C53.7845 11.3731 62.3808 13.6816 66.2572 20.4078C67.8954 23.2489 68.4882 26.5735 67.9328 29.8056H67.9375ZM28.4454 42.7963L22.1317 39.1521C22.0985 39.1357 22.0699 39.1112 22.0486 39.0809C22.0274 39.0506 22.014 39.0154 22.0099 38.9786V21.5444C22.0145 13.7824 28.3118 7.49214 36.0739 7.49683C39.3572 7.49683 42.5352 8.64986 45.0592 10.7497C44.9096 10.8297 44.7619 10.9133 44.6163 11.0005L29.6828 19.6251C29.3078 19.8378 28.9963 20.1467 28.7804 20.5199C28.5646 20.8931 28.4522 21.3172 28.4548 21.7483L28.4454 42.7916V42.7963ZM31.8741 35.4046L39.9946 30.7149L48.1152 35.4022V44.7789L39.9946 49.4662L31.8741 44.7789V35.4046Z" fill="black"/>
</svg>
