<svg width="47" height="30" viewBox="0 0 47 30" fill="none" xmlns="http://www.w3.org/2000/svg">
<path d="M15.2455 29.715H32.5155C36.3885 29.6145 40.0692 28.0053 42.773 25.2304C45.4768 22.4555 46.99 18.7344 46.99 14.86C46.99 10.9856 45.4768 7.26446 42.773 4.48957C40.0692 1.71467 36.3885 0.105498 32.5155 0.00500033H15.2455C13.2622 -0.0464598 11.2888 0.299716 9.4415 1.02311C7.5942 1.74651 5.91046 2.83248 4.48957 4.21699C3.06867 5.60149 1.93939 7.2565 1.16832 9.08441C0.397249 10.9123 0 12.8761 0 14.86C0 16.8439 0.397249 18.8077 1.16832 20.6356C1.93939 22.4635 3.06867 24.1185 4.48957 25.503C5.91046 26.8875 7.5942 27.9735 9.4415 28.6969C11.2888 29.4203 13.2622 29.7665 15.2455 29.715ZM32.1255 24.485H15.6255C13.1291 24.4045 10.7619 23.3562 9.02443 21.5618C7.28701 19.7675 6.31558 17.3677 6.31558 14.87C6.31558 12.3723 7.28701 9.97255 9.02443 8.17817C10.7619 6.3838 13.1291 5.33552 15.6255 5.255H32.1255C33.4142 5.21343 34.6982 5.43137 35.901 5.89586C37.1039 6.36035 38.2011 7.06192 39.1274 7.95886C40.0537 8.8558 40.7903 9.92981 41.2933 11.1171C41.7964 12.3043 42.0556 13.5806 42.0556 14.87C42.0556 16.1594 41.7964 17.4357 41.2933 18.6229C40.7903 19.8102 40.0537 20.8842 39.1274 21.7811C38.2011 22.6781 37.1039 23.3796 35.901 23.8441C34.6982 24.3086 33.4142 24.5266 32.1255 24.485Z" fill="#C74634"/>
</svg>
