<svg width="256" height="256" viewBox="0 0 256 256" fill="none" xmlns="http://www.w3.org/2000/svg">
<g clip-path="url(#clip0_818_1426)">
<path d="M18.48 129.932C18.48 161.696 67.5148 187.447 128 187.447C188.485 187.447 237.52 161.696 237.52 129.932C237.52 98.1678 188.485 72.4167 128 72.4167C67.5148 72.4167 18.48 98.1678 18.48 129.932Z" fill="url(#paint0_radial_818_1426)"/>
<path d="M128 183.176C186.122 183.176 233.241 159.338 233.241 129.931C233.241 100.526 186.122 76.6865 128 76.6865C69.8772 76.6865 22.7581 100.526 22.7581 129.931C22.7581 159.338 69.8772 183.176 128 183.176Z" fill="#777BB3"/>
<path d="M77.983 136.533C82.7622 136.533 86.3298 135.653 88.5873 133.919C90.8206 132.202 92.3635 129.228 93.1716 125.079C93.9255 121.201 93.6385 118.493 92.3188 117.032C90.9689 115.54 88.0511 114.783 83.6461 114.783H76.0085L71.7746 136.533H77.983ZM53.0022 163.325C52.6477 163.325 52.311 163.167 52.0856 162.894C51.8598 162.62 51.7683 162.26 51.8361 161.913L63.0574 104.274C63.1659 103.717 63.6551 103.315 64.2241 103.315H88.4089C96.0096 103.315 101.667 105.375 105.223 109.439C108.798 113.525 109.902 119.235 108.504 126.413C107.935 129.337 106.957 132.052 105.596 134.483C104.234 136.917 102.433 139.17 100.244 141.179C97.6236 143.627 94.6575 145.403 91.4362 146.448C88.2656 147.479 84.1947 148.001 79.3352 148.001H69.5422L66.7458 162.365C66.6372 162.923 66.1485 163.325 65.5794 163.325H53.0022Z" fill="black"/>
<path d="M76.9888 115.969H83.6467C88.963 115.969 90.8097 117.134 91.4372 117.828C92.4781 118.98 92.6748 121.41 92.0053 124.854C91.2538 128.71 89.8601 131.444 87.8627 132.979C85.8179 134.55 82.494 135.347 77.9831 135.347H73.2163L76.9888 115.969ZM88.409 102.128H64.2238C63.0863 102.128 62.1082 102.934 61.8912 104.048L50.6698 161.687C50.5344 162.383 50.7174 163.102 51.1685 163.648C51.6201 164.196 52.2927 164.512 53.0026 164.512H65.5795C66.7176 164.512 67.6956 163.707 67.9128 162.592L70.5221 149.188H79.3357C84.3198 149.188 88.5153 148.646 91.805 147.575C95.1883 146.478 98.3009 144.618 101.056 142.046C103.335 139.953 105.212 137.604 106.634 135.063C108.056 132.521 109.078 129.687 109.671 126.639C111.143 119.084 109.947 113.034 106.118 108.659C102.327 104.326 96.3679 102.128 88.409 102.128ZM70.3327 137.72H77.9831C83.0539 137.72 86.831 136.766 89.3125 134.859C91.795 132.951 93.4688 129.768 94.3386 125.306C95.1709 121.022 94.7917 117.999 93.2014 116.238C91.6092 114.478 88.4245 113.597 83.6467 113.597H75.0293L70.3327 137.72ZM88.409 104.501C95.6848 104.501 100.992 106.407 104.329 110.22C107.664 114.033 108.669 119.354 107.338 126.187C106.79 129.001 105.863 131.574 104.559 133.906C103.253 136.238 101.548 138.371 99.4404 140.306C96.9287 142.652 94.1392 144.324 91.0689 145.319C87.9992 146.318 84.0889 146.815 79.3357 146.815H68.5626L65.5795 162.139H53.0026L64.2238 104.501H88.409Z" fill="white"/>
<path d="M137.342 148.002C136.987 148.002 136.651 147.843 136.425 147.57C136.199 147.297 136.108 146.937 136.175 146.589L141.139 121.086C141.611 118.661 141.495 116.92 140.812 116.185C140.393 115.735 139.137 114.981 135.421 114.981H126.429L120.188 147.042C120.079 147.599 119.59 148.002 119.021 148.002H106.543C106.189 148.002 105.852 147.843 105.626 147.57C105.401 147.297 105.309 146.937 105.377 146.589L116.598 88.9507C116.707 88.3935 117.196 87.991 117.765 87.991H130.242C130.597 87.991 130.934 88.1491 131.16 88.4224C131.386 88.696 131.477 89.0555 131.409 89.4035L128.701 103.315H138.375C145.745 103.315 150.743 104.612 153.653 107.281C156.62 110.003 157.546 114.356 156.405 120.22L151.184 147.042C151.076 147.599 150.587 148.002 150.018 148.002H137.342Z" fill="black"/>
<path d="M130.242 86.8042H117.764C116.626 86.8042 115.648 87.6094 115.431 88.7241L104.21 146.363C104.074 147.058 104.257 147.777 104.709 148.324C105.161 148.871 105.833 149.188 106.543 149.188H119.021C120.158 149.188 121.137 148.382 121.354 147.268L127.408 116.167H135.421C139.13 116.167 139.908 116.958 139.939 116.992C140.164 117.234 140.46 118.352 139.972 120.86L135.008 146.363C134.872 147.058 135.056 147.777 135.507 148.324C135.959 148.871 136.632 149.188 137.341 149.188H150.017C151.155 149.188 152.133 148.382 152.35 147.268L157.571 120.446C158.796 114.15 157.748 109.427 154.457 106.407C151.316 103.528 146.056 102.128 138.375 102.128H130.142L132.575 89.6298C132.71 88.9341 132.528 88.2144 132.076 87.6679C131.624 87.121 130.952 86.8042 130.242 86.8042ZM130.242 89.177L127.259 104.501H138.375C145.369 104.501 150.193 105.72 152.849 108.154C155.504 110.59 156.299 114.537 155.238 119.993L150.017 146.815H137.341L142.305 121.313C142.87 118.411 142.662 116.433 141.681 115.378C140.7 114.323 138.613 113.794 135.421 113.794H125.448L119.021 146.815H106.543L117.764 89.177H130.242Z" fill="white"/>
<path d="M176.148 136.533C180.927 136.533 184.495 135.653 186.753 133.919C188.986 132.203 190.529 129.228 191.338 125.079C192.092 121.201 191.804 118.493 190.484 117.032C189.135 115.54 186.217 114.783 181.812 114.783H174.174L169.94 136.533H176.148ZM151.168 163.325C150.813 163.325 150.477 163.167 150.251 162.894C150.026 162.62 149.934 162.26 150.002 161.913L161.223 104.274C161.332 103.717 161.821 103.315 162.39 103.315H186.574C194.176 103.315 199.832 105.375 203.389 109.439C206.964 113.524 208.067 119.235 206.67 126.413C206.1 129.337 205.122 132.052 203.761 134.483C202.399 136.917 200.599 139.17 198.409 141.179C195.789 143.627 192.823 145.403 189.601 146.448C186.431 147.479 182.36 148.001 177.501 148.001H167.707L164.912 162.365C164.803 162.923 164.314 163.325 163.745 163.325H151.168Z" fill="black"/>
<path d="M175.153 115.969H181.811C187.128 115.969 188.974 117.134 189.602 117.828C190.643 118.98 190.84 121.41 190.17 124.854C189.418 128.71 188.024 131.444 186.028 132.979C183.983 134.55 180.659 135.347 176.148 135.347H171.381L175.153 115.969ZM186.574 102.128H162.389C161.251 102.128 160.273 102.934 160.056 104.048L148.835 161.687C148.699 162.383 148.882 163.102 149.334 163.648C149.785 164.196 150.458 164.512 151.168 164.512H163.745C164.882 164.512 165.861 163.707 166.078 162.592L168.687 149.188H177.5C182.484 149.188 186.68 148.646 189.97 147.575C193.353 146.478 196.466 144.617 199.222 142.045C201.5 139.952 203.376 137.604 204.798 135.063C206.221 132.521 207.243 129.687 207.835 126.639C209.307 119.084 208.112 113.034 204.283 108.659C200.491 104.326 194.533 102.128 186.574 102.128ZM168.498 137.72H176.148C181.218 137.72 184.996 136.766 187.478 134.859C189.96 132.951 191.633 129.768 192.504 125.306C193.336 121.022 192.957 117.999 191.366 116.238C189.774 114.478 186.589 113.597 181.811 113.597H173.194L168.498 137.72ZM186.574 104.501C193.849 104.501 199.157 106.407 202.493 110.22C205.829 114.033 206.833 119.354 205.503 126.187C204.955 129.001 204.028 131.574 202.724 133.906C201.418 136.238 199.712 138.371 197.605 140.306C195.094 142.652 192.304 144.324 189.234 145.319C186.164 146.318 182.254 146.815 177.5 146.815H166.727L163.745 162.139H151.168L162.389 104.501H186.574Z" fill="white"/>
</g>
<defs>
<radialGradient id="paint0_radial_818_1426" cx="0" cy="0" r="1" gradientUnits="userSpaceOnUse" gradientTransform="translate(84.2362 92.6372) scale(143.815 143.574)">
<stop stop-color="#AEB2D5"/>
<stop offset="0.3" stop-color="#AEB2D5"/>
<stop offset="0.75" stop-color="#484C89"/>
<stop offset="1" stop-color="#484C89"/>
</radialGradient>
<clipPath id="clip0_818_1426">
<rect width="219.04" height="118.647" fill="white" transform="translate(18.48 68.8)"/>
</clipPath>
</defs>
</svg>
