<svg width="48" height="48" viewBox="0 0 48 48" fill="none" xmlns="http://www.w3.org/2000/svg">
<path d="M23.4552 0.000392611C21.4975 0.00948873 19.628 0.176446 17.9831 0.46752C13.1373 1.32362 12.2574 3.11551 12.2574 6.42006V10.7844H23.7087V12.2391H12.2574H7.95987C4.6318 12.2391 1.71765 14.2395 0.806144 18.0449C-0.24527 22.4067 -0.291906 25.1286 0.806144 29.683C1.62014 33.0732 3.56408 35.4887 6.89215 35.4887H10.8294V30.2569C10.8294 26.4772 14.0996 23.1432 17.9831 23.1432H29.421C32.605 23.1432 35.1467 20.5217 35.1467 17.3242V6.42006C35.1467 3.31669 32.5287 0.98546 29.421 0.46752C27.4539 0.140061 25.4128 -0.00870364 23.4552 0.000392611ZM17.2624 3.51052C18.4452 3.51052 19.4112 4.49225 19.4112 5.69935C19.4112 6.90217 18.4452 7.87483 17.2624 7.87483C16.0753 7.87483 15.1136 6.90217 15.1136 5.69935C15.1136 4.49225 16.0753 3.51052 17.2624 3.51052Z" fill="url(#paint0_linear_303_66)"/>
<path d="M36.5748 12.239V17.324C36.5748 21.2664 33.2324 24.5845 29.421 24.5845H17.9831C14.85 24.5845 12.2574 27.266 12.2574 30.4036V41.3077C12.2574 44.4111 14.956 46.2364 17.9831 47.1268C21.6079 48.1926 25.084 48.3852 29.421 47.1268C32.304 46.2921 35.1467 44.6122 35.1467 41.3077V36.9434H23.7087V35.4886H35.1467H40.8723C44.2004 35.4886 45.4406 33.1672 46.598 29.6829C47.7935 26.0958 47.7427 22.6463 46.598 18.0447C45.7755 14.7316 44.2046 12.239 40.8723 12.239H36.5748ZM30.1418 39.8529C31.3288 39.8529 32.2905 40.8256 32.2905 42.0284C32.2905 43.2355 31.3288 44.2172 30.1418 44.2172C28.9589 44.2172 27.993 43.2355 27.993 42.0284C27.993 40.8256 28.9589 39.8529 30.1418 39.8529Z" fill="url(#paint1_linear_303_66)"/>
<defs>
<linearGradient id="paint0_linear_303_66" x1="-1.42598e-07" y1="-1.23871e-07" x2="26.4054" y2="22.5011" gradientUnits="userSpaceOnUse">
<stop stop-color="#5A9FD4"/>
<stop offset="1" stop-color="#306998"/>
</linearGradient>
<linearGradient id="paint1_linear_303_66" x1="29.8666" y1="41.6615" x2="20.3933" y2="28.3866" gradientUnits="userSpaceOnUse">
<stop stop-color="#FFD43B"/>
<stop offset="1" stop-color="#FFE873"/>
</linearGradient>
</defs>
</svg>
