<svg width="48" height="43" viewBox="0 0 48 43" fill="none" xmlns="http://www.w3.org/2000/svg">
<g clip-path="url(#clip0_303_8)">
<path d="M23.9999 25.6315C26.3628 25.6315 28.2782 23.716 28.2782 21.3532C28.2782 18.9904 26.3628 17.075 23.9999 17.075C21.6371 17.075 19.7217 18.9904 19.7217 21.3532C19.7217 23.716 21.6371 25.6315 23.9999 25.6315Z" fill="#61DAFB"/>
<path d="M24 30.1183C36.6785 30.1183 46.9565 26.194 46.9565 21.3531C46.9565 16.5122 36.6785 12.5879 24 12.5879C11.3214 12.5879 1.04346 16.5122 1.04346 21.3531C1.04346 26.194 11.3214 30.1183 24 30.1183Z" stroke="#61DAFB" stroke-width="3"/>
<path d="M16.4091 25.7357C22.7484 36.7157 31.2859 43.6545 35.4783 41.2341C39.6706 38.8136 37.9302 27.9505 31.5909 16.9705C25.2517 5.99059 16.7141 -0.94824 12.5218 1.47221C8.32943 3.89266 10.0699 14.7558 16.4091 25.7357Z" stroke="#61DAFB" stroke-width="3"/>
<path d="M16.409 16.9706C10.0698 27.9505 8.32933 38.8137 12.5217 41.2341C16.714 43.6546 25.2516 36.7157 31.5908 25.7358C37.9301 14.7559 39.6705 3.8927 35.4782 1.47225C31.2859 -0.948198 22.7483 5.99064 16.409 16.9706Z" stroke="#61DAFB" stroke-width="3"/>
</g>
<defs>
<clipPath id="clip0_303_8">
<rect width="48" height="42.7064" fill="white"/>
</clipPath>
</defs>
</svg>
