<svg width="48" height="34" viewBox="0 0 48 34" fill="none" xmlns="http://www.w3.org/2000/svg">
<g clip-path="url(#clip0_314_433)">
<mask id="mask0_314_433" style="mask-type:luminance" maskUnits="userSpaceOnUse" x="0" y="0" width="48" height="34">
<path d="M0.0105438 0.0878906H47.8347V33.4945H0.0105438V0.0878906Z" fill="#00A1E0"/>
</mask>
<g mask="url(#mask0_314_433)">
<path fill-rule="evenodd" clip-rule="evenodd" d="M19.8681 3.74492C21.4119 2.13789 23.5604 1.14273 25.9341 1.14273C29.0989 1.14273 31.8418 2.90097 33.3187 5.52075C34.6297 4.93468 36.0497 4.63211 37.4857 4.63284C43.1824 4.63284 47.8066 9.29218 47.8066 15.0416C47.8066 20.7911 43.1824 25.4504 37.4857 25.4504C36.7894 25.4504 36.1108 25.3804 35.4461 25.2482C34.1538 27.5515 31.6835 29.1164 28.8703 29.1164C27.725 29.1186 26.5943 28.8588 25.5648 28.3568C24.2549 31.4337 21.2044 33.5964 17.6527 33.5964C13.9428 33.5964 10.7956 31.2579 9.58241 27.97C9.04245 28.0839 8.49207 28.1412 7.94021 28.1409C3.52703 28.1409 -0.0422058 24.5189 -0.0422058 20.0705C-0.0422058 17.0815 1.56483 14.4793 3.949 13.0727C3.4432 11.9076 3.18284 10.6507 3.18417 9.38044C3.18417 4.24637 7.3512 0.0969238 12.4853 0.0969238C15.4919 0.0969238 18.182 1.52989 19.8699 3.75407" fill="#00A1E0"/>
</g>
<path fill-rule="evenodd" clip-rule="evenodd" d="M6.92747 17.4593C6.8974 17.5377 6.93819 17.5541 6.94786 17.568C7.03771 17.633 7.12896 17.6802 7.22039 17.7331C7.70918 17.9915 8.16984 18.0671 8.6516 18.0671C9.6327 18.0671 10.2428 17.545 10.2428 16.7045V16.688C10.2428 15.9108 9.55358 15.6278 8.91006 15.4256L8.82584 15.3983C8.33881 15.2404 7.91859 15.1029 7.91859 14.7829V14.7666C7.91859 14.4923 8.16474 14.2901 8.54452 14.2901C8.9665 14.2901 9.46936 14.4306 9.79112 14.6083C9.79112 14.6083 9.88641 14.6699 9.92105 14.5779C9.93986 14.5282 10.1039 14.0891 10.1215 14.0399C10.1401 13.9884 10.1074 13.9495 10.0738 13.9295C9.70461 13.7044 9.19472 13.5515 8.66725 13.5515L8.56932 13.5518C7.67085 13.5518 7.04316 14.0951 7.04316 14.8722V14.8889C7.04316 15.7083 7.73591 15.9755 8.38294 16.1602L8.48703 16.1925C8.95824 16.3374 9.36615 16.4633 9.36615 16.7938V16.8104C9.36615 17.1145 9.10066 17.3413 8.67516 17.3413C8.50971 17.3413 7.98241 17.3385 7.41099 16.9774C7.34189 16.9371 7.3025 16.9081 7.24923 16.8756C7.2211 16.8585 7.15077 16.8278 7.12017 16.9199L6.92677 17.4579M21.2916 17.4579C21.2615 17.5363 21.3023 17.5527 21.3123 17.5666C21.4018 17.6316 21.4934 17.6788 21.5849 17.7317C22.0737 17.9901 22.5343 18.0657 23.0161 18.0657C23.9972 18.0657 24.6073 17.5435 24.6073 16.7031V16.6866C24.6073 15.9094 23.9198 15.6264 23.2745 15.4242L23.1903 15.3969C22.7033 15.239 22.2831 15.1015 22.2831 14.7815V14.7652C22.2831 14.4909 22.5292 14.2887 22.909 14.2887C23.331 14.2887 23.8321 14.4292 24.1556 14.6069C24.1556 14.6069 24.2509 14.6685 24.2857 14.5765C24.3043 14.5268 24.4686 14.0877 24.4844 14.0385C24.5032 13.987 24.4703 13.9481 24.4369 13.9281C24.0677 13.703 23.5578 13.55 23.0303 13.55L22.9322 13.5504C22.0338 13.5504 21.4061 14.0937 21.4061 14.8708V14.8875C21.4061 15.7069 22.0988 15.9741 22.7458 16.1588L22.8498 16.1911C23.3227 16.336 23.7289 16.4619 23.7289 16.7924V16.8089C23.7289 17.1131 23.4634 17.3399 23.0379 17.3399C22.8721 17.3399 22.3434 17.3371 21.7737 16.976C21.7046 16.9357 21.6642 16.9079 21.6118 16.8742C21.594 16.8629 21.5112 16.8306 21.4829 16.9185L21.2895 17.4565M31.1005 15.8108C31.1005 16.2855 31.0119 16.66 30.8385 16.9255C30.6655 17.1875 30.4042 17.3159 30.0403 17.3159C29.6763 17.3159 29.4161 17.1886 29.2455 16.9273C29.0738 16.6635 28.9871 16.2873 28.9871 15.8126C28.9871 15.3378 29.0743 14.9651 29.2455 14.7031C29.4157 14.4429 29.6745 14.318 30.0403 14.318C30.406 14.318 30.6662 14.4441 30.8385 14.7031C31.0129 14.9651 31.1005 15.3378 31.1005 15.8126M31.9198 14.9317C31.8391 14.6591 31.7141 14.42 31.5471 14.2196C31.3799 14.0191 31.1691 13.8574 30.9176 13.7413C30.668 13.6244 30.3726 13.5655 30.0385 13.5655C29.7044 13.5655 29.4108 13.6248 29.1594 13.7413C28.9097 13.8581 28.697 14.0191 28.5299 14.2196C28.3632 14.42 28.2381 14.6591 28.1572 14.9317C28.0772 15.2024 28.0366 15.4978 28.0366 15.8126C28.0366 16.1273 28.0772 16.4227 28.1572 16.6934C28.2375 16.966 28.3629 17.2051 28.5299 17.4055C28.6971 17.606 28.9097 17.766 29.1594 17.8802C29.4108 17.9942 29.7062 18.0522 30.0385 18.0522C30.3708 18.0522 30.6662 17.9942 30.9159 17.8802C31.1655 17.7663 31.3783 17.606 31.5453 17.4055C31.7122 17.2051 31.8372 16.966 31.9181 16.6934C31.9979 16.4227 32.0385 16.1273 32.0385 15.8126C32.0385 15.4996 31.9979 15.2024 31.9181 14.9317M38.6521 17.1822C38.6252 17.1026 38.5475 17.1326 38.5475 17.1326C38.4285 17.1782 38.3014 17.2204 38.166 17.2415C38.0295 17.2629 37.8776 17.2737 37.7176 17.2737C37.322 17.2737 37.0055 17.1557 36.7805 16.922C36.5537 16.6882 36.4271 16.3119 36.4288 15.802C36.4301 15.3378 36.5422 14.9897 36.7436 14.7224C36.9422 14.4587 37.2482 14.3216 37.6526 14.3216C37.9902 14.3216 38.2486 14.3608 38.5194 14.4455C38.5194 14.4455 38.5836 14.4735 38.6143 14.3889C38.6862 14.1902 38.7393 14.0478 38.8165 13.8298C38.8383 13.7674 38.7849 13.741 38.7654 13.7334C38.6592 13.6919 38.4084 13.6239 38.2185 13.5952C38.041 13.5682 37.8352 13.5541 37.6032 13.5541C37.2585 13.5541 36.9526 13.613 36.6906 13.7297C36.4287 13.8463 36.2071 14.0075 36.0313 14.208C35.8555 14.4084 35.7218 14.6475 35.6322 14.9201C35.5434 15.1908 35.4985 15.488 35.4985 15.8027C35.4985 16.4814 35.6814 17.0317 36.0436 17.4344C36.4058 17.8388 36.9509 18.0427 37.6612 18.0427C38.0814 18.0427 38.5122 17.9578 38.8216 17.8352C38.8216 17.8352 38.8807 17.8068 38.855 17.7378L38.6528 17.1822M40.0858 15.3537C40.125 15.0899 40.1973 14.8701 40.3109 14.6996C40.4809 14.4394 40.7399 14.297 41.1038 14.297C41.4678 14.297 41.7087 14.4401 41.881 14.6996C41.9952 14.871 42.0452 15.0987 42.0638 15.3537L40.077 15.3533L40.0858 15.3537ZM42.8462 14.7734C42.7764 14.5115 42.6036 14.246 42.4911 14.1246C42.3117 13.933 42.1377 13.7976 41.9636 13.7238C41.7123 13.6169 41.442 13.5621 41.1689 13.5625C40.8225 13.5625 40.5078 13.6211 40.2528 13.7401C39.9979 13.86 39.7834 14.0232 39.6146 14.2271C39.446 14.4311 39.3192 14.672 39.2383 14.948C39.1574 15.2206 39.1167 15.5195 39.1167 15.8324C39.1167 16.1524 39.159 16.4496 39.2424 16.7186C39.3266 16.9893 39.4622 17.2267 39.645 17.4236C39.8279 17.6223 40.0617 17.777 40.343 17.886C40.6226 17.9942 40.9619 18.0503 41.3505 18.049C42.1523 18.0464 42.5742 17.8679 42.7465 17.7712C42.7773 17.754 42.8063 17.7243 42.7701 17.6387L42.589 17.1305C42.5612 17.0548 42.4846 17.0822 42.4846 17.0822C42.2859 17.1564 42.0046 17.2897 41.3452 17.2879C40.9145 17.2872 40.5962 17.1601 40.3958 16.9609C40.1918 16.7569 40.0898 16.4598 40.074 16.0378L42.852 16.0399C42.852 16.0399 42.9252 16.0392 42.9327 15.9678C42.9357 15.9383 43.0279 15.3981 42.8499 14.774L42.8462 14.7734ZM17.8792 15.3537C17.9184 15.0899 17.9909 14.8701 18.1043 14.6996C18.2745 14.4394 18.5333 14.297 18.8972 14.297C19.2612 14.297 19.5021 14.4401 19.6744 14.6996C19.7885 14.871 19.8384 15.0987 19.8572 15.3537L17.8704 15.3533L17.8792 15.3537ZM20.6396 14.7734C20.57 14.5115 20.397 14.246 20.2845 14.1246C20.1051 13.933 19.9311 13.7976 19.757 13.7238C19.5057 13.6169 19.2354 13.5621 18.9623 13.5625C18.6159 13.5625 18.3012 13.6211 18.0462 13.7401C17.7913 13.86 17.5768 14.0232 17.408 14.2271C17.2397 14.4311 17.1126 14.672 17.0317 14.948C16.951 15.2206 16.9104 15.5195 16.9104 15.8324C16.9104 16.1524 16.9524 16.4496 17.0363 16.7186C17.1203 16.9893 17.2561 17.2267 17.4372 17.4236C17.62 17.6223 17.8539 17.777 18.1352 17.886C18.4148 17.9942 18.7523 18.0503 19.1427 18.049C19.9444 18.0464 20.3664 17.8679 20.5387 17.7712C20.5693 17.754 20.5985 17.7243 20.5621 17.6387L20.381 17.1305C20.3531 17.0548 20.2764 17.0822 20.2764 17.0822C20.0777 17.1564 19.7964 17.2897 19.1371 17.2879C18.708 17.2872 18.388 17.1601 18.1876 16.9609C17.9836 16.7569 17.8817 16.4598 17.8658 16.0378L20.6439 16.0399C20.6439 16.0399 20.717 16.0392 20.7246 15.9678C20.7276 15.9383 20.8197 15.3981 20.6416 14.774L20.6396 14.7734ZM11.8836 17.1646C11.7748 17.0778 11.7596 17.0565 11.7236 17.0001C11.6686 16.9151 11.6404 16.7944 11.6404 16.6396C11.6404 16.397 11.7213 16.2212 11.8883 16.1034C11.8866 16.1037 12.1275 15.8959 12.6936 15.9029C12.9456 15.9074 13.197 15.9289 13.4462 15.9671V17.2278H13.4465C13.4465 17.2278 13.0949 17.3035 12.6975 17.3275C12.1331 17.3614 11.8834 17.165 11.8852 17.1655L11.8836 17.1646ZM12.9878 15.213C12.8752 15.2047 12.7293 15.2007 12.5552 15.2007C12.3179 15.2007 12.0876 15.2302 11.8731 15.2882C11.6568 15.3466 11.4616 15.437 11.2946 15.5573C11.1271 15.6767 10.9893 15.8332 10.892 16.0144C10.7937 16.1973 10.7436 16.4118 10.7436 16.6544C10.7436 16.9006 10.7863 17.1133 10.8707 17.2874C10.9534 17.46 11.0779 17.6093 11.2329 17.7217C11.3871 17.8338 11.5775 17.9168 11.7973 17.966C12.0153 18.0158 12.2614 18.0409 12.5322 18.0409C12.8171 18.0409 13.1001 18.017 13.3744 17.9708C13.608 17.9305 13.8408 17.8852 14.0724 17.8351C14.1649 17.8138 14.2676 17.7858 14.2676 17.7858C14.3362 17.7684 14.3309 17.6951 14.3309 17.6951L14.3293 15.1632C14.3293 14.6076 14.1809 14.1944 13.888 13.9395C13.5961 13.6846 13.1689 13.5562 12.615 13.5562C12.4076 13.5562 12.0717 13.5843 11.8713 13.6246C11.8713 13.6246 11.2665 13.742 11.0168 13.9376C11.0168 13.9376 10.9619 13.9713 10.9918 14.0478L11.1887 14.5753C11.2132 14.6437 11.2798 14.6203 11.2798 14.6203C11.2798 14.6203 11.3007 14.612 11.3254 14.5974C11.8581 14.3073 12.5333 14.3161 12.5333 14.3161C12.8322 14.3161 13.0643 14.3768 13.219 14.4955C13.3704 14.6117 13.4476 14.7873 13.4476 15.1566V15.2738C13.2102 15.2394 12.9904 15.2195 12.9904 15.2195L12.9878 15.213ZM35.3174 13.7835C35.3214 13.7743 35.3235 13.7643 35.3236 13.7542C35.3237 13.7441 35.3217 13.7341 35.3178 13.7248C35.3139 13.7155 35.3082 13.707 35.301 13.7C35.2937 13.6929 35.2852 13.6874 35.2758 13.6837C35.2285 13.6657 34.9927 13.616 34.8116 13.6047C34.4635 13.5829 34.2701 13.6417 34.096 13.7197C33.924 13.7973 33.7338 13.9219 33.6283 14.0661L33.628 13.7285C33.628 13.6821 33.5951 13.6446 33.5483 13.6446H32.838C32.7919 13.6446 32.7585 13.6821 32.7585 13.7285V17.8604C32.7585 17.8827 32.7674 17.9041 32.7832 17.9199C32.799 17.9357 32.8204 17.9446 32.8427 17.9446H33.5706C33.5929 17.9446 33.6143 17.9357 33.6301 17.9199C33.6458 17.9041 33.6547 17.8827 33.6547 17.8604V15.7857C33.6547 15.5079 33.6853 15.2318 33.7463 15.0577C33.8064 14.8856 33.8882 14.7483 33.9889 14.6498C34.085 14.5547 34.2026 14.4842 34.3318 14.4441C34.453 14.4093 34.5784 14.3917 34.7045 14.3917C34.8496 14.3917 35.0087 14.429 35.0087 14.429C35.0621 14.435 35.0919 14.4023 35.11 14.3541C35.1576 14.2273 35.2928 13.8477 35.3192 13.7721" fill="#FFFFFE"/>
<path fill-rule="evenodd" clip-rule="evenodd" d="M28.5189 11.8766C28.4289 11.8494 28.3373 11.8277 28.2447 11.8115C28.1202 11.7907 27.994 11.781 27.8678 11.7824C27.3662 11.7824 26.9707 11.9241 26.6931 12.204C26.4174 12.4818 26.2298 12.905 26.1357 13.4618L26.1018 13.6498H25.4722C25.4722 13.6498 25.3953 13.6466 25.3792 13.7305L25.2758 14.3072C25.2686 14.3624 25.2923 14.3969 25.3662 14.3965H25.9791L25.3572 17.8678C25.3085 18.1474 25.2527 18.3773 25.191 18.5516C25.1302 18.7235 25.0708 18.8524 24.9976 18.946C24.9268 19.0365 24.8596 19.1031 24.7437 19.142C24.6481 19.1742 24.538 19.1889 24.4174 19.1889C24.3502 19.1889 24.2609 19.1777 24.195 19.1645C24.1291 19.1515 24.0948 19.1367 24.0454 19.116C24.0454 19.116 23.9735 19.0886 23.9451 19.1606C23.9221 19.2195 23.7588 19.6688 23.7394 19.7243C23.7197 19.7792 23.7473 19.8224 23.7822 19.8349C23.8637 19.8641 23.9244 19.8827 24.0355 19.9089C24.1899 19.9453 24.32 19.9476 24.4418 19.9476C24.6971 19.9476 24.9298 19.9118 25.1226 19.8421C25.3167 19.772 25.4857 19.6498 25.6352 19.4843C25.7967 19.3059 25.8984 19.119 25.9956 18.864C26.0918 18.6114 26.1737 18.2977 26.2393 17.9322L26.8642 14.3965H27.7778C27.7778 14.3965 27.8548 14.3993 27.8708 14.3158L27.9742 13.7391C27.9814 13.6839 27.9578 13.6494 27.8836 13.6498H26.9969C27.0013 13.6297 27.0416 13.3178 27.1434 13.0242C27.1868 12.8988 27.2686 12.7977 27.3378 12.7283C27.4025 12.6621 27.4822 12.6126 27.5701 12.5838C27.6665 12.554 27.7669 12.5395 27.8678 12.5409C27.9513 12.5409 28.0332 12.5509 28.0956 12.5639C28.1816 12.5822 28.215 12.5918 28.2375 12.5985C28.3279 12.6261 28.34 12.5994 28.3578 12.5556L28.5698 11.9733C28.5916 11.9107 28.5386 11.8843 28.5189 11.8766ZM16.1278 17.8752C16.1278 17.9216 16.0948 17.9594 16.0484 17.9594H15.3129C15.2663 17.9594 15.2332 17.9216 15.2332 17.8752V11.9555C15.2332 11.9093 15.2663 11.8718 15.3129 11.8718H16.0484C16.0948 11.8718 16.1278 11.9093 16.1278 11.9555V17.8752Z" fill="#FFFFFE"/>
</g>
<defs>
<clipPath id="clip0_314_433">
<rect width="48" height="33.5824" fill="white"/>
</clipPath>
</defs>
</svg>
