<svg width="64" height="58" viewBox="0 0 64 58" fill="none" xmlns="http://www.w3.org/2000/svg">
<path fill-rule="evenodd" clip-rule="evenodd" d="M32.189 0.00856524C25.7529 -0.0048637 19.4611 1.91545 14.1294 5.52057C8.79765 9.12568 4.67184 14.2493 2.28685 20.2273C-0.0981503 26.2052 -0.632354 32.7618 0.753485 39.047C2.13932 45.3322 5.38129 51.0561 10.0591 55.4768C11.1563 56.5216 12.5913 57.1391 14.1043 57.2177C15.6173 57.2962 17.1085 56.8306 18.308 55.9051C22.2656 52.9599 27.0674 51.3693 32.0006 51.3693C36.9338 51.3693 41.7355 52.9599 45.6931 55.9051C46.9041 56.8327 48.4082 57.2942 49.9311 57.2054C51.454 57.1165 52.8942 56.4833 53.9891 55.4211C58.6303 51.0169 61.8505 45.3269 63.2369 39.0806C64.6232 32.8343 64.1127 26.3163 61.7705 20.3621C59.4284 14.4079 55.3615 9.28881 50.0911 5.66099C44.8207 2.03317 38.587 0.0619468 32.189 0M32.0006 48.153C29.8852 48.2102 27.7804 47.8358 25.8145 47.0526C23.8486 46.2694 22.0629 45.0939 20.5664 43.5978C19.0699 42.1016 17.8939 40.3162 17.1102 38.3506C16.3265 36.3849 15.9515 34.2802 16.0081 32.1648C16.0081 27.9233 17.693 23.8556 20.6922 20.8564C23.6914 17.8573 27.7591 16.1723 32.0006 16.1723C36.242 16.1723 40.3098 17.8573 43.3089 20.8564C46.3081 23.8556 47.993 27.9233 47.993 32.1648C48.0497 34.2802 47.6747 36.3849 46.891 38.3506C46.1073 40.3162 44.9313 42.1016 43.4347 43.5978C41.9382 45.0939 40.1525 46.2694 38.1866 47.0526C36.2207 47.8358 34.1159 48.2102 32.0006 48.153Z" fill="#62D84E"/>
</svg>
