<svg width="256" height="256" viewBox="0 0 256 256" fill="none" xmlns="http://www.w3.org/2000/svg">
<path fill-rule="evenodd" clip-rule="evenodd" d="M45.1673 67.6351C39.1711 67.6351 33.5244 65.295 29.2843 61.0549C25.0447 56.8153 22.7046 51.166 22.7046 45.1702C22.7046 32.7838 32.7809 22.7075 45.1673 22.7075C57.5546 22.7075 67.6322 32.7825 67.6322 45.1702C67.6322 57.558 57.555 67.6351 45.1673 67.6351ZM187.406 45.1702C187.406 32.7846 197.483 22.7075 209.869 22.7075C222.257 22.7075 232.334 32.7816 232.334 45.1702C232.334 57.5588 222.257 67.6351 209.869 67.6351C203.873 67.6351 198.225 65.2945 193.986 61.0549C189.745 56.8149 187.406 51.1673 187.406 45.1702ZM127.52 48.9637C120.279 48.9637 114.392 43.0765 114.392 35.8358C114.392 32.3333 115.759 29.0289 118.236 26.5518C120.713 24.0748 124.015 22.7075 127.518 22.7075H127.52C134.759 22.7075 140.648 28.5964 140.648 35.8358C140.648 43.0757 134.76 48.9637 127.52 48.9637ZM48.9629 127.521C48.9629 134.761 43.0745 140.649 35.8346 140.649C28.5939 140.649 22.7046 134.762 22.7046 127.521C22.7046 124.018 24.074 120.714 26.5511 118.237C29.0277 115.761 32.3304 114.393 35.8329 114.393H35.835C43.0745 114.393 48.9629 120.281 48.9629 127.521ZM103.427 98.5792C100.957 97.8917 93.8644 95.6448 93.1927 92.5479L93.1439 92.3237V91.8767L93.1863 91.6675C93.822 88.5158 100.932 86.2681 103.426 85.5733C111.013 83.4599 119.666 82.751 127.52 82.751C135.374 82.751 144.027 83.4599 151.613 85.5733C154.073 86.2586 161.223 88.5205 161.851 91.6371L161.934 92.0439L161.857 92.4521C161.265 95.626 154.1 97.8866 151.613 98.5792C144.026 100.691 135.374 101.401 127.52 101.401C119.665 101.401 111.014 100.692 103.427 98.5792ZM206.073 127.521C206.073 124.02 207.446 120.715 209.921 118.239C212.398 115.763 215.7 114.393 219.203 114.393C226.444 114.393 232.333 120.28 232.333 127.521C232.333 134.763 226.445 140.649 219.203 140.649C211.964 140.649 206.073 134.761 206.073 127.521ZM232.334 209.869C232.334 222.259 222.258 232.332 209.869 232.332C203.874 232.332 198.226 229.994 193.986 225.757C189.745 221.518 187.406 215.87 187.406 209.874C187.406 197.487 197.482 187.409 209.869 187.409C222.256 187.408 232.334 197.482 232.334 209.869ZM140.648 219.208C140.648 226.446 134.758 232.332 127.52 232.332C120.282 232.332 114.392 226.448 114.392 219.208C114.392 215.704 115.758 212.4 118.237 209.922C120.714 207.446 124.016 206.078 127.52 206.078C134.761 206.078 140.648 211.967 140.648 219.208ZM67.6322 209.869C67.6322 222.259 57.5555 232.332 45.1673 232.332C39.1724 232.332 33.5253 229.995 29.2848 225.757C25.0443 221.518 22.7046 215.869 22.7046 209.874C22.7046 197.486 32.78 187.409 45.1673 187.409C57.5533 187.408 67.6322 197.483 67.6322 209.869ZM123.773 114.286C123.773 112.219 125.453 110.541 127.52 110.541C129.586 110.541 131.265 112.22 131.265 114.286C131.265 116.352 129.586 118.033 127.52 118.033C125.453 118.033 123.773 116.354 123.773 114.286ZM131.265 137.917C131.265 139.983 129.586 141.662 127.52 141.662C125.453 141.662 123.774 139.984 123.774 137.917C123.774 135.849 125.452 134.17 127.52 134.17C129.588 134.17 131.265 135.85 131.265 137.917ZM131.265 161.547C131.265 163.614 129.586 165.29 127.52 165.29C125.454 165.29 123.774 163.615 123.774 161.547C123.774 159.478 125.451 157.8 127.52 157.8C129.588 157.8 131.265 159.479 131.265 161.547Z" fill="#A3D4F7"/>
<path fill-rule="evenodd" clip-rule="evenodd" d="M127.52 163.151C126.632 163.151 125.912 162.433 125.912 161.547C125.912 160.658 126.633 159.939 127.52 159.939C128.405 159.939 129.126 160.657 129.126 161.547C129.126 162.433 128.405 163.151 127.52 163.151ZM127.52 153.522C123.094 153.522 119.495 157.119 119.495 161.547C119.495 165.972 123.094 169.569 127.52 169.569C131.944 169.569 135.543 165.972 135.543 161.547C135.543 157.119 131.944 153.522 127.52 153.522ZM127.52 136.309C128.405 136.309 129.126 137.029 129.126 137.917C129.126 138.802 128.405 139.523 127.52 139.523C126.632 139.523 125.912 138.802 125.912 137.917C125.912 137.029 126.632 136.309 127.52 136.309ZM127.52 145.94C131.944 145.94 135.543 142.343 135.543 137.917C135.543 133.493 131.944 129.892 127.52 129.892C123.094 129.892 119.495 133.493 119.495 137.917C119.495 142.343 123.094 145.94 127.52 145.94ZM127.52 112.68C128.405 112.68 129.126 113.401 129.126 114.286C129.126 115.172 128.405 115.894 127.52 115.894C126.632 115.894 125.912 115.172 125.912 114.286C125.912 113.401 126.632 112.68 127.52 112.68ZM127.52 122.312C131.944 122.312 135.543 118.711 135.543 114.286C135.543 109.862 131.944 106.263 127.52 106.263C123.094 106.263 119.495 109.862 119.495 114.286C119.495 118.711 123.094 122.312 127.52 122.312ZM98.4 109.965C98.9365 108.277 100.742 107.344 102.429 107.879C105.168 108.751 108.402 109.465 112.038 110.004C113.791 110.262 115.001 111.894 114.743 113.647C114.505 115.241 113.137 116.387 111.572 116.387C111.417 116.387 111.257 116.375 111.098 116.351C107.124 115.762 103.55 114.971 100.486 113.996C98.7974 113.457 97.8635 111.654 98.4 109.965ZM140.297 113.647C140.036 111.894 141.249 110.262 143.002 110.003C146.638 109.465 149.87 108.751 152.607 107.879C154.296 107.342 156.102 108.276 156.636 109.965C157.175 111.653 156.242 113.457 154.552 113.996C151.486 114.968 147.917 115.761 143.938 116.35C143.781 116.374 143.622 116.386 143.468 116.386C141.902 116.387 140.533 115.241 140.297 113.647ZM140.297 137.278C140.036 135.524 141.249 133.892 143.002 133.634C146.638 133.093 149.874 132.379 152.607 131.509C154.296 130.973 156.102 131.907 156.636 133.595C157.175 135.284 156.242 137.088 154.552 137.624C151.489 138.599 147.917 139.391 143.938 139.98C143.781 140.005 143.622 140.015 143.468 140.015C141.902 140.015 140.533 138.871 140.297 137.278ZM98.4 133.596C98.9365 131.907 100.742 130.973 102.429 131.51C105.168 132.379 108.401 133.094 112.038 133.634C113.791 133.893 115.001 135.525 114.741 137.278C114.505 138.872 113.137 140.016 111.572 140.016C111.417 140.016 111.257 140.005 111.098 139.981C107.119 139.392 103.55 138.599 100.486 137.625C98.7974 137.088 97.8635 135.284 98.4 133.596ZM156.636 157.222C157.175 158.913 156.242 160.718 154.552 161.257C151.486 162.227 147.917 163.022 143.938 163.609C143.781 163.635 143.622 163.643 143.468 163.643C141.902 163.643 140.533 162.501 140.297 160.906C140.036 159.152 141.249 157.522 143.002 157.26C146.638 156.725 149.87 156.011 152.607 155.14C154.295 154.604 156.101 155.537 156.636 157.222ZM114.743 160.906C114.505 162.502 113.137 163.644 111.572 163.644C111.417 163.644 111.257 163.635 111.098 163.609C107.124 163.022 103.55 162.228 100.486 161.257C98.7974 160.719 97.8635 158.913 98.4 157.226C98.9365 155.538 100.742 154.604 102.429 155.14C105.168 156.012 108.402 156.726 112.038 157.261C113.791 157.522 115.002 159.153 114.743 160.906ZM151.112 167.4C157.987 165.475 159.678 163.406 159.755 162.956V147.357C158.018 148.246 155.926 149.051 153.486 149.765C146.506 151.811 137.284 152.939 127.52 152.939C117.756 152.939 108.531 151.811 101.553 149.765C99.1119 149.051 97.0216 148.246 95.2825 147.357V162.968C95.3591 163.405 97.052 165.475 103.923 167.4C110.271 169.176 118.651 170.152 127.519 170.152C136.388 170.152 144.769 169.176 151.112 167.4ZM95.283 123.728V139.335C95.3595 139.775 97.0524 141.847 103.924 143.767C110.271 145.543 118.651 146.523 127.52 146.523C136.388 146.523 144.769 145.543 151.112 143.767C157.984 141.847 159.678 139.777 159.755 139.325V123.728C158.014 124.616 155.926 125.419 153.486 126.135C146.506 128.183 137.284 129.311 127.52 129.311C117.756 129.311 108.531 128.183 101.553 126.135C99.1119 125.421 97.022 124.616 95.283 123.728ZM95.283 100.039V115.706C95.3595 116.144 97.0524 118.216 103.924 120.139C110.271 121.914 118.651 122.893 127.52 122.893C136.388 122.893 144.769 121.914 151.118 120.139C157.975 118.22 159.674 116.15 159.755 115.697V100.039C152.349 103.876 139.635 105.68 127.52 105.68C115.403 105.68 102.687 103.876 95.283 100.039ZM104.001 87.6337C110.351 85.8643 118.704 84.8902 127.52 84.8902C136.334 84.8902 144.688 85.8647 151.039 87.6337C157.941 89.5563 159.67 91.6402 159.755 92.0599C159.67 92.5138 157.941 94.5977 151.039 96.5185C144.688 98.288 136.334 99.2625 127.52 99.2625C118.704 99.2625 110.351 98.288 104.001 96.5185C97.1127 94.6019 95.3758 92.5219 95.283 92.0941V92.0903C95.3758 91.6304 97.1127 89.5525 104.001 87.6337ZM127.52 78.4726C108.903 78.4726 88.8653 82.7293 88.8653 92.0761V162.968C88.8653 167.418 93.1345 170.925 101.553 173.394C108.531 175.444 117.755 176.567 127.52 176.567C137.284 176.567 146.506 175.444 153.486 173.394C161.901 170.925 166.172 167.418 166.172 162.968V92.0766C166.172 82.7293 146.137 78.4726 127.52 78.4726ZM209.869 189.548C221.078 189.548 230.194 198.665 230.194 209.87C230.194 221.079 221.077 230.193 209.869 230.193C204.44 230.193 199.336 228.081 195.498 224.244C191.657 220.407 189.545 215.302 189.545 209.873C189.545 198.665 198.666 189.548 209.869 189.548ZM127.52 186.707C160.152 186.707 186.702 160.157 186.702 127.523C186.702 94.8864 160.152 68.3368 127.52 68.3368C94.8855 68.3368 68.3338 94.8864 68.3338 127.523C68.3338 160.157 94.8855 186.707 127.52 186.707ZM138.509 219.208C138.509 225.265 133.579 230.193 127.52 230.193C121.46 230.193 116.531 225.264 116.531 219.208C116.531 216.269 117.673 213.509 119.748 211.435C121.824 209.359 124.582 208.217 127.517 208.217H127.519C133.578 208.217 138.509 213.146 138.509 219.208ZM45.1673 230.193C39.7384 230.193 34.6363 228.081 30.7971 224.244C26.9579 220.407 24.8436 215.302 24.8436 209.873C24.8436 198.664 33.9625 189.548 45.1673 189.548C56.3743 189.548 65.4931 198.665 65.4931 209.87C65.4931 221.079 56.3743 230.193 45.1673 230.193ZM45.1673 65.4962C39.7384 65.4962 34.6363 63.3819 30.7971 59.5427C26.9579 55.7035 24.8436 50.5993 24.8436 45.1704C24.8436 33.9634 33.9625 24.8467 45.1673 24.8467C56.3743 24.8467 65.4931 33.9634 65.4931 45.1704C65.4931 56.3773 56.3743 65.4962 45.1673 65.4962ZM116.531 35.8359C116.531 32.9007 117.673 30.1404 119.748 28.0647C121.824 25.989 124.582 24.8471 127.517 24.8471H127.52C133.578 24.8471 138.509 29.7777 138.509 35.8363C138.509 41.8967 133.579 46.8256 127.52 46.8256C121.46 46.8247 116.531 41.8959 116.531 35.8359ZM209.869 24.8467C221.078 24.8467 230.194 33.9634 230.194 45.1704C230.194 56.3773 221.077 65.4962 209.869 65.4962C204.44 65.4962 199.336 63.3819 195.498 59.5427C191.657 55.7035 189.545 50.5993 189.545 45.1704C189.545 33.9634 198.666 24.8467 209.869 24.8467ZM35.8346 138.51C29.7742 138.51 24.8436 133.581 24.8436 127.521C24.8436 124.585 25.9876 121.825 28.0634 119.75C30.1395 117.674 32.8972 116.532 35.8324 116.532H35.8346C41.8928 116.532 46.8238 121.46 46.8238 127.521C46.8238 133.582 41.8932 138.51 35.8346 138.51ZM211.434 119.752C213.51 117.676 216.268 116.532 219.203 116.532C225.266 116.532 230.194 121.463 230.194 127.521C230.194 133.582 225.266 138.51 219.203 138.51C213.145 138.51 208.212 133.582 208.212 127.521C208.212 124.586 209.36 121.826 211.434 119.752ZM193.043 130.729H202.099C203.61 138.801 210.704 144.927 219.203 144.927C228.804 144.927 236.612 137.12 236.612 127.521C236.612 117.924 228.804 110.114 219.203 110.114C214.553 110.114 210.185 111.926 206.895 115.212C204.379 117.73 202.733 120.885 202.095 124.313H193.042C192.282 108.638 185.995 94.3902 176.098 83.4818L193.368 66.2102C198.056 69.9022 203.806 71.9133 209.868 71.9133C224.616 71.9133 236.612 59.9153 236.612 45.1678C236.612 30.4241 224.616 18.4282 209.868 18.4282C195.122 18.4282 183.127 30.4241 183.127 45.1695C183.127 51.232 185.136 56.9818 188.834 61.6724L171.563 78.9419C160.649 69.0423 146.404 62.7577 130.728 61.9992V52.9416C138.797 51.4305 144.927 44.337 144.927 35.8355C144.927 26.2384 137.117 18.4287 127.52 18.4287H127.518C122.87 18.4287 118.498 20.2404 115.212 23.5269C111.923 26.8155 110.114 31.1852 110.114 35.8355C110.114 44.337 116.243 51.4305 124.312 52.9416V62.0001C108.637 62.7586 94.3893 69.041 83.4788 78.9427L66.1973 61.6612C69.7704 57.114 71.9107 51.3882 71.9107 45.1704C71.9107 30.4249 59.9127 18.4291 45.1673 18.4291C30.424 18.4291 18.4282 30.4249 18.4282 45.1704C18.426 52.314 21.2081 59.0302 26.2601 64.0801C31.3096 69.1317 38.0258 71.9138 45.1677 71.9138C51.3877 71.9138 57.1131 69.773 61.6608 66.1982L78.9422 83.4797C69.0405 94.3902 62.756 108.638 61.9974 124.313H52.9385C51.4275 116.243 44.3361 110.114 35.8346 110.114H35.8324C31.1842 110.114 26.8124 111.924 23.526 115.213C20.2374 118.501 18.4277 122.871 18.4277 127.521C18.4277 137.12 26.2353 144.928 35.8346 144.928C44.3361 144.928 51.4275 138.799 52.9385 130.729H61.997C62.7555 146.403 69.0397 160.654 78.9397 171.562L61.6603 188.842C57.1131 185.269 51.3873 183.13 45.1673 183.13C30.424 183.13 18.4282 195.126 18.4282 209.87C18.426 217.014 21.2081 223.73 26.2601 228.784C31.3096 233.831 38.0258 236.611 45.1677 236.611C59.9136 236.611 71.9111 224.615 71.9111 209.87C71.9111 203.654 69.7708 197.929 66.1977 193.381L83.4775 176.102C94.3897 186.001 108.637 192.286 124.311 193.044V202.097C120.883 202.734 117.73 204.38 115.212 206.9C111.924 210.187 110.114 214.558 110.114 219.209C110.114 228.804 117.922 236.611 127.521 236.611C137.118 236.611 144.927 228.804 144.927 219.209C144.927 210.703 138.798 203.61 130.728 202.101V193.044C146.404 192.285 160.649 186.001 171.559 176.101L188.843 193.381C185.266 197.928 183.127 203.654 183.127 209.87C183.127 217.013 185.907 223.729 190.961 228.783C196.013 233.831 202.725 236.611 209.869 236.611C224.616 236.611 236.612 224.615 236.612 209.87C236.612 195.126 224.616 183.13 209.869 183.13C203.649 183.13 197.923 185.269 193.378 188.846L176.098 171.562C185.996 160.654 192.282 146.402 193.043 130.729Z" fill="#116FFF"/>
</svg>
