<svg width="65" height="64" viewBox="0 0 65 64" fill="none" xmlns="http://www.w3.org/2000/svg">
<path d="M58.1691 46.0818C50.282 56.5903 33.4341 53.0432 22.6323 53.5534C22.6323 53.5534 20.7201 53.6598 18.7941 53.9768C18.7941 53.9768 19.5224 53.6661 20.4512 53.3459C28.0378 50.7224 31.623 50.1952 36.2328 47.8274C44.8942 43.3906 53.5143 33.7261 55.2683 23.6866C51.9715 33.3424 41.9446 41.6529 32.8148 45.0276C26.5658 47.3335 15.265 49.5776 15.2634 49.5786C15.2687 49.5866 14.813 49.342 14.8066 49.3367C7.12123 45.5976 6.89947 28.9522 20.8577 23.5866C26.9775 21.2324 32.8313 22.5254 39.4471 20.9508C46.5032 19.2731 54.6755 13.9841 57.9972 7.06926C61.721 18.1145 66.1944 35.3949 58.1691 46.0818ZM58.3062 3.64661C57.3673 5.87734 56.2214 7.88749 54.9004 9.68546C49.0859 3.71802 40.9703 4.41814e-08 31.9998 4.41814e-08C14.3541 4.41814e-08 0 14.3557 0 31.9982C0 41.2469 3.94777 49.5882 10.2418 55.4349L10.9425 56.0558C9.77231 55.1015 9.59236 53.383 10.5408 52.2117C11.4951 51.0399 13.2152 50.8584 14.3859 51.8074C15.5598 52.7584 15.7387 54.4812 14.7882 55.6546C13.8412 56.8285 12.118 57.0058 10.9457 56.0584L11.4226 56.4808C16.9899 61.1684 24.1666 64 31.9998 64C48.8663 64 62.7161 50.8743 63.9016 34.3074C64.7796 26.1958 62.3837 15.8958 58.3062 3.64661Z" fill="#5FB832"/>
</svg>
