<svg width="64" height="64" viewBox="0 0 64 64" fill="none" xmlns="http://www.w3.org/2000/svg">
<path d="M63.9955 17.7267C63.9917 17.0831 63.9846 16.4397 63.9668 15.7953C63.9293 14.3936 63.8464 12.9791 63.5973 11.5923C63.3445 10.184 62.9312 8.87451 62.2799 7.59518C61.6406 6.3388 60.8048 5.1891 59.8078 4.1921C58.811 3.1951 57.6613 2.35942 56.4044 1.71975C55.1261 1.0692 53.8164 0.656046 52.4094 0.40324C51.0219 0.153343 49.6074 0.0710142 48.2046 0.0330825C47.5605 0.0156253 46.917 0.00829756 46.2732 0.00431042C45.5089 0 44.7442 0 43.9801 0H27.0385H20.0199C19.2551 0 18.4912 0 17.7272 0.00441818C17.0831 0.00840532 16.4389 0.015733 15.7958 0.0331903C15.4451 0.0426732 15.0937 0.0549579 14.7421 0.0718763C13.6874 0.122739 12.631 0.215952 11.5909 0.403348C10.5356 0.593006 9.53491 0.872753 8.5614 1.27524C8.23693 1.40929 7.91538 1.55714 7.59576 1.71975C6.65307 2.1995 5.77051 2.78949 4.9678 3.47506C4.70023 3.70362 4.4415 3.94274 4.19236 4.19199C3.19514 5.18899 2.35935 6.33869 1.72001 7.59507C1.0687 8.87441 0.65598 10.1839 0.402958 11.5922C0.154031 12.979 0.0712708 14.3935 0.0335546 15.7952C0.0158819 16.4396 0.00844639 17.083 0.00424373 17.7266C-0.000605494 18.4911 4.10688e-05 19.2556 4.10688e-05 20.0199V30.4531V43.9798C4.10688e-05 44.7448 -0.000713255 45.5086 0.00424373 46.2736C0.00844639 46.9172 0.0158819 47.5606 0.0335546 48.2039C0.0712708 49.6064 0.153923 51.0212 0.402958 52.4073C0.65598 53.8152 1.0687 55.1259 1.72001 56.4049C2.35935 57.6616 3.19514 58.811 4.19236 59.8075C5.18882 60.805 6.33884 61.6405 7.59587 62.2806C8.87423 62.9313 10.1838 63.3439 11.5912 63.5967C12.9779 63.8463 14.3934 63.9293 15.7959 63.9668C16.439 63.9839 17.0832 63.9916 17.7273 63.9952C18.4913 64.0007 19.2552 64 20.02 64H43.9801C44.7442 64 45.5089 64.0007 46.2731 63.9952C46.9169 63.9916 47.5604 63.9839 48.2045 63.9668C49.6073 63.9293 51.0218 63.8462 52.4093 63.5967C53.8163 63.3439 55.126 62.9312 56.4043 62.2806C57.6612 61.6407 58.8109 60.805 59.8077 59.8075C60.8047 58.8109 61.6406 57.6616 62.2798 56.4049C62.9311 55.1259 63.3444 53.8153 63.5972 52.4073C63.8463 51.0212 63.9292 49.6064 63.9667 48.2039C63.9844 47.5606 63.9915 46.9173 63.9954 46.2736C64.0003 45.5086 63.9999 44.7448 63.9999 43.9798V20.0199C64 19.2556 64.0003 18.4911 63.9955 17.7267Z" fill="#F05138"/>
<path d="M50.7127 39.5058C50.7112 39.5039 50.7098 39.5025 50.7082 39.5007C50.779 39.2597 50.852 39.0203 50.914 38.7733C53.5703 28.1902 47.0873 15.6782 36.1167 9.09021C40.9243 15.6075 43.0499 23.5014 41.1613 30.4047C40.9929 31.0205 40.7904 31.6114 40.5666 32.1858C40.3237 32.0262 40.0177 31.845 39.6067 31.6184C39.6067 31.6184 28.6939 24.8805 16.8662 12.9627C16.5558 12.6499 23.1732 22.4208 30.6831 30.3551C27.1449 28.3694 17.2844 21.1951 11.042 15.4817C11.809 16.7607 12.7212 17.9923 13.7239 19.178C18.9368 25.789 25.7351 33.9459 33.8797 40.2095C28.1572 43.7115 20.0712 43.9838 12.0203 40.2132C10.029 39.28 8.15697 38.154 6.42407 36.8747C9.832 42.3257 15.0807 47.0288 21.4688 49.7745C29.087 53.0483 36.6626 52.8263 42.305 49.8281L42.3006 49.8346C42.3263 49.8183 42.3591 49.8005 42.3858 49.784C42.6175 49.6595 42.8475 49.5326 43.0724 49.3987C45.7833 47.9916 51.1379 46.5639 54.012 52.1561C54.7159 53.5246 56.2116 46.2719 50.7127 39.5058Z" fill="white"/>
</svg>
