<svg width="66" height="64" viewBox="0 0 66 64" fill="none" xmlns="http://www.w3.org/2000/svg">
<path d="M31.6257 2.95849V5.92906H26.3125V7.86113H31.6257V13.7781H33.7026V7.86113H39.1487V5.92906H33.7026V0H31.6257V2.95849Z" fill="#7099A6"/>
<path d="M14.2611 10.4936V14.8045H6.21887V17.5094H14.2611V26.2641H17.2438V17.5094H25.4068V14.8045H17.2438V6.18262H14.2611V10.4936Z" fill="#EB912C"/>
<path d="M47.9638 10.4936V14.8045H39.9215V17.6422H47.9638V26.2641H51.0672V17.6422H59.1094V14.8045H51.0672V6.18262H47.9638V10.4936Z" fill="#59879B"/>
<path d="M30.8528 25.1774V30.0075H21.9049V33.606H30.8528V43.2664H34.4755V33.606H43.4234V30.0075H34.4755V20.3472H30.8528V25.1774Z" fill="#E8762C"/>
<path d="M57.1653 27.6165V30.6475H51.7192V33.0988H57.1653V39.1486H59.8823V33.0988H65.3283V30.6475H59.8823V24.5977H57.1653V27.6165Z" fill="#5B6591"/>
<path d="M5.31321 27.8822V30.7804H0V32.8332H5.31321V38.6294H7.39019V32.8332L12.8362 32.64V30.7804H7.39019V24.9841H5.31321V27.8822Z" fill="#7099A6"/>
<path d="M14.2611 41.5275V45.8384H6.21887V48.6762H14.2611V57.2981H17.3645V48.6762H25.4068V45.8384H17.3645V37.2166H14.2611V41.5275Z" fill="#C72035"/>
<path d="M47.9638 41.5275V45.8384H39.9215V48.5433H47.9638V57.2981H51.0672V48.5433H59.1094V45.8384H51.0672V37.2166H47.9638V41.5275Z" fill="#1F447E"/>
<path d="M31.3721 52.4799V55.4988H25.926V57.9501H31.3721V63.9999H34.0891V57.9501H39.5351V55.4988H34.0891V49.449H31.3721V52.4799Z" fill="#5B6591"/>
</svg>
