<svg width="64" height="64" viewBox="0 0 64 64" fill="none" xmlns="http://www.w3.org/2000/svg">
<g clip-path="url(#clip0_246_1109)">
<path d="M0 32C0 14.728 14.302 0.854004 32 0.854004C49.698 0.854004 64 14.728 64 32C64 49.272 49.698 63.146 32 63.146C14.302 63.146 0 49.272 0 32ZM31.29 42.614C28.176 42.614 25.624 42.334 23.928 42.054C21.946 41.624 20.666 40.492 19.824 38.94C19.114 37.378 18.688 34.834 18.832 31.428C18.832 29.596 18.968 27.898 19.104 26.188C19.394 24.502 19.53 23.084 19.824 21.94L20.104 20.814V20.678C20.104 20.396 19.824 20.104 19.53 20.104L15.426 19.542H15.29C15.01 19.542 14.72 19.824 14.584 19.968C14.584 20.24 14.438 20.386 14.302 20.958C14.022 22.23 13.876 23.366 13.596 24.918C13.302 26.74 13.158 28.596 13.17 30.438C13.17 30.438 13.034 30.864 13.17 34.262C13.314 37.668 13.876 40.356 15.012 42.48C16.148 44.458 17.98 46.01 20.678 46.864C23.366 47.72 27.044 48.146 31.72 48.146H32.28C36.958 48.146 40.634 47.72 43.322 46.864C46.02 46.022 47.864 44.458 48.988 42.48C50.124 40.354 50.698 37.666 50.83 34.262C50.976 30.864 50.83 30.438 50.83 30.438C50.83 28.46 50.56 26.614 50.404 24.928C50.124 23.218 49.988 22.082 49.698 20.958C49.562 20.396 49.562 20.104 49.416 19.968C49.416 19.688 49.136 19.542 48.71 19.542H48.574L44.46 20.104C44.178 20.104 43.898 20.394 43.898 20.678V20.814L44.178 21.948C44.46 23.084 44.596 24.502 44.888 26.188C45.17 27.898 45.17 29.596 45.17 31.428C45.17 34.834 44.888 37.242 44.178 38.94C43.472 40.502 42.056 41.626 40.074 42.054C38.368 42.48 35.826 42.614 32.712 42.614H31.29Z" fill="black"/>
</g>
<defs>
<clipPath id="clip0_246_1109">
<rect width="64" height="64" fill="white"/>
</clipPath>
</defs>
</svg>
